<?xml version="1.0" encoding="UTF-8" standalone="no"?><svg xmlns="http://www.w3.org/2000/svg" xmlns:xlink="http://www.w3.org/1999/xlink" clip-rule="evenodd" stroke-miterlimit="4.00" viewBox="0 0 1024 768"><desc>SVG generated by Keynote</desc><defs></defs><g transform="matrix(1.00, 0.00, -0.00, -1.00, 0.0, 768.0)"><path d="M 0.0 768.0 L 1024.0 768.0 L 1024.0 0.0 L 0.0 0.0 Z M 0.0 768.0 " fill="#FEFFFF"></path><g><clipPath id="clip-24"><path d="M 0.0 767.0 L 1024.0 767.0 L 1024.0 1.0 L 0.0 1.0 Z M 0.0 767.0 "></path></clipPath><g clip-path="url(#clip-24)"><image xlink:href="../../0CEF461B-75A5-4EA3-86D8-15400816D1F9/assets/53CDC0A412E54AD92A25BE36EFE5ACD9.jpeg" width="1024.00" height="766.00" transform="matrix(1.00, 0.00, -0.00, -1.00, 0.0, 767.0)"></image></g></g><text xml:space="preserve" font-family="Helvetica-LightOblique" font-style="italic" font-size="34.0" fill="#000000" transform="matrix(1.00, 0.00, -0.00, -1.00, 674.0, 680.0)">A</text><text xml:space="preserve" font-family="Helvetica-LightOblique" font-style="italic" font-size="34.0" fill="#000000" transform="matrix(1.00, 0.00, -0.00, -1.00, 696.7, 680.0)">c</text><text xml:space="preserve" font-family="Helvetica-LightOblique" font-style="italic" font-size="34.0" fill="#000000" transform="matrix(1.00, 0.00, -0.00, -1.00, 715.6, 680.0)">r</text><text xml:space="preserve" font-family="Helvetica-LightOblique" font-style="italic" font-size="34.0" fill="#000000" transform="matrix(1.00, 0.00, -0.00, -1.00, 726.3, 680.0)">o</text><text xml:space="preserve" font-family="Helvetica-LightOblique" font-style="italic" font-size="34.0" fill="#000000" transform="matrix(1.00, 0.00, -0.00, -1.00, 745.2, 680.0)">p</text><text xml:space="preserve" font-family="Helvetica-LightOblique" font-style="italic" font-size="34.0" fill="#000000" transform="matrix(1.00, 0.00, -0.00, -1.00, 766.0, 680.0)">o</text><text xml:space="preserve" font-family="Helvetica-LightOblique" font-style="italic" font-size="34.0" fill="#000000" transform="matrix(1.00, 0.00, -0.00, -1.00, 784.9, 680.0)">r</text><text xml:space="preserve" font-family="Helvetica-LightOblique" font-style="italic" font-size="34.0" fill="#000000" transform="matrix(1.00, 0.00, -0.00, -1.00, 796.2, 680.0)">a</text><text xml:space="preserve" font-family="Helvetica-LightOblique" font-style="italic" font-size="34.0" fill="#000000" transform="matrix(1.00, 0.00, -0.00, -1.00, 815.1, 680.0)"> </text><text xml:space="preserve" font-family="Helvetica-LightOblique" font-style="italic" font-size="34.0" fill="#000000" transform="matrix(1.00, 0.00, -0.00, -1.00, 824.6, 680.0)">p</text><text xml:space="preserve" font-family="Helvetica-LightOblique" font-style="italic" font-size="34.0" fill="#000000" transform="matrix(1.00, 0.00, -0.00, -1.00, 845.3, 680.0)">a</text><text xml:space="preserve" font-family="Helvetica-LightOblique" font-style="italic" font-size="34.0" fill="#000000" transform="matrix(1.00, 0.00, -0.00, -1.00, 864.2, 680.0)">l</text><text xml:space="preserve" font-family="Helvetica-LightOblique" font-style="italic" font-size="34.0" fill="#000000" transform="matrix(1.00, 0.00, -0.00, -1.00, 871.8, 680.0)">m</text><text xml:space="preserve" font-family="Helvetica-LightOblique" font-style="italic" font-size="34.0" fill="#000000" transform="matrix(1.00, 0.00, -0.00, -1.00, 900.1, 680.0)">a</text><text xml:space="preserve" font-family="Helvetica-LightOblique" font-style="italic" font-size="34.0" fill="#000000" transform="matrix(1.00, 0.00, -0.00, -1.00, 919.0, 680.0)">t</text><text xml:space="preserve" font-family="Helvetica-LightOblique" font-style="italic" font-size="34.0" fill="#000000" transform="matrix(1.00, 0.00, -0.00, -1.00, 928.5, 680.0)">a</text><text xml:space="preserve" font-family="Helvetica-Light" font-size="36.0" fill="#000000" transform="matrix(1.00, 0.00, -0.00, -1.00, 20.0, 712.0)">J</text><text xml:space="preserve" font-family="Helvetica-Light" font-size="36.0" fill="#000000" transform="matrix(1.00, 0.00, -0.00, -1.00, 38.0, 712.0)">a</text><text xml:space="preserve" font-family="Helvetica-Light" font-size="36.0" fill="#000000" transform="matrix(1.00, 0.00, -0.00, -1.00, 58.0, 712.0)">y</text><text xml:space="preserve" font-family="Helvetica-Light" font-size="36.0" fill="#000000" transform="matrix(1.00, 0.00, -0.00, -1.00, 76.0, 712.0)"> </text><text xml:space="preserve" font-family="Helvetica-Light" font-size="36.0" fill="#000000" transform="matrix(1.00, 0.00, -0.00, -1.00, 86.0, 712.0)">D</text><text xml:space="preserve" font-family="Helvetica-Light" font-size="36.0" fill="#000000" transform="matrix(1.00, 0.00, -0.00, -1.00, 112.0, 712.0)">i</text><text xml:space="preserve" font-family="Helvetica-Light" font-size="36.0" fill="#000000" transform="matrix(1.00, 0.00, -0.00, -1.00, 120.0, 712.0)">m</text><text xml:space="preserve" font-family="Helvetica-Light" font-size="36.0" fill="#000000" transform="matrix(1.00, 0.00, -0.00, -1.00, 150.0, 712.0)">o</text><text xml:space="preserve" font-family="Helvetica-Light" font-size="36.0" fill="#000000" transform="matrix(1.00, 0.00, -0.00, -1.00, 170.0, 712.0)">n</text><text xml:space="preserve" font-family="Helvetica-Light" font-size="36.0" fill="#000000" transform="matrix(1.00, 0.00, -0.00, -1.00, 190.0, 712.0)">d</text><image xlink:href="DB60CBAD8EAFF664F4D848DD10D996E9.png" width="589.00" height="289.00" transform="matrix(1.00, 0.00, -0.00, -1.00, 46.0, 643.0)"></image><image xlink:href="B124060A00C0246A67CC5D1FD2436F50.png" width="417.00" height="288.00" transform="matrix(1.00, 0.00, -0.00, -1.00, 532.0, 337.0)"></image></g></svg>