<?xml version="1.0" encoding="UTF-8" standalone="no"?><svg xmlns="http://www.w3.org/2000/svg" xmlns:xlink="http://www.w3.org/1999/xlink" clip-rule="evenodd" stroke-miterlimit="4.00" viewBox="0 0 1024 768"><desc>SVG generated by Keynote</desc><defs></defs><g transform="matrix(1.00, 0.00, -0.00, -1.00, 0.0, 768.0)"><path d="M 0.0 768.0 L 1024.0 768.0 L 1024.0 0.0 L 0.0 0.0 Z M 0.0 768.0 " fill="#FEFFFF"></path><g><clipPath id="clip-76"><path d="M 8.0 578.0 L 206.0 578.0 L 206.0 765.0 L 8.0 765.0 Z M 8.0 578.0 "></path></clipPath><g clip-path="url(#clip-76)"><image xlink:href="4C535C737FC639DD27CC597A681D676D.png" width="198.00" height="187.00" transform="matrix(1.00, 0.00, -0.00, -1.00, 8.0, 765.0)"></image></g></g><g><clipPath id="clip-77"><path d="M -23.0 520.5 L 273.7 520.5 L 273.7 783.3 L -23.0 783.3 Z M -23.0 520.5 "></path></clipPath><g clip-path="url(#clip-77)"><path d="M 153.3 779.5 L 163.8 695.7 L 211.6 647.9 L 207.1 557.7 L 92.1 565.6 L 100.6 637.9 L 73.7 672.7 L 64.7 701.0 L 12.4 702.0 L 7.6 765.8 L 91.6 780.8 L -22.0 782.3 L -4.0 544.0 L 272.7 521.5 L 240.3 748.9 L 153.3 779.5 Z M 153.3 779.5 " fill="#FFFFFF"></path></g></g><text xml:space="preserve" font-family="CenturyGothic" font-size="84.0" fill="#000000" transform="matrix(1.00, 0.00, -0.00, -1.00, 295.0, 351.0)">F</text><text xml:space="preserve" font-family="CenturyGothic" font-size="84.0" fill="#000000" transform="matrix(1.00, 0.00, -0.00, -1.00, 335.7, 351.0)">u</text><text xml:space="preserve" font-family="CenturyGothic" font-size="84.0" fill="#000000" transform="matrix(1.00, 0.00, -0.00, -1.00, 386.8, 351.0)">n</text><text xml:space="preserve" font-family="CenturyGothic" font-size="84.0" fill="#000000" transform="matrix(1.00, 0.00, -0.00, -1.00, 438.0, 351.0)">c</text><text xml:space="preserve" font-family="CenturyGothic" font-size="84.0" fill="#000000" transform="matrix(1.00, 0.00, -0.00, -1.00, 492.3, 351.0)">t</text><text xml:space="preserve" font-family="CenturyGothic" font-size="84.0" fill="#000000" transform="matrix(1.00, 0.00, -0.00, -1.00, 520.8, 351.0)">i</text><text xml:space="preserve" font-family="CenturyGothic" font-size="84.0" fill="#000000" transform="matrix(1.00, 0.00, -0.00, -1.00, 537.6, 351.0)">o</text><text xml:space="preserve" font-family="CenturyGothic" font-size="84.0" fill="#000000" transform="matrix(1.00, 0.00, -0.00, -1.00, 592.6, 351.0)">n</text><text xml:space="preserve" font-family="CenturyGothic" font-size="84.0" fill="#000000" transform="matrix(1.00, 0.00, -0.00, -1.00, 643.8, 351.0)">?</text></g></svg>