<?xml version="1.0" encoding="UTF-8" standalone="no"?><svg xmlns="http://www.w3.org/2000/svg" xmlns:xlink="http://www.w3.org/1999/xlink" clip-rule="evenodd" stroke-miterlimit="4.00" viewBox="0 0 1024 768"><desc>SVG generated by Keynote</desc><defs><linearGradient id="gradSh1.12" x1="0.0" y1="0.0" x2="100.0" y2="0.0" gradientUnits="userSpaceOnUse" gradientTransform="matrix(0.00, -0.23, -0.23, 0.00, 823.5, 420.0)"><stop offset="0.00000" stop-color="#FF2F92"></stop><stop offset="0.00147" stop-color="#FF3092"></stop><stop offset="0.28886" stop-color="#B54B7F"></stop><stop offset="0.29252" stop-color="#B44B7F"></stop><stop offset="0.83358" stop-color="#2A805C"></stop><stop offset="0.83798" stop-color="#29805C"></stop><stop offset="1.00000" stop-color="#009051"></stop></linearGradient><linearGradient id="gradSh1.13" x1="0.0" y1="0.0" x2="100.0" y2="0.0" gradientUnits="userSpaceOnUse" gradientTransform="matrix(0.00, -0.23, -0.23, 0.00, 751.5, 377.0)"><stop offset="0.00000" stop-color="#FF2F92"></stop><stop offset="0.00147" stop-color="#FF3092"></stop><stop offset="0.28886" stop-color="#B54B7F"></stop><stop offset="0.29252" stop-color="#B44B7F"></stop><stop offset="0.83358" stop-color="#2A805C"></stop><stop offset="0.83798" stop-color="#29805C"></stop><stop offset="1.00000" stop-color="#009051"></stop></linearGradient><linearGradient id="gradSh1.14" x1="0.0" y1="0.0" x2="100.0" y2="0.0" gradientUnits="userSpaceOnUse" gradientTransform="matrix(0.00, -0.23, -0.23, 0.00, 715.5, 274.0)"><stop offset="0.00000" stop-color="#FF2F92"></stop><stop offset="0.00147" stop-color="#FF3092"></stop><stop offset="0.28886" stop-color="#B54B7F"></stop><stop offset="0.29252" stop-color="#B44B7F"></stop><stop offset="0.83358" stop-color="#2A805C"></stop><stop offset="0.83798" stop-color="#29805C"></stop><stop offset="1.00000" stop-color="#009051"></stop></linearGradient></defs><g transform="matrix(1.00, 0.00, -0.00, -1.00, 0.0, 768.0)"><path d="M 0.0 768.0 L 1024.0 768.0 L 1024.0 0.0 L 0.0 0.0 Z M 0.0 768.0 " fill="#FEFFFF"></path><image xlink:href="../../77C9C24E-FC59-4B40-9D3E-1F66F0AB9127/assets/FF35856C4D0DF91C8C04A110BB9BAF44.png" width="625.00" height="540.00" transform="matrix(1.14, 0.00, -0.00, -1.14, 233.0, 652.0)"></image><text xml:space="preserve" font-family="CenturyGothic" font-size="18.0" fill="#000000" transform="matrix(1.00, 0.00, -0.00, -1.00, 788.0, 21.0)">R</text><text xml:space="preserve" font-family="CenturyGothic" font-size="18.0" fill="#000000" transform="matrix(1.00, 0.00, -0.00, -1.00, 798.9, 21.0)">o</text><text xml:space="preserve" font-family="CenturyGothic" font-size="18.0" fill="#000000" transform="matrix(1.00, 0.00, -0.00, -1.00, 810.7, 21.0)">b</text><text xml:space="preserve" font-family="CenturyGothic" font-size="18.0" fill="#000000" transform="matrix(1.00, 0.00, -0.00, -1.00, 823.0, 21.0)">e</text><text xml:space="preserve" font-family="CenturyGothic" font-size="18.0" fill="#000000" transform="matrix(1.00, 0.00, -0.00, -1.00, 834.7, 21.0)">r</text><text xml:space="preserve" font-family="CenturyGothic" font-size="18.0" fill="#000000" transform="matrix(1.00, 0.00, -0.00, -1.00, 840.1, 21.0)">t</text><text xml:space="preserve" font-family="CenturyGothic" font-size="18.0" fill="#000000" transform="matrix(1.00, 0.00, -0.00, -1.00, 846.2, 21.0)">s</text><text xml:space="preserve" font-family="CenturyGothic" font-size="18.0" fill="#000000" transform="matrix(1.00, 0.00, -0.00, -1.00, 853.2, 21.0)"> </text><text xml:space="preserve" font-family="CenturyGothic" font-size="18.0" fill="#000000" transform="matrix(1.00, 0.00, -0.00, -1.00, 858.2, 21.0)">a</text><text xml:space="preserve" font-family="CenturyGothic" font-size="18.0" fill="#000000" transform="matrix(1.00, 0.00, -0.00, -1.00, 870.5, 21.0)">n</text><text xml:space="preserve" font-family="CenturyGothic" font-size="18.0" fill="#000000" transform="matrix(1.00, 0.00, -0.00, -1.00, 881.4, 21.0)">d</text><text xml:space="preserve" font-family="CenturyGothic" font-size="18.0" fill="#000000" transform="matrix(1.00, 0.00, -0.00, -1.00, 893.8, 21.0)"> </text><text xml:space="preserve" font-family="CenturyGothic" font-size="18.0" fill="#000000" transform="matrix(1.00, 0.00, -0.00, -1.00, 898.7, 21.0)">G</text><text xml:space="preserve" font-family="CenturyGothic" font-size="18.0" fill="#000000" transform="matrix(1.00, 0.00, -0.00, -1.00, 914.4, 21.0)">a</text><text xml:space="preserve" font-family="CenturyGothic" font-size="18.0" fill="#000000" transform="matrix(1.00, 0.00, -0.00, -1.00, 926.7, 21.0)">v</text><text xml:space="preserve" font-family="CenturyGothic" font-size="18.0" fill="#000000" transform="matrix(1.00, 0.00, -0.00, -1.00, 936.7, 21.0)">e</text><text xml:space="preserve" font-family="CenturyGothic" font-size="18.0" fill="#000000" transform="matrix(1.00, 0.00, -0.00, -1.00, 948.4, 21.0)">r</text><text xml:space="preserve" font-family="CenturyGothic" font-size="18.0" fill="#000000" transform="matrix(1.00, 0.00, -0.00, -1.00, 953.8, 21.0)">y</text><text xml:space="preserve" font-family="CenturyGothic" font-size="18.0" fill="#000000" transform="matrix(1.00, 0.00, -0.00, -1.00, 963.5, 21.0)"> </text><text xml:space="preserve" font-family="CenturyGothic" font-size="18.0" fill="#000000" transform="matrix(1.00, 0.00, -0.00, -1.00, 968.4, 21.0)">2</text><text xml:space="preserve" font-family="CenturyGothic" font-size="18.0" fill="#000000" transform="matrix(1.00, 0.00, -0.00, -1.00, 978.4, 21.0)">0</text><text xml:space="preserve" font-family="CenturyGothic" font-size="18.0" fill="#000000" transform="matrix(1.00, 0.00, -0.00, -1.00, 988.4, 21.0)">1</text><text xml:space="preserve" font-family="CenturyGothic" font-size="18.0" fill="#000000" transform="matrix(1.00, 0.00, -0.00, -1.00, 998.4, 21.0)">2</text><image xlink:href="../../77C9C24E-FC59-4B40-9D3E-1F66F0AB9127/assets/C269F9B7996ED47B03047EED083B8A2A.png" width="41.00" height="41.00" transform="matrix(1.00, 0.00, -0.00, -1.00, 806.6, 424.2)" opacity="0.75"></image><g><clipPath id="clip-82"><path d="M 830.9 415.9 C 835.0 411.8 835.0 405.2 830.9 401.1 C 826.8 397.0 820.2 397.0 816.1 401.1 C 812.0 405.2 812.0 411.8 816.1 415.9 C 820.2 420.0 826.8 420.0 830.9 415.9 "></path></clipPath><g clip-path="url(#clip-82)"><path d="M 830.9 415.9 C 835.0 411.8 835.0 405.2 830.9 401.1 C 826.8 397.0 820.2 397.0 816.1 401.1 C 812.0 405.2 812.0 411.8 816.1 415.9 C 820.2 420.0 826.8 420.0 830.9 415.9 " fill="url(#gradSh1.12)"></path></g></g><image xlink:href="../../F0583FBF-65BA-4465-AA0B-6566E65A193D/assets/60629E4D46E9A5482D97E175097F3BF7.png" width="88.00" height="40.00" transform="matrix(0.24, 0.00, -0.00, -0.24, 813.0, 398.0)"></image><image xlink:href="../../77C9C24E-FC59-4B40-9D3E-1F66F0AB9127/assets/C269F9B7996ED47B03047EED083B8A2A.png" width="41.00" height="41.00" transform="matrix(1.00, 0.00, -0.00, -1.00, 734.6, 381.2)" opacity="0.75"></image><g><clipPath id="clip-83"><path d="M 758.9 372.9 C 763.0 368.8 763.0 362.2 758.9 358.1 C 754.8 354.0 748.2 354.0 744.1 358.1 C 740.0 362.2 740.0 368.8 744.1 372.9 C 748.2 377.0 754.8 377.0 758.9 372.9 "></path></clipPath><g clip-path="url(#clip-83)"><path d="M 758.9 372.9 C 763.0 368.8 763.0 362.2 758.9 358.1 C 754.8 354.0 748.2 354.0 744.1 358.1 C 740.0 362.2 740.0 368.8 744.1 372.9 C 748.2 377.0 754.8 377.0 758.9 372.9 " fill="url(#gradSh1.13)"></path></g></g><image xlink:href="../../F0583FBF-65BA-4465-AA0B-6566E65A193D/assets/60629E4D46E9A5482D97E175097F3BF7.png" width="88.00" height="40.00" transform="matrix(0.24, 0.00, -0.00, -0.24, 741.0, 355.0)"></image><image xlink:href="../../77C9C24E-FC59-4B40-9D3E-1F66F0AB9127/assets/C269F9B7996ED47B03047EED083B8A2A.png" width="41.00" height="41.00" transform="matrix(1.00, 0.00, -0.00, -1.00, 698.6, 278.2)" opacity="0.75"></image><g><clipPath id="clip-84"><path d="M 722.9 269.9 C 727.0 265.8 727.0 259.2 722.9 255.1 C 718.8 251.0 712.2 251.0 708.1 255.1 C 704.0 259.2 704.0 265.8 708.1 269.9 C 712.2 274.0 718.8 274.0 722.9 269.9 "></path></clipPath><g clip-path="url(#clip-84)"><path d="M 722.9 269.9 C 727.0 265.8 727.0 259.2 722.9 255.1 C 718.8 251.0 712.2 251.0 708.1 255.1 C 704.0 259.2 704.0 265.8 708.1 269.9 C 712.2 274.0 718.8 274.0 722.9 269.9 " fill="url(#gradSh1.14)"></path></g></g><image xlink:href="../../F0583FBF-65BA-4465-AA0B-6566E65A193D/assets/60629E4D46E9A5482D97E175097F3BF7.png" width="88.00" height="40.00" transform="matrix(0.24, 0.00, -0.00, -0.24, 705.0, 252.0)"></image><path d="M 505.2 148.5 L 727.9 148.5 L 727.9 108.5 L 505.2 108.5 Z M 505.2 148.5 " fill="#FFFFFF"></path><g><clipPath id="clip-85"><path d="M 501.2 104.4 L 732.0 104.4 L 732.0 152.6 L 501.2 152.6 Z M 501.2 104.4 "></path></clipPath><g clip-path="url(#clip-85)"><text xml:space="preserve" font-family="GillSans-SemiBoldItalic" font-style="italic" font-weight="bold" font-size="27.0" fill="#000000" transform="matrix(1.00, 0.00, -0.00, -1.00, 528.0, 119.0)">i</text><text xml:space="preserve" font-family="GillSans-SemiBoldItalic" font-style="italic" font-weight="bold" font-size="27.0" fill="#000000" transform="matrix(1.00, 0.00, -0.00, -1.00, 534.2, 119.0)">n</text><text xml:space="preserve" font-family="GillSans-SemiBoldItalic" font-style="italic" font-weight="bold" font-size="27.0" fill="#000000" transform="matrix(1.00, 0.00, -0.00, -1.00, 547.9, 119.0)"> </text><text xml:space="preserve" font-family="GillSans-SemiBoldItalic" font-style="italic" font-weight="bold" font-size="27.0" fill="#000000" transform="matrix(1.00, 0.00, -0.00, -1.00, 555.4, 119.0)">s</text><text xml:space="preserve" font-family="GillSans-SemiBoldItalic" font-style="italic" font-weight="bold" font-size="27.0" fill="#000000" transform="matrix(1.00, 0.00, -0.00, -1.00, 565.3, 119.0)">i</text><text xml:space="preserve" font-family="GillSans-SemiBoldItalic" font-style="italic" font-weight="bold" font-size="27.0" fill="#000000" transform="matrix(1.00, 0.00, -0.00, -1.00, 571.5, 119.0)">l</text><text xml:space="preserve" font-family="GillSans-SemiBoldItalic" font-style="italic" font-weight="bold" font-size="27.0" fill="#000000" transform="matrix(1.00, 0.00, -0.00, -1.00, 577.7, 119.0)">i</text><text xml:space="preserve" font-family="GillSans-SemiBoldItalic" font-style="italic" font-weight="bold" font-size="27.0" fill="#000000" transform="matrix(1.00, 0.00, -0.00, -1.00, 583.9, 119.0)">c</text><text xml:space="preserve" font-family="GillSans-SemiBoldItalic" font-style="italic" font-weight="bold" font-size="27.0" fill="#000000" transform="matrix(1.00, 0.00, -0.00, -1.00, 595.5, 119.0)">o</text><text xml:space="preserve" font-family="GillSans-SemiBold" font-weight="bold" font-size="27.0" fill="#000000" transform="matrix(1.00, 0.00, -0.00, -1.00, 608.9, 119.0)"> </text><text xml:space="preserve" font-family="GillSans-SemiBold" font-weight="bold" font-size="27.0" fill="#000000" transform="matrix(1.00, 0.00, -0.00, -1.00, 616.4, 119.0)">a</text><text xml:space="preserve" font-family="GillSans-SemiBold" font-weight="bold" font-size="27.0" fill="#000000" transform="matrix(1.00, 0.00, -0.00, -1.00, 629.4, 119.0)">n</text><text xml:space="preserve" font-family="GillSans-SemiBold" font-weight="bold" font-size="27.0" fill="#000000" transform="matrix(1.00, 0.00, -0.00, -1.00, 644.0, 119.0)">a</text><text xml:space="preserve" font-family="GillSans-SemiBold" font-weight="bold" font-size="27.0" fill="#000000" transform="matrix(1.00, 0.00, -0.00, -1.00, 657.0, 119.0)">l</text><text xml:space="preserve" font-family="GillSans-SemiBold" font-weight="bold" font-size="27.0" fill="#000000" transform="matrix(1.00, 0.00, -0.00, -1.00, 663.7, 119.0)">y</text><text xml:space="preserve" font-family="GillSans-SemiBold" font-weight="bold" font-size="27.0" fill="#000000" transform="matrix(1.00, 0.00, -0.00, -1.00, 676.6, 119.0)">s</text><text xml:space="preserve" font-family="GillSans-SemiBold" font-weight="bold" font-size="27.0" fill="#000000" transform="matrix(1.00, 0.00, -0.00, -1.00, 687.5, 119.0)">i</text><text xml:space="preserve" font-family="GillSans-SemiBold" font-weight="bold" font-size="27.0" fill="#000000" transform="matrix(1.00, 0.00, -0.00, -1.00, 694.2, 119.0)">s</text></g></g><g opacity="0.82"><g><clipPath id="clip-86"><path d="M 383.0 344.0 L 881.0 344.0 L 881.0 657.0 L 383.0 657.0 Z M 383.0 344.0 "></path></clipPath><g clip-path="url(#clip-86)"><path d="M 398.4 655.3 L 405.0 514.5 L 384.6 477.9 L 513.8 347.7 L 682.9 345.8 L 794.6 425.5 L 879.8 427.4 L 879.7 565.1 L 531.1 613.5 L 398.4 655.3 Z M 398.4 655.3 " fill="#FFFFFF"></path></g></g></g><g><clipPath id="clip-87"><path d="M 14.0 611.3 L 168.1 611.3 L 168.1 756.8 L 14.0 756.8 Z M 14.0 611.3 "></path></clipPath><g clip-path="url(#clip-87)"><image xlink:href="../../C54EC868-99EE-49E8-82D9-724E6517CB85/assets/4C535C737FC639DD27CC597A681D676D.png" width="198.00" height="187.00" transform="matrix(0.78, 0.00, -0.00, -0.78, 14.0, 757.0)"></image></g></g><g><clipPath id="clip-88"><path d="M -10.4 566.3 L 221.0 566.3 L 221.0 771.3 L -10.4 771.3 Z M -10.4 566.3 "></path></clipPath><g clip-path="url(#clip-88)"><path d="M 127.1 768.1 L 135.2 702.9 L 172.4 665.7 L 168.9 595.5 L 79.5 601.6 L 86.0 657.9 L 65.1 685.0 L 58.1 707.0 L 17.4 707.8 L 13.6 757.5 L 79.1 769.1 L -9.4 770.3 L 4.6 584.8 L 220.0 567.3 L 194.8 744.3 L 127.1 768.1 Z M 127.1 768.1 " fill="#FFFFFF"></path></g></g></g></svg>