<?xml version="1.0" encoding="UTF-8" standalone="no"?><svg xmlns="http://www.w3.org/2000/svg" xmlns:xlink="http://www.w3.org/1999/xlink" clip-rule="evenodd" stroke-miterlimit="4.00" viewBox="0 0 1024 768"><desc>SVG generated by Keynote</desc><defs></defs><g transform="matrix(1.00, 0.00, -0.00, -1.00, 0.0, 768.0)"><path d="M 0.0 768.0 L 1024.0 768.0 L 1024.0 0.0 L 0.0 0.0 Z M 0.0 768.0 " fill="#FEFFFF"></path><g><clipPath id="clip-12"><path d="M 0.0 751.0 L 1043.0 751.0 L 1043.0 17.0 L 0.0 17.0 Z M -0.3 751.0 "></path></clipPath><g clip-path="url(#clip-12)"><image xlink:href="9CACB6B49753503DF1C62E259A2DC80A.jpeg" width="974.00" height="685.00" transform="matrix(1.07, 0.00, -0.00, -1.07, 0.0, 751.0)"></image></g></g><text xml:space="preserve" font-family="Helvetica-LightOblique" font-style="italic" font-size="27.0" fill="#000000" transform="matrix(1.00, 0.00, -0.00, -1.00, 725.0, 140.0)">a</text><text xml:space="preserve" font-family="Helvetica-LightOblique" font-style="italic" font-size="27.0" fill="#000000" transform="matrix(1.00, 0.00, -0.00, -1.00, 740.0, 140.0)">p</text><text xml:space="preserve" font-family="Helvetica-LightOblique" font-style="italic" font-size="27.0" fill="#000000" transform="matrix(1.00, 0.00, -0.00, -1.00, 756.5, 140.0)">p</text><text xml:space="preserve" font-family="Helvetica-LightOblique" font-style="italic" font-size="27.0" fill="#000000" transform="matrix(1.00, 0.00, -0.00, -1.00, 773.0, 140.0)">r</text><text xml:space="preserve" font-family="Helvetica-LightOblique" font-style="italic" font-size="27.0" fill="#000000" transform="matrix(1.00, 0.00, -0.00, -1.00, 781.5, 140.0)">o</text><text xml:space="preserve" font-family="Helvetica-LightOblique" font-style="italic" font-size="27.0" fill="#000000" transform="matrix(1.00, 0.00, -0.00, -1.00, 796.5, 140.0)">a</text><text xml:space="preserve" font-family="Helvetica-LightOblique" font-style="italic" font-size="27.0" fill="#000000" transform="matrix(1.00, 0.00, -0.00, -1.00, 811.5, 140.0)">c</text><text xml:space="preserve" font-family="Helvetica-LightOblique" font-style="italic" font-size="27.0" fill="#000000" transform="matrix(1.00, 0.00, -0.00, -1.00, 826.5, 140.0)">h</text><text xml:space="preserve" font-family="Helvetica-LightOblique" font-style="italic" font-size="27.0" fill="#000000" transform="matrix(1.00, 0.00, -0.00, -1.00, 841.6, 140.0)">i</text><text xml:space="preserve" font-family="Helvetica-LightOblique" font-style="italic" font-size="27.0" fill="#000000" transform="matrix(1.00, 0.00, -0.00, -1.00, 847.6, 140.0)">n</text><text xml:space="preserve" font-family="Helvetica-LightOblique" font-style="italic" font-size="27.0" fill="#000000" transform="matrix(1.00, 0.00, -0.00, -1.00, 862.6, 140.0)">g</text><text xml:space="preserve" font-family="Helvetica-LightOblique" font-style="italic" font-size="27.0" fill="#000000" transform="matrix(1.00, 0.00, -0.00, -1.00, 879.1, 140.0)"> </text><text xml:space="preserve" font-family="Helvetica-LightOblique" font-style="italic" font-size="27.0" fill="#000000" transform="matrix(1.00, 0.00, -0.00, -1.00, 886.6, 140.0)">1</text></g></svg>