<?xml version="1.0" encoding="UTF-8" standalone="no"?><svg xmlns="http://www.w3.org/2000/svg" xmlns:xlink="http://www.w3.org/1999/xlink" clip-rule="evenodd" stroke-miterlimit="4.00" viewBox="0 0 1024 768"><desc>SVG generated by Keynote</desc><defs><linearGradient id="gradSh1.0" x1="0.0" y1="0.0" x2="100.0" y2="0.0" gradientUnits="userSpaceOnUse" gradientTransform="matrix(0.00, -0.23, -0.23, 0.00, 483.5, 630.0)"><stop offset="0.00000" stop-color="#FF2600"></stop><stop offset="0.00293" stop-color="#FF2700"></stop><stop offset="0.00440" stop-color="#FF2701"></stop><stop offset="0.00733" stop-color="#FF2801"></stop><stop offset="0.01246" stop-color="#FE2902"></stop><stop offset="0.01686" stop-color="#FE2A02"></stop><stop offset="0.02933" stop-color="#FE2C04"></stop><stop offset="0.03079" stop-color="#FE2D04"></stop><stop offset="0.06232" stop-color="#FC3308"></stop><stop offset="0.06378" stop-color="#FC3408"></stop><stop offset="0.12903" stop-color="#F94210"></stop><stop offset="0.13416" stop-color="#F94310"></stop><stop offset="0.26100" stop-color="#F45E20"></stop><stop offset="0.26540" stop-color="#F45F20"></stop><stop offset="0.52639" stop-color="#E89640"></stop><stop offset="0.52786" stop-color="#E89740"></stop><stop offset="1.00000" stop-color="#D4FB79"></stop></linearGradient><linearGradient id="gradSh1.1" x1="0.0" y1="0.0" x2="100.0" y2="0.0" gradientUnits="userSpaceOnUse" gradientTransform="matrix(0.00, -0.23, -0.23, 0.00, 563.5, 590.0)"><stop offset="0.00000" stop-color="#FF2600"></stop><stop offset="0.00293" stop-color="#FF2700"></stop><stop offset="0.00440" stop-color="#FF2701"></stop><stop offset="0.00733" stop-color="#FF2801"></stop><stop offset="0.01246" stop-color="#FE2902"></stop><stop offset="0.01686" stop-color="#FE2A02"></stop><stop offset="0.02933" stop-color="#FE2C04"></stop><stop offset="0.03079" stop-color="#FE2D04"></stop><stop offset="0.06232" stop-color="#FC3308"></stop><stop offset="0.06378" stop-color="#FC3408"></stop><stop offset="0.12903" stop-color="#F94210"></stop><stop offset="0.13416" stop-color="#F94310"></stop><stop offset="0.26100" stop-color="#F45E20"></stop><stop offset="0.26540" stop-color="#F45F20"></stop><stop offset="0.52639" stop-color="#E89640"></stop><stop offset="0.52786" stop-color="#E89740"></stop><stop offset="1.00000" stop-color="#D4FB79"></stop></linearGradient><linearGradient id="gradSh1.2" x1="0.0" y1="0.0" x2="100.0" y2="0.0" gradientUnits="userSpaceOnUse" gradientTransform="matrix(0.00, -0.23, -0.23, 0.00, 561.5, 551.0)"><stop offset="0.00000" stop-color="#FF2600"></stop><stop offset="0.00293" stop-color="#FF2700"></stop><stop offset="0.00440" stop-color="#FF2701"></stop><stop offset="0.00733" stop-color="#FF2801"></stop><stop offset="0.01246" stop-color="#FE2902"></stop><stop offset="0.01686" stop-color="#FE2A02"></stop><stop offset="0.02933" stop-color="#FE2C04"></stop><stop offset="0.03079" stop-color="#FE2D04"></stop><stop offset="0.06232" stop-color="#FC3308"></stop><stop offset="0.06378" stop-color="#FC3408"></stop><stop offset="0.12903" stop-color="#F94210"></stop><stop offset="0.13416" stop-color="#F94310"></stop><stop offset="0.26100" stop-color="#F45E20"></stop><stop offset="0.26540" stop-color="#F45F20"></stop><stop offset="0.52639" stop-color="#E89640"></stop><stop offset="0.52786" stop-color="#E89740"></stop><stop offset="1.00000" stop-color="#D4FB79"></stop></linearGradient></defs><g transform="matrix(1.00, 0.00, -0.00, -1.00, 0.0, 768.0)"><path d="M 0.0 768.0 L 1024.0 768.0 L 1024.0 0.0 L 0.0 0.0 Z M 0.0 768.0 " fill="#FEFFFF"></path><image xlink:href="FF35856C4D0DF91C8C04A110BB9BAF44.png" width="625.00" height="540.00" transform="matrix(1.14, 0.00, -0.00, -1.14, 233.0, 652.0)"></image><text xml:space="preserve" font-family="CenturyGothic" font-size="18.0" fill="#000000" transform="matrix(1.00, 0.00, -0.00, -1.00, 788.0, 21.0)">R</text><text xml:space="preserve" font-family="CenturyGothic" font-size="18.0" fill="#000000" transform="matrix(1.00, 0.00, -0.00, -1.00, 798.9, 21.0)">o</text><text xml:space="preserve" font-family="CenturyGothic" font-size="18.0" fill="#000000" transform="matrix(1.00, 0.00, -0.00, -1.00, 810.7, 21.0)">b</text><text xml:space="preserve" font-family="CenturyGothic" font-size="18.0" fill="#000000" transform="matrix(1.00, 0.00, -0.00, -1.00, 823.0, 21.0)">e</text><text xml:space="preserve" font-family="CenturyGothic" font-size="18.0" fill="#000000" transform="matrix(1.00, 0.00, -0.00, -1.00, 834.7, 21.0)">r</text><text xml:space="preserve" font-family="CenturyGothic" font-size="18.0" fill="#000000" transform="matrix(1.00, 0.00, -0.00, -1.00, 840.1, 21.0)">t</text><text xml:space="preserve" font-family="CenturyGothic" font-size="18.0" fill="#000000" transform="matrix(1.00, 0.00, -0.00, -1.00, 846.2, 21.0)">s</text><text xml:space="preserve" font-family="CenturyGothic" font-size="18.0" fill="#000000" transform="matrix(1.00, 0.00, -0.00, -1.00, 853.2, 21.0)"> </text><text xml:space="preserve" font-family="CenturyGothic" font-size="18.0" fill="#000000" transform="matrix(1.00, 0.00, -0.00, -1.00, 858.2, 21.0)">a</text><text xml:space="preserve" font-family="CenturyGothic" font-size="18.0" fill="#000000" transform="matrix(1.00, 0.00, -0.00, -1.00, 870.5, 21.0)">n</text><text xml:space="preserve" font-family="CenturyGothic" font-size="18.0" fill="#000000" transform="matrix(1.00, 0.00, -0.00, -1.00, 881.4, 21.0)">d</text><text xml:space="preserve" font-family="CenturyGothic" font-size="18.0" fill="#000000" transform="matrix(1.00, 0.00, -0.00, -1.00, 893.8, 21.0)"> </text><text xml:space="preserve" font-family="CenturyGothic" font-size="18.0" fill="#000000" transform="matrix(1.00, 0.00, -0.00, -1.00, 898.7, 21.0)">G</text><text xml:space="preserve" font-family="CenturyGothic" font-size="18.0" fill="#000000" transform="matrix(1.00, 0.00, -0.00, -1.00, 914.4, 21.0)">a</text><text xml:space="preserve" font-family="CenturyGothic" font-size="18.0" fill="#000000" transform="matrix(1.00, 0.00, -0.00, -1.00, 926.7, 21.0)">v</text><text xml:space="preserve" font-family="CenturyGothic" font-size="18.0" fill="#000000" transform="matrix(1.00, 0.00, -0.00, -1.00, 936.7, 21.0)">e</text><text xml:space="preserve" font-family="CenturyGothic" font-size="18.0" fill="#000000" transform="matrix(1.00, 0.00, -0.00, -1.00, 948.4, 21.0)">r</text><text xml:space="preserve" font-family="CenturyGothic" font-size="18.0" fill="#000000" transform="matrix(1.00, 0.00, -0.00, -1.00, 953.8, 21.0)">y</text><text xml:space="preserve" font-family="CenturyGothic" font-size="18.0" fill="#000000" transform="matrix(1.00, 0.00, -0.00, -1.00, 963.5, 21.0)"> </text><text xml:space="preserve" font-family="CenturyGothic" font-size="18.0" fill="#000000" transform="matrix(1.00, 0.00, -0.00, -1.00, 968.4, 21.0)">2</text><text xml:space="preserve" font-family="CenturyGothic" font-size="18.0" fill="#000000" transform="matrix(1.00, 0.00, -0.00, -1.00, 978.4, 21.0)">0</text><text xml:space="preserve" font-family="CenturyGothic" font-size="18.0" fill="#000000" transform="matrix(1.00, 0.00, -0.00, -1.00, 988.4, 21.0)">1</text><text xml:space="preserve" font-family="CenturyGothic" font-size="18.0" fill="#000000" transform="matrix(1.00, 0.00, -0.00, -1.00, 998.4, 21.0)">2</text><image xlink:href="C269F9B7996ED47B03047EED083B8A2A.png" width="41.00" height="41.00" transform="matrix(1.00, 0.00, -0.00, -1.00, 458.0, 642.4)" opacity="0.75"></image><g><clipPath id="clip-4"><path d="M 490.9 625.9 C 495.0 621.8 495.0 615.2 490.9 611.1 C 486.8 607.0 480.2 607.0 476.1 611.1 C 472.0 615.2 472.0 621.8 476.1 625.9 C 480.2 630.0 486.8 630.0 490.9 625.9 "></path></clipPath><g clip-path="url(#clip-4)"><path d="M 490.9 625.9 C 495.0 621.8 495.0 615.2 490.9 611.1 C 486.8 607.0 480.2 607.0 476.1 611.1 C 472.0 615.2 472.0 621.8 476.1 625.9 C 480.2 630.0 486.8 630.0 490.9 625.9 " fill="url(#gradSh1.0)"></path></g></g><image xlink:href="FDAD001B8001E9AFACC89DAFD5669301.png" width="88.00" height="40.00" transform="matrix(0.24, 0.00, -0.00, -0.24, 473.0, 608.0)"></image><image xlink:href="../../77C9C24E-FC59-4B40-9D3E-1F66F0AB9127/assets/C269F9B7996ED47B03047EED083B8A2A.png" width="41.00" height="41.00" transform="matrix(1.00, 0.00, -0.00, -1.00, 538.0, 602.4)" opacity="0.75"></image><g><clipPath id="clip-5"><path d="M 570.9 585.9 C 575.0 581.8 575.0 575.2 570.9 571.1 C 566.8 567.0 560.2 567.0 556.1 571.1 C 552.0 575.2 552.0 581.8 556.1 585.9 C 560.2 590.0 566.8 590.0 570.9 585.9 "></path></clipPath><g clip-path="url(#clip-5)"><path d="M 570.9 585.9 C 575.0 581.8 575.0 575.2 570.9 571.1 C 566.8 567.0 560.2 567.0 556.1 571.1 C 552.0 575.2 552.0 581.8 556.1 585.9 C 560.2 590.0 566.8 590.0 570.9 585.9 " fill="url(#gradSh1.1)"></path></g></g><image xlink:href="../../77C9C24E-FC59-4B40-9D3E-1F66F0AB9127/assets/FDAD001B8001E9AFACC89DAFD5669301.png" width="88.00" height="40.00" transform="matrix(0.24, 0.00, -0.00, -0.24, 553.0, 568.0)"></image><image xlink:href="../../77C9C24E-FC59-4B40-9D3E-1F66F0AB9127/assets/C269F9B7996ED47B03047EED083B8A2A.png" width="41.00" height="41.00" transform="matrix(1.00, 0.00, -0.00, -1.00, 536.0, 563.4)" opacity="0.75"></image><g><clipPath id="clip-6"><path d="M 568.9 546.9 C 573.0 542.8 573.0 536.2 568.9 532.1 C 564.8 528.0 558.2 528.0 554.1 532.1 C 550.0 536.2 550.0 542.8 554.1 546.9 C 558.2 551.0 564.8 551.0 568.9 546.9 "></path></clipPath><g clip-path="url(#clip-6)"><path d="M 568.9 546.9 C 573.0 542.8 573.0 536.2 568.9 532.1 C 564.8 528.0 558.2 528.0 554.1 532.1 C 550.0 536.2 550.0 542.8 554.1 546.9 C 558.2 551.0 564.8 551.0 568.9 546.9 " fill="url(#gradSh1.2)"></path></g></g><image xlink:href="../../77C9C24E-FC59-4B40-9D3E-1F66F0AB9127/assets/FDAD001B8001E9AFACC89DAFD5669301.png" width="88.00" height="40.00" transform="matrix(0.24, 0.00, -0.00, -0.24, 551.0, 529.0)"></image><path d="M 505.2 148.5 L 727.9 148.5 L 727.9 108.5 L 505.2 108.5 Z M 505.2 148.5 " fill="#FFFFFF"></path><g><clipPath id="clip-7"><path d="M 501.2 104.4 L 732.0 104.4 L 732.0 152.6 L 501.2 152.6 Z M 501.2 104.4 "></path></clipPath><g clip-path="url(#clip-7)"><text xml:space="preserve" font-family="GillSans-SemiBoldItalic" font-style="italic" font-weight="bold" font-size="27.0" fill="#000000" transform="matrix(1.00, 0.00, -0.00, -1.00, 528.0, 119.0)">i</text><text xml:space="preserve" font-family="GillSans-SemiBoldItalic" font-style="italic" font-weight="bold" font-size="27.0" fill="#000000" transform="matrix(1.00, 0.00, -0.00, -1.00, 534.2, 119.0)">n</text><text xml:space="preserve" font-family="GillSans-SemiBoldItalic" font-style="italic" font-weight="bold" font-size="27.0" fill="#000000" transform="matrix(1.00, 0.00, -0.00, -1.00, 547.9, 119.0)"> </text><text xml:space="preserve" font-family="GillSans-SemiBoldItalic" font-style="italic" font-weight="bold" font-size="27.0" fill="#000000" transform="matrix(1.00, 0.00, -0.00, -1.00, 555.4, 119.0)">s</text><text xml:space="preserve" font-family="GillSans-SemiBoldItalic" font-style="italic" font-weight="bold" font-size="27.0" fill="#000000" transform="matrix(1.00, 0.00, -0.00, -1.00, 565.3, 119.0)">i</text><text xml:space="preserve" font-family="GillSans-SemiBoldItalic" font-style="italic" font-weight="bold" font-size="27.0" fill="#000000" transform="matrix(1.00, 0.00, -0.00, -1.00, 571.5, 119.0)">l</text><text xml:space="preserve" font-family="GillSans-SemiBoldItalic" font-style="italic" font-weight="bold" font-size="27.0" fill="#000000" transform="matrix(1.00, 0.00, -0.00, -1.00, 577.7, 119.0)">i</text><text xml:space="preserve" font-family="GillSans-SemiBoldItalic" font-style="italic" font-weight="bold" font-size="27.0" fill="#000000" transform="matrix(1.00, 0.00, -0.00, -1.00, 583.9, 119.0)">c</text><text xml:space="preserve" font-family="GillSans-SemiBoldItalic" font-style="italic" font-weight="bold" font-size="27.0" fill="#000000" transform="matrix(1.00, 0.00, -0.00, -1.00, 595.5, 119.0)">o</text><text xml:space="preserve" font-family="GillSans-SemiBold" font-weight="bold" font-size="27.0" fill="#000000" transform="matrix(1.00, 0.00, -0.00, -1.00, 608.9, 119.0)"> </text><text xml:space="preserve" font-family="GillSans-SemiBold" font-weight="bold" font-size="27.0" fill="#000000" transform="matrix(1.00, 0.00, -0.00, -1.00, 616.4, 119.0)">a</text><text xml:space="preserve" font-family="GillSans-SemiBold" font-weight="bold" font-size="27.0" fill="#000000" transform="matrix(1.00, 0.00, -0.00, -1.00, 629.4, 119.0)">n</text><text xml:space="preserve" font-family="GillSans-SemiBold" font-weight="bold" font-size="27.0" fill="#000000" transform="matrix(1.00, 0.00, -0.00, -1.00, 644.0, 119.0)">a</text><text xml:space="preserve" font-family="GillSans-SemiBold" font-weight="bold" font-size="27.0" fill="#000000" transform="matrix(1.00, 0.00, -0.00, -1.00, 657.0, 119.0)">l</text><text xml:space="preserve" font-family="GillSans-SemiBold" font-weight="bold" font-size="27.0" fill="#000000" transform="matrix(1.00, 0.00, -0.00, -1.00, 663.7, 119.0)">y</text><text xml:space="preserve" font-family="GillSans-SemiBold" font-weight="bold" font-size="27.0" fill="#000000" transform="matrix(1.00, 0.00, -0.00, -1.00, 676.6, 119.0)">s</text><text xml:space="preserve" font-family="GillSans-SemiBold" font-weight="bold" font-size="27.0" fill="#000000" transform="matrix(1.00, 0.00, -0.00, -1.00, 687.5, 119.0)">i</text><text xml:space="preserve" font-family="GillSans-SemiBold" font-weight="bold" font-size="27.0" fill="#000000" transform="matrix(1.00, 0.00, -0.00, -1.00, 694.2, 119.0)">s</text></g></g><image xlink:href="../../632996A8-4462-4E17-A896-B4D282946B5A/assets/2502C76644254F55C5F5498D0C5DB16E.png" width="115.00" height="61.00" transform="matrix(1.22, 0.00, -0.00, -1.21, 45.0, 730.0)"></image></g></svg>