<?xml version="1.0" encoding="UTF-8" standalone="no"?><svg xmlns="http://www.w3.org/2000/svg" xmlns:xlink="http://www.w3.org/1999/xlink" clip-rule="evenodd" stroke-miterlimit="4.00" viewBox="0 0 1024 768"><desc>SVG generated by Keynote</desc><defs></defs><g transform="matrix(1.00, 0.00, -0.00, -1.00, 0.0, 768.0)"><path d="M 0.0 768.0 L 1024.0 768.0 L 1024.0 0.0 L 0.0 0.0 Z M 0.0 768.0 " fill="#FEFFFF"></path><text xml:space="preserve" font-family="CenturyGothic" font-size="42.0" fill="#000000" transform="matrix(1.00, 0.00, -0.00, -1.00, 12.0, 675.0)">E</text><text xml:space="preserve" font-family="CenturyGothic" font-size="42.0" fill="#000000" transform="matrix(1.00, 0.00, -0.00, -1.00, 34.5, 675.0)">n</text><text xml:space="preserve" font-family="CenturyGothic" font-size="42.0" fill="#000000" transform="matrix(1.00, 0.00, -0.00, -1.00, 60.1, 675.0)">v</text><text xml:space="preserve" font-family="CenturyGothic" font-size="42.0" fill="#000000" transform="matrix(1.00, 0.00, -0.00, -1.00, 83.4, 675.0)">i</text><text xml:space="preserve" font-family="CenturyGothic" font-size="42.0" fill="#000000" transform="matrix(1.00, 0.00, -0.00, -1.00, 91.8, 675.0)">r</text><text xml:space="preserve" font-family="CenturyGothic" font-size="42.0" fill="#000000" transform="matrix(1.00, 0.00, -0.00, -1.00, 104.3, 675.0)">o</text><text xml:space="preserve" font-family="CenturyGothic" font-size="42.0" fill="#000000" transform="matrix(1.00, 0.00, -0.00, -1.00, 131.8, 675.0)">n</text><text xml:space="preserve" font-family="CenturyGothic" font-size="42.0" fill="#000000" transform="matrix(1.00, 0.00, -0.00, -1.00, 157.4, 675.0)">m</text><text xml:space="preserve" font-family="CenturyGothic" font-size="42.0" fill="#000000" transform="matrix(1.00, 0.00, -0.00, -1.00, 196.8, 675.0)">e</text><text xml:space="preserve" font-family="CenturyGothic" font-size="42.0" fill="#000000" transform="matrix(1.00, 0.00, -0.00, -1.00, 224.1, 675.0)">n</text><text xml:space="preserve" font-family="CenturyGothic" font-size="42.0" fill="#000000" transform="matrix(1.00, 0.00, -0.00, -1.00, 249.7, 675.0)">t</text><text xml:space="preserve" font-family="CenturyGothic" font-size="42.0" fill="#000000" transform="matrix(1.00, 0.00, -0.00, -1.00, 263.9, 675.0)"> </text><text xml:space="preserve" font-family="CenturyGothic" font-size="42.0" fill="#000000" transform="matrix(1.00, 0.00, -0.00, -1.00, 275.5, 675.0)">a</text><text xml:space="preserve" font-family="CenturyGothic" font-size="42.0" fill="#000000" transform="matrix(1.00, 0.00, -0.00, -1.00, 304.2, 675.0)">n</text><text xml:space="preserve" font-family="CenturyGothic" font-size="42.0" fill="#000000" transform="matrix(1.00, 0.00, -0.00, -1.00, 329.9, 675.0)">d</text><text xml:space="preserve" font-family="CenturyGothic" font-size="42.0" fill="#000000" transform="matrix(1.00, 0.00, -0.00, -1.00, 358.6, 675.0)"> </text><text xml:space="preserve" font-family="CenturyGothic" font-size="42.0" fill="#000000" transform="matrix(1.00, 0.00, -0.00, -1.00, 370.3, 675.0)">g</text><text xml:space="preserve" font-family="CenturyGothic" font-size="42.0" fill="#000000" transform="matrix(1.00, 0.00, -0.00, -1.00, 398.5, 675.0)">e</text><text xml:space="preserve" font-family="CenturyGothic" font-size="42.0" fill="#000000" transform="matrix(1.00, 0.00, -0.00, -1.00, 425.8, 675.0)">n</text><text xml:space="preserve" font-family="CenturyGothic" font-size="42.0" fill="#000000" transform="matrix(1.00, 0.00, -0.00, -1.00, 451.4, 675.0)">e</text><text xml:space="preserve" font-family="CenturyGothic" font-size="42.0" fill="#000000" transform="matrix(1.00, 0.00, -0.00, -1.00, 478.7, 675.0)"> </text><text xml:space="preserve" font-family="CenturyGothic" font-size="42.0" fill="#000000" transform="matrix(1.00, 0.00, -0.00, -1.00, 490.3, 675.0)">e</text><text xml:space="preserve" font-family="CenturyGothic" font-size="42.0" fill="#000000" transform="matrix(1.00, 0.00, -0.00, -1.00, 517.6, 675.0)">x</text><text xml:space="preserve" font-family="CenturyGothic" font-size="42.0" fill="#000000" transform="matrix(1.00, 0.00, -0.00, -1.00, 537.8, 675.0)">p</text><text xml:space="preserve" font-family="CenturyGothic" font-size="42.0" fill="#000000" transform="matrix(1.00, 0.00, -0.00, -1.00, 566.4, 675.0)">r</text><text xml:space="preserve" font-family="CenturyGothic" font-size="42.0" fill="#000000" transform="matrix(1.00, 0.00, -0.00, -1.00, 578.9, 675.0)">e</text><text xml:space="preserve" font-family="CenturyGothic" font-size="42.0" fill="#000000" transform="matrix(1.00, 0.00, -0.00, -1.00, 606.2, 675.0)">s</text><text xml:space="preserve" font-family="CenturyGothic" font-size="42.0" fill="#000000" transform="matrix(1.00, 0.00, -0.00, -1.00, 622.5, 675.0)">s</text><text xml:space="preserve" font-family="CenturyGothic" font-size="42.0" fill="#000000" transform="matrix(1.00, 0.00, -0.00, -1.00, 638.8, 675.0)">i</text><text xml:space="preserve" font-family="CenturyGothic" font-size="42.0" fill="#000000" transform="matrix(1.00, 0.00, -0.00, -1.00, 647.2, 675.0)">o</text><text xml:space="preserve" font-family="CenturyGothic" font-size="42.0" fill="#000000" transform="matrix(1.00, 0.00, -0.00, -1.00, 674.7, 675.0)">n</text><text xml:space="preserve" font-family="CenturyGothic" font-size="42.0" fill="#000000" transform="matrix(1.00, 0.00, -0.00, -1.00, 700.3, 675.0)"> </text><image xlink:href="C3FB63460CE413325F93D3DF145C5080.png" width="650.00" height="333.00" transform="matrix(1.15, 0.00, -0.00, -1.15, 130.0, 454.0)"></image><image xlink:href="7789E5D50338B2E9489ACA79B26848C9.png" width="206.00" height="176.00" transform="matrix(1.00, 0.00, -0.00, -1.00, 47.0, 620.0)"></image><g opacity="0.65"><g><clipPath id="clip-116"><path d="M 672.0 208.0 L 1024.0 208.0 L 1024.0 525.0 L 672.0 525.0 Z M 672.0 208.0 "></path></clipPath><g clip-path="url(#clip-116)"><path d="M 673.0 523.3 L 1038.0 523.3 L 1038.0 209.3 L 673.0 209.3 Z M 673.0 523.3 " fill="#FEFFFF"></path></g></g></g><text xml:space="preserve" font-family="HelveticaNeue-LightItalic" font-style="italic" font-size="42.0" fill="#000000" transform="matrix(1.00, 0.00, -0.00, -1.00, 414.0, 504.0)">s</text><text xml:space="preserve" font-family="HelveticaNeue-LightItalic" font-style="italic" font-size="42.0" fill="#000000" transform="matrix(1.00, 0.00, -0.00, -1.00, 434.2, 504.0)">t</text><text xml:space="preserve" font-family="HelveticaNeue-LightItalic" font-style="italic" font-size="42.0" fill="#000000" transform="matrix(1.00, 0.00, -0.00, -1.00, 446.6, 504.0)">o</text><text xml:space="preserve" font-family="HelveticaNeue-LightItalic" font-style="italic" font-size="42.0" fill="#000000" transform="matrix(1.00, 0.00, -0.00, -1.00, 470.0, 504.0)">c</text><text xml:space="preserve" font-family="HelveticaNeue-LightItalic" font-style="italic" font-size="42.0" fill="#000000" transform="matrix(1.00, 0.00, -0.00, -1.00, 491.8, 504.0)">h</text><text xml:space="preserve" font-family="HelveticaNeue-LightItalic" font-style="italic" font-size="42.0" fill="#000000" transform="matrix(1.00, 0.00, -0.00, -1.00, 514.3, 504.0)">a</text><text xml:space="preserve" font-family="HelveticaNeue-LightItalic" font-style="italic" font-size="42.0" fill="#000000" transform="matrix(1.00, 0.00, -0.00, -1.00, 536.1, 504.0)">s</text><text xml:space="preserve" font-family="HelveticaNeue-LightItalic" font-style="italic" font-size="42.0" fill="#000000" transform="matrix(1.00, 0.00, -0.00, -1.00, 556.3, 504.0)">t</text><text xml:space="preserve" font-family="HelveticaNeue-LightItalic" font-style="italic" font-size="42.0" fill="#000000" transform="matrix(1.00, 0.00, -0.00, -1.00, 568.8, 504.0)">i</text><text xml:space="preserve" font-family="HelveticaNeue-LightItalic" font-style="italic" font-size="42.0" fill="#000000" transform="matrix(1.00, 0.00, -0.00, -1.00, 576.5, 504.0)">c</text><text xml:space="preserve" font-family="HelveticaNeue-LightItalic" font-style="italic" font-size="42.0" fill="#000000" transform="matrix(1.00, 0.00, -0.00, -1.00, 598.3, 504.0)"> </text><text xml:space="preserve" font-family="HelveticaNeue-LightItalic" font-style="italic" font-size="42.0" fill="#000000" transform="matrix(1.00, 0.00, -0.00, -1.00, 610.0, 504.0)">o</text><text xml:space="preserve" font-family="HelveticaNeue-LightItalic" font-style="italic" font-size="42.0" fill="#000000" transform="matrix(1.00, 0.00, -0.00, -1.00, 633.4, 504.0)">r</text><text xml:space="preserve" font-family="HelveticaNeue-LightItalic" font-style="italic" font-size="42.0" fill="#000000" transform="matrix(1.00, 0.00, -0.00, -1.00, 646.6, 504.0)"> </text><text xml:space="preserve" font-family="HelveticaNeue-LightItalic" font-style="italic" font-size="42.0" fill="#000000" transform="matrix(1.00, 0.00, -0.00, -1.00, 658.3, 504.0)">t</text><text xml:space="preserve" font-family="HelveticaNeue-LightItalic" font-style="italic" font-size="42.0" fill="#000000" transform="matrix(1.00, 0.00, -0.00, -1.00, 670.7, 504.0)">a</text><text xml:space="preserve" font-family="HelveticaNeue-LightItalic" font-style="italic" font-size="42.0" fill="#000000" transform="matrix(1.00, 0.00, -0.00, -1.00, 692.5, 504.0)">r</text><text xml:space="preserve" font-family="HelveticaNeue-LightItalic" font-style="italic" font-size="42.0" fill="#000000" transform="matrix(1.00, 0.00, -0.00, -1.00, 705.7, 504.0)">g</text><text xml:space="preserve" font-family="HelveticaNeue-LightItalic" font-style="italic" font-size="42.0" fill="#000000" transform="matrix(1.00, 0.00, -0.00, -1.00, 729.1, 504.0)">e</text><text xml:space="preserve" font-family="HelveticaNeue-LightItalic" font-style="italic" font-size="42.0" fill="#000000" transform="matrix(1.00, 0.00, -0.00, -1.00, 750.9, 504.0)">t</text><text xml:space="preserve" font-family="HelveticaNeue-LightItalic" font-style="italic" font-size="42.0" fill="#000000" transform="matrix(1.00, 0.00, -0.00, -1.00, 763.3, 504.0)">e</text><text xml:space="preserve" font-family="HelveticaNeue-LightItalic" font-style="italic" font-size="42.0" fill="#000000" transform="matrix(1.00, 0.00, -0.00, -1.00, 785.1, 504.0)">d</text><text xml:space="preserve" font-family="HelveticaNeue-LightItalic" font-style="italic" font-size="42.0" fill="#000000" transform="matrix(1.00, 0.00, -0.00, -1.00, 809.2, 504.0)">?</text></g></svg>