<?xml version="1.0" encoding="UTF-8" standalone="no"?><svg xmlns="http://www.w3.org/2000/svg" xmlns:xlink="http://www.w3.org/1999/xlink" clip-rule="evenodd" stroke-miterlimit="4.00" viewBox="0 0 1024 768"><desc>SVG generated by Keynote</desc><defs></defs><g transform="matrix(1.00, 0.00, -0.00, -1.00, 0.0, 768.0)"><path d="M 0.0 768.0 L 1024.0 768.0 L 1024.0 0.0 L 0.0 0.0 Z M 0.0 768.0 " fill="#FEFFFF"></path><g><clipPath id="clip-277"><path d="M -4.0 681.0 L 929.0 681.0 L 929.0 -87.0 L -4.0 -87.0 Z M -4.0 681.3 "></path></clipPath><g clip-path="url(#clip-277)"><image xlink:href="../../8FC42389-028D-4920-950B-0B81C8400334/assets/7F6BAE85DAD1002EC77726D82D75A9AE.png" width="657.00" height="540.00" transform="matrix(1.42, 0.00, -0.00, -1.42, -4.0, 681.0)"></image></g></g><image xlink:href="../../BFA97C68-54F7-4457-AF49-25A3695243B2/assets/7789E5D50338B2E9489ACA79B26848C9.png" width="206.00" height="176.00" transform="matrix(1.00, 0.00, -0.00, -1.00, 806.0, 765.0)"></image><path d="M 3.6 533.7 L 197.4 533.7 L 197.4 345.7 L 3.6 345.7 Z M 3.6 533.7 " fill="#A6AAA8"></path><g><clipPath id="clip-278"><path d="M 1.3 343.4 L 382.6 343.4 L 382.6 535.9 L 1.3 535.9 Z M 1.3 343.4 "></path></clipPath><g clip-path="url(#clip-278)"><text xml:space="preserve" font-family="Helvetica-Light" font-size="25.0" fill="#000000" transform="matrix(1.00, 0.00, -0.00, -1.00, 8.0, 505.0)">R</text><text xml:space="preserve" font-family="Helvetica-Light" font-size="25.0" fill="#000000" transform="matrix(1.00, 0.00, -0.00, -1.00, 24.7, 505.0)">N</text><text xml:space="preserve" font-family="Helvetica-Light" font-size="25.0" fill="#000000" transform="matrix(1.00, 0.00, -0.00, -1.00, 42.7, 505.0)">A</text><text xml:space="preserve" font-family="Helvetica-Light" font-size="25.0" fill="#000000" transform="matrix(1.00, 0.00, -0.00, -1.00, 59.4, 505.0)">-</text><text xml:space="preserve" font-family="Helvetica-Light" font-size="25.0" fill="#000000" transform="matrix(1.00, 0.00, -0.00, -1.00, 67.7, 505.0)">s</text><text xml:space="preserve" font-family="Helvetica-Light" font-size="25.0" fill="#000000" transform="matrix(1.00, 0.00, -0.00, -1.00, 80.2, 505.0)">e</text><text xml:space="preserve" font-family="Helvetica-Light" font-size="25.0" fill="#000000" transform="matrix(1.00, 0.00, -0.00, -1.00, 94.1, 505.0)">q</text><text xml:space="preserve" font-family="Helvetica-Light" font-size="25.0" fill="#000000" transform="matrix(1.00, 0.00, -0.00, -1.00, 109.4, 505.0)"> </text><text xml:space="preserve" font-family="Helvetica-Light" font-size="25.0" fill="#000000" transform="matrix(1.00, 0.00, -0.00, -1.00, 116.4, 505.0)">2</text><text xml:space="preserve" font-family="Helvetica-Light" font-size="25.0" fill="#000000" transform="matrix(1.00, 0.00, -0.00, -1.00, 130.3, 505.0)"> </text><text xml:space="preserve" font-family="Helvetica-Light" font-size="25.0" fill="#000000" transform="matrix(1.00, 0.00, -0.00, -1.00, 137.2, 505.0)">p</text><text xml:space="preserve" font-family="Helvetica-Light" font-size="25.0" fill="#000000" transform="matrix(1.00, 0.00, -0.00, -1.00, 152.5, 505.0)">r</text><text xml:space="preserve" font-family="Helvetica-Light" font-size="25.0" fill="#000000" transform="matrix(1.00, 0.00, -0.00, -1.00, 160.4, 505.0)">e</text><text xml:space="preserve" font-family="Helvetica-Light" font-size="25.0" fill="#000000" transform="matrix(1.00, 0.00, -0.00, -1.00, 174.3, 505.0)"> </text><text xml:space="preserve" font-family="Helvetica-Light" font-size="25.0" fill="#000000" transform="matrix(1.00, 0.00, -0.00, -1.00, 8.0, 475.0)">R</text><text xml:space="preserve" font-family="Helvetica-Light" font-size="25.0" fill="#000000" transform="matrix(1.00, 0.00, -0.00, -1.00, 24.7, 475.0)">N</text><text xml:space="preserve" font-family="Helvetica-Light" font-size="25.0" fill="#000000" transform="matrix(1.00, 0.00, -0.00, -1.00, 42.7, 475.0)">A</text><text xml:space="preserve" font-family="Helvetica-Light" font-size="25.0" fill="#000000" transform="matrix(1.00, 0.00, -0.00, -1.00, 59.4, 475.0)">-</text><text xml:space="preserve" font-family="Helvetica-Light" font-size="25.0" fill="#000000" transform="matrix(1.00, 0.00, -0.00, -1.00, 67.7, 475.0)">s</text><text xml:space="preserve" font-family="Helvetica-Light" font-size="25.0" fill="#000000" transform="matrix(1.00, 0.00, -0.00, -1.00, 80.2, 475.0)">e</text><text xml:space="preserve" font-family="Helvetica-Light" font-size="25.0" fill="#000000" transform="matrix(1.00, 0.00, -0.00, -1.00, 94.1, 475.0)">q</text><text xml:space="preserve" font-family="Helvetica-Light" font-size="25.0" fill="#000000" transform="matrix(1.00, 0.00, -0.00, -1.00, 109.4, 475.0)"> </text><text xml:space="preserve" font-family="Helvetica-Light" font-size="25.0" fill="#000000" transform="matrix(1.00, 0.00, -0.00, -1.00, 116.4, 475.0)">4</text><text xml:space="preserve" font-family="Helvetica-Light" font-size="25.0" fill="#000000" transform="matrix(1.00, 0.00, -0.00, -1.00, 130.3, 475.0)"> </text><text xml:space="preserve" font-family="Helvetica-Light" font-size="25.0" fill="#000000" transform="matrix(1.00, 0.00, -0.00, -1.00, 137.2, 475.0)">p</text><text xml:space="preserve" font-family="Helvetica-Light" font-size="25.0" fill="#000000" transform="matrix(1.00, 0.00, -0.00, -1.00, 152.5, 475.0)">r</text><text xml:space="preserve" font-family="Helvetica-Light" font-size="25.0" fill="#000000" transform="matrix(1.00, 0.00, -0.00, -1.00, 160.4, 475.0)">e</text><text xml:space="preserve" font-family="Helvetica-Light" font-size="25.0" fill="#000000" transform="matrix(1.00, 0.00, -0.00, -1.00, 174.3, 475.0)"> </text><text xml:space="preserve" font-family="Helvetica-Light" font-size="25.0" fill="#000000" transform="matrix(1.00, 0.00, -0.00, -1.00, 8.0, 445.0)">R</text><text xml:space="preserve" font-family="Helvetica-Light" font-size="25.0" fill="#000000" transform="matrix(1.00, 0.00, -0.00, -1.00, 24.7, 445.0)">N</text><text xml:space="preserve" font-family="Helvetica-Light" font-size="25.0" fill="#000000" transform="matrix(1.00, 0.00, -0.00, -1.00, 42.7, 445.0)">A</text><text xml:space="preserve" font-family="Helvetica-Light" font-size="25.0" fill="#000000" transform="matrix(1.00, 0.00, -0.00, -1.00, 59.4, 445.0)">-</text><text xml:space="preserve" font-family="Helvetica-Light" font-size="25.0" fill="#000000" transform="matrix(1.00, 0.00, -0.00, -1.00, 67.7, 445.0)">s</text><text xml:space="preserve" font-family="Helvetica-Light" font-size="25.0" fill="#000000" transform="matrix(1.00, 0.00, -0.00, -1.00, 80.2, 445.0)">e</text><text xml:space="preserve" font-family="Helvetica-Light" font-size="25.0" fill="#000000" transform="matrix(1.00, 0.00, -0.00, -1.00, 94.1, 445.0)">q</text><text xml:space="preserve" font-family="Helvetica-Light" font-size="25.0" fill="#000000" transform="matrix(1.00, 0.00, -0.00, -1.00, 109.4, 445.0)"> </text><text xml:space="preserve" font-family="Helvetica-Light" font-size="25.0" fill="#000000" transform="matrix(1.00, 0.00, -0.00, -1.00, 116.4, 445.0)">6</text><text xml:space="preserve" font-family="Helvetica-Light" font-size="25.0" fill="#000000" transform="matrix(1.00, 0.00, -0.00, -1.00, 130.3, 445.0)"> </text><text xml:space="preserve" font-family="Helvetica-Light" font-size="25.0" fill="#000000" transform="matrix(1.00, 0.00, -0.00, -1.00, 137.2, 445.0)">p</text><text xml:space="preserve" font-family="Helvetica-Light" font-size="25.0" fill="#000000" transform="matrix(1.00, 0.00, -0.00, -1.00, 152.5, 445.0)">r</text><text xml:space="preserve" font-family="Helvetica-Light" font-size="25.0" fill="#000000" transform="matrix(1.00, 0.00, -0.00, -1.00, 160.4, 445.0)">e</text><text xml:space="preserve" font-family="Helvetica-Light" font-size="25.0" fill="#000000" transform="matrix(1.00, 0.00, -0.00, -1.00, 174.3, 445.0)"> </text><text xml:space="preserve" font-family="Helvetica-Light" font-size="25.0" fill="#000000" transform="matrix(1.00, 0.00, -0.00, -1.00, 8.0, 415.0)">R</text><text xml:space="preserve" font-family="Helvetica-Light" font-size="25.0" fill="#000000" transform="matrix(1.00, 0.00, -0.00, -1.00, 24.7, 415.0)">N</text><text xml:space="preserve" font-family="Helvetica-Light" font-size="25.0" fill="#000000" transform="matrix(1.00, 0.00, -0.00, -1.00, 42.7, 415.0)">A</text><text xml:space="preserve" font-family="Helvetica-Light" font-size="25.0" fill="#000000" transform="matrix(1.00, 0.00, -0.00, -1.00, 59.4, 415.0)">-</text><text xml:space="preserve" font-family="Helvetica-Light" font-size="25.0" fill="#000000" transform="matrix(1.00, 0.00, -0.00, -1.00, 67.7, 415.0)">s</text><text xml:space="preserve" font-family="Helvetica-Light" font-size="25.0" fill="#000000" transform="matrix(1.00, 0.00, -0.00, -1.00, 80.2, 415.0)">e</text><text xml:space="preserve" font-family="Helvetica-Light" font-size="25.0" fill="#000000" transform="matrix(1.00, 0.00, -0.00, -1.00, 94.1, 415.0)">q</text><text xml:space="preserve" font-family="Helvetica-Light" font-size="25.0" fill="#000000" transform="matrix(1.00, 0.00, -0.00, -1.00, 109.4, 415.0)"> </text><text xml:space="preserve" font-family="Helvetica-Light" font-size="25.0" fill="#000000" transform="matrix(1.00, 0.00, -0.00, -1.00, 116.4, 415.0)">2</text><text xml:space="preserve" font-family="Helvetica-Light" font-size="25.0" fill="#000000" transform="matrix(1.00, 0.00, -0.00, -1.00, 130.3, 415.0)"> </text><text xml:space="preserve" font-family="Helvetica-Light" font-size="25.0" fill="#000000" transform="matrix(1.00, 0.00, -0.00, -1.00, 137.2, 415.0)">p</text><text xml:space="preserve" font-family="Helvetica-Light" font-size="25.0" fill="#000000" transform="matrix(1.00, 0.00, -0.00, -1.00, 152.5, 415.0)">o</text><text xml:space="preserve" font-family="Helvetica-Light" font-size="25.0" fill="#000000" transform="matrix(1.00, 0.00, -0.00, -1.00, 166.4, 415.0)">s</text><text xml:space="preserve" font-family="Helvetica-Light" font-size="25.0" fill="#000000" transform="matrix(1.00, 0.00, -0.00, -1.00, 178.9, 415.0)">t</text><text xml:space="preserve" font-family="Helvetica-Light" font-size="25.0" fill="#000000" transform="matrix(1.00, 0.00, -0.00, -1.00, 185.8, 415.0)"> </text><text xml:space="preserve" font-family="Helvetica-Light" font-size="25.0" fill="#000000" transform="matrix(1.00, 0.00, -0.00, -1.00, 8.0, 385.0)">R</text><text xml:space="preserve" font-family="Helvetica-Light" font-size="25.0" fill="#000000" transform="matrix(1.00, 0.00, -0.00, -1.00, 24.7, 385.0)">N</text><text xml:space="preserve" font-family="Helvetica-Light" font-size="25.0" fill="#000000" transform="matrix(1.00, 0.00, -0.00, -1.00, 42.7, 385.0)">A</text><text xml:space="preserve" font-family="Helvetica-Light" font-size="25.0" fill="#000000" transform="matrix(1.00, 0.00, -0.00, -1.00, 59.4, 385.0)">-</text><text xml:space="preserve" font-family="Helvetica-Light" font-size="25.0" fill="#000000" transform="matrix(1.00, 0.00, -0.00, -1.00, 67.7, 385.0)">s</text><text xml:space="preserve" font-family="Helvetica-Light" font-size="25.0" fill="#000000" transform="matrix(1.00, 0.00, -0.00, -1.00, 80.2, 385.0)">e</text><text xml:space="preserve" font-family="Helvetica-Light" font-size="25.0" fill="#000000" transform="matrix(1.00, 0.00, -0.00, -1.00, 94.1, 385.0)">q</text><text xml:space="preserve" font-family="Helvetica-Light" font-size="25.0" fill="#000000" transform="matrix(1.00, 0.00, -0.00, -1.00, 109.4, 385.0)"> </text><text xml:space="preserve" font-family="Helvetica-Light" font-size="25.0" fill="#000000" transform="matrix(1.00, 0.00, -0.00, -1.00, 116.4, 385.0)">4</text><text xml:space="preserve" font-family="Helvetica-Light" font-size="25.0" fill="#000000" transform="matrix(1.00, 0.00, -0.00, -1.00, 130.3, 385.0)"> </text><text xml:space="preserve" font-family="Helvetica-Light" font-size="25.0" fill="#000000" transform="matrix(1.00, 0.00, -0.00, -1.00, 137.2, 385.0)">p</text><text xml:space="preserve" font-family="Helvetica-Light" font-size="25.0" fill="#000000" transform="matrix(1.00, 0.00, -0.00, -1.00, 152.5, 385.0)">o</text><text xml:space="preserve" font-family="Helvetica-Light" font-size="25.0" fill="#000000" transform="matrix(1.00, 0.00, -0.00, -1.00, 166.4, 385.0)">s</text><text xml:space="preserve" font-family="Helvetica-Light" font-size="25.0" fill="#000000" transform="matrix(1.00, 0.00, -0.00, -1.00, 178.9, 385.0)">t</text><text xml:space="preserve" font-family="Helvetica-Light" font-size="25.0" fill="#000000" transform="matrix(1.00, 0.00, -0.00, -1.00, 185.8, 385.0)"> </text><text xml:space="preserve" font-family="Helvetica-Light" font-size="25.0" fill="#000000" transform="matrix(1.00, 0.00, -0.00, -1.00, 8.0, 355.0)">R</text><text xml:space="preserve" font-family="Helvetica-Light" font-size="25.0" fill="#000000" transform="matrix(1.00, 0.00, -0.00, -1.00, 24.7, 355.0)">N</text><text xml:space="preserve" font-family="Helvetica-Light" font-size="25.0" fill="#000000" transform="matrix(1.00, 0.00, -0.00, -1.00, 42.7, 355.0)">A</text><text xml:space="preserve" font-family="Helvetica-Light" font-size="25.0" fill="#000000" transform="matrix(1.00, 0.00, -0.00, -1.00, 59.4, 355.0)">-</text><text xml:space="preserve" font-family="Helvetica-Light" font-size="25.0" fill="#000000" transform="matrix(1.00, 0.00, -0.00, -1.00, 67.7, 355.0)">s</text><text xml:space="preserve" font-family="Helvetica-Light" font-size="25.0" fill="#000000" transform="matrix(1.00, 0.00, -0.00, -1.00, 80.2, 355.0)">e</text><text xml:space="preserve" font-family="Helvetica-Light" font-size="25.0" fill="#000000" transform="matrix(1.00, 0.00, -0.00, -1.00, 94.1, 355.0)">q</text><text xml:space="preserve" font-family="Helvetica-Light" font-size="25.0" fill="#000000" transform="matrix(1.00, 0.00, -0.00, -1.00, 109.4, 355.0)"> </text><text xml:space="preserve" font-family="Helvetica-Light" font-size="25.0" fill="#000000" transform="matrix(1.00, 0.00, -0.00, -1.00, 116.4, 355.0)">6</text><text xml:space="preserve" font-family="Helvetica-Light" font-size="25.0" fill="#000000" transform="matrix(1.00, 0.00, -0.00, -1.00, 130.3, 355.0)"> </text><text xml:space="preserve" font-family="Helvetica-Light" font-size="25.0" fill="#000000" transform="matrix(1.00, 0.00, -0.00, -1.00, 137.2, 355.0)">p</text><text xml:space="preserve" font-family="Helvetica-Light" font-size="25.0" fill="#000000" transform="matrix(1.00, 0.00, -0.00, -1.00, 152.5, 355.0)">o</text><text xml:space="preserve" font-family="Helvetica-Light" font-size="25.0" fill="#000000" transform="matrix(1.00, 0.00, -0.00, -1.00, 166.4, 355.0)">s</text><text xml:space="preserve" font-family="Helvetica-Light" font-size="25.0" fill="#000000" transform="matrix(1.00, 0.00, -0.00, -1.00, 178.9, 355.0)">t</text></g></g><path d="M 2.6 344.6 L 196.4 344.6 L 196.4 168.6 L 2.6 168.6 Z M 2.6 344.6 " fill="#A6AAA8"></path><g><clipPath id="clip-279"><path d="M 0.8 166.9 L 198.1 166.9 L 198.1 346.4 L 0.8 346.4 Z M 0.8 166.9 "></path></clipPath><g clip-path="url(#clip-279)"><text xml:space="preserve" font-family="Helvetica-Light" font-size="23.0" fill="#000000" transform="matrix(1.00, 0.00, -0.00, -1.00, 7.0, 318.0)">m</text><text xml:space="preserve" font-family="Helvetica-Light" font-size="23.0" fill="#000000" transform="matrix(1.00, 0.00, -0.00, -1.00, 26.2, 318.0)">C</text><text xml:space="preserve" font-family="Helvetica-Light" font-size="23.0" fill="#000000" transform="matrix(1.00, 0.00, -0.00, -1.00, 42.8, 318.0)">p</text><text xml:space="preserve" font-family="Helvetica-Light" font-size="23.0" fill="#000000" transform="matrix(1.00, 0.00, -0.00, -1.00, 56.8, 318.0)">G</text><text xml:space="preserve" font-family="Helvetica-Light" font-size="23.0" fill="#000000" transform="matrix(1.00, 0.00, -0.00, -1.00, 74.7, 318.0)"> </text><text xml:space="preserve" font-family="Helvetica-Light" font-size="23.0" fill="#000000" transform="matrix(1.00, 0.00, -0.00, -1.00, 81.1, 318.0)">2</text><text xml:space="preserve" font-family="Helvetica-Light" font-size="23.0" fill="#000000" transform="matrix(1.00, 0.00, -0.00, -1.00, 93.9, 318.0)"> </text><text xml:space="preserve" font-family="Helvetica-Light" font-size="23.0" fill="#000000" transform="matrix(1.00, 0.00, -0.00, -1.00, 7.0, 290.0)">m</text><text xml:space="preserve" font-family="Helvetica-Light" font-size="23.0" fill="#000000" transform="matrix(1.00, 0.00, -0.00, -1.00, 26.2, 290.0)">C</text><text xml:space="preserve" font-family="Helvetica-Light" font-size="23.0" fill="#000000" transform="matrix(1.00, 0.00, -0.00, -1.00, 42.8, 290.0)">p</text><text xml:space="preserve" font-family="Helvetica-Light" font-size="23.0" fill="#000000" transform="matrix(1.00, 0.00, -0.00, -1.00, 56.8, 290.0)">G</text><text xml:space="preserve" font-family="Helvetica-Light" font-size="23.0" fill="#000000" transform="matrix(1.00, 0.00, -0.00, -1.00, 74.7, 290.0)"> </text><text xml:space="preserve" font-family="Helvetica-Light" font-size="23.0" fill="#000000" transform="matrix(1.00, 0.00, -0.00, -1.00, 81.1, 290.0)">4</text><text xml:space="preserve" font-family="Helvetica-Light" font-size="23.0" fill="#000000" transform="matrix(1.00, 0.00, -0.00, -1.00, 93.9, 290.0)"> </text><text xml:space="preserve" font-family="Helvetica-Light" font-size="23.0" fill="#000000" transform="matrix(1.00, 0.00, -0.00, -1.00, 7.0, 262.0)">m</text><text xml:space="preserve" font-family="Helvetica-Light" font-size="23.0" fill="#000000" transform="matrix(1.00, 0.00, -0.00, -1.00, 26.2, 262.0)">C</text><text xml:space="preserve" font-family="Helvetica-Light" font-size="23.0" fill="#000000" transform="matrix(1.00, 0.00, -0.00, -1.00, 42.8, 262.0)">p</text><text xml:space="preserve" font-family="Helvetica-Light" font-size="23.0" fill="#000000" transform="matrix(1.00, 0.00, -0.00, -1.00, 56.8, 262.0)">G</text><text xml:space="preserve" font-family="Helvetica-Light" font-size="23.0" fill="#000000" transform="matrix(1.00, 0.00, -0.00, -1.00, 74.7, 262.0)"> </text><text xml:space="preserve" font-family="Helvetica-Light" font-size="23.0" fill="#000000" transform="matrix(1.00, 0.00, -0.00, -1.00, 81.1, 262.0)">6</text><text xml:space="preserve" font-family="Helvetica-Light" font-size="23.0" fill="#000000" transform="matrix(1.00, 0.00, -0.00, -1.00, 93.9, 262.0)"> </text><text xml:space="preserve" font-family="Helvetica-Light" font-size="23.0" fill="#000000" transform="matrix(1.00, 0.00, -0.00, -1.00, 7.0, 234.0)">m</text><text xml:space="preserve" font-family="Helvetica-Light" font-size="23.0" fill="#000000" transform="matrix(1.00, 0.00, -0.00, -1.00, 26.2, 234.0)">C</text><text xml:space="preserve" font-family="Helvetica-Light" font-size="23.0" fill="#000000" transform="matrix(1.00, 0.00, -0.00, -1.00, 42.8, 234.0)">p</text><text xml:space="preserve" font-family="Helvetica-Light" font-size="23.0" fill="#000000" transform="matrix(1.00, 0.00, -0.00, -1.00, 56.8, 234.0)">G</text><text xml:space="preserve" font-family="Helvetica-Light" font-size="23.0" fill="#000000" transform="matrix(1.00, 0.00, -0.00, -1.00, 74.7, 234.0)"> </text><text xml:space="preserve" font-family="Helvetica-Light" font-size="23.0" fill="#000000" transform="matrix(1.00, 0.00, -0.00, -1.00, 81.1, 234.0)">2</text><text xml:space="preserve" font-family="Helvetica-Light" font-size="23.0" fill="#000000" transform="matrix(1.00, 0.00, -0.00, -1.00, 93.9, 234.0)"> </text><text xml:space="preserve" font-family="Helvetica-Light" font-size="23.0" fill="#000000" transform="matrix(1.00, 0.00, -0.00, -1.00, 7.0, 206.0)">m</text><text xml:space="preserve" font-family="Helvetica-Light" font-size="23.0" fill="#000000" transform="matrix(1.00, 0.00, -0.00, -1.00, 26.2, 206.0)">C</text><text xml:space="preserve" font-family="Helvetica-Light" font-size="23.0" fill="#000000" transform="matrix(1.00, 0.00, -0.00, -1.00, 42.8, 206.0)">p</text><text xml:space="preserve" font-family="Helvetica-Light" font-size="23.0" fill="#000000" transform="matrix(1.00, 0.00, -0.00, -1.00, 56.8, 206.0)">G</text><text xml:space="preserve" font-family="Helvetica-Light" font-size="23.0" fill="#000000" transform="matrix(1.00, 0.00, -0.00, -1.00, 74.7, 206.0)"> </text><text xml:space="preserve" font-family="Helvetica-Light" font-size="23.0" fill="#000000" transform="matrix(1.00, 0.00, -0.00, -1.00, 81.1, 206.0)">4</text><text xml:space="preserve" font-family="Helvetica-Light" font-size="23.0" fill="#000000" transform="matrix(1.00, 0.00, -0.00, -1.00, 93.9, 206.0)"> </text><text xml:space="preserve" font-family="Helvetica-Light" font-size="23.0" fill="#000000" transform="matrix(1.00, 0.00, -0.00, -1.00, 7.0, 178.0)">m</text><text xml:space="preserve" font-family="Helvetica-Light" font-size="23.0" fill="#000000" transform="matrix(1.00, 0.00, -0.00, -1.00, 26.2, 178.0)">C</text><text xml:space="preserve" font-family="Helvetica-Light" font-size="23.0" fill="#000000" transform="matrix(1.00, 0.00, -0.00, -1.00, 42.8, 178.0)">p</text><text xml:space="preserve" font-family="Helvetica-Light" font-size="23.0" fill="#000000" transform="matrix(1.00, 0.00, -0.00, -1.00, 56.8, 178.0)">G</text><text xml:space="preserve" font-family="Helvetica-Light" font-size="23.0" fill="#000000" transform="matrix(1.00, 0.00, -0.00, -1.00, 74.7, 178.0)"> </text><text xml:space="preserve" font-family="Helvetica-Light" font-size="23.0" fill="#000000" transform="matrix(1.00, 0.00, -0.00, -1.00, 81.1, 178.0)">6</text></g></g><text xml:space="preserve" font-family="Helvetica-Light" font-size="36.0" fill="#000000" transform="matrix(1.00, 0.00, -0.00, -1.00, 350.0, 113.0)">P</text><text xml:space="preserve" font-family="Helvetica-Light" font-size="36.0" fill="#000000" transform="matrix(1.00, 0.00, -0.00, -1.00, 372.0, 113.0)">r</text><text xml:space="preserve" font-family="Helvetica-Light" font-size="36.0" fill="#000000" transform="matrix(1.00, 0.00, -0.00, -1.00, 383.3, 113.0)">e</text><text xml:space="preserve" font-family="Helvetica-Light" font-size="36.0" fill="#000000" transform="matrix(1.00, 0.00, -0.00, -1.00, 403.4, 113.0)">d</text><text xml:space="preserve" font-family="Helvetica-Light" font-size="36.0" fill="#000000" transform="matrix(1.00, 0.00, -0.00, -1.00, 425.3, 113.0)">i</text><text xml:space="preserve" font-family="Helvetica-Light" font-size="36.0" fill="#000000" transform="matrix(1.00, 0.00, -0.00, -1.00, 433.3, 113.0)">c</text><text xml:space="preserve" font-family="Helvetica-Light" font-size="36.0" fill="#000000" transform="matrix(1.00, 0.00, -0.00, -1.00, 453.4, 113.0)">t</text><text xml:space="preserve" font-family="Helvetica-Light" font-size="36.0" fill="#000000" transform="matrix(1.00, 0.00, -0.00, -1.00, 463.4, 113.0)">e</text><text xml:space="preserve" font-family="Helvetica-Light" font-size="36.0" fill="#000000" transform="matrix(1.00, 0.00, -0.00, -1.00, 483.4, 113.0)">d</text><text xml:space="preserve" font-family="Helvetica-Light" font-size="36.0" fill="#000000" transform="matrix(1.00, 0.00, -0.00, -1.00, 505.4, 113.0)"> </text><text xml:space="preserve" font-family="Helvetica-Light" font-size="36.0" fill="#000000" transform="matrix(1.00, 0.00, -0.00, -1.00, 515.4, 113.0)">m</text><text xml:space="preserve" font-family="Helvetica-Light" font-size="36.0" fill="#000000" transform="matrix(1.00, 0.00, -0.00, -1.00, 545.4, 113.0)">e</text><text xml:space="preserve" font-family="Helvetica-Light" font-size="36.0" fill="#000000" transform="matrix(1.00, 0.00, -0.00, -1.00, 565.4, 113.0)">t</text><text xml:space="preserve" font-family="Helvetica-Light" font-size="36.0" fill="#000000" transform="matrix(1.00, 0.00, -0.00, -1.00, 575.4, 113.0)">h</text><text xml:space="preserve" font-family="Helvetica-Light" font-size="36.0" fill="#000000" transform="matrix(1.00, 0.00, -0.00, -1.00, 595.4, 113.0)">y</text><text xml:space="preserve" font-family="Helvetica-Light" font-size="36.0" fill="#000000" transform="matrix(1.00, 0.00, -0.00, -1.00, 613.4, 113.0)">l</text><text xml:space="preserve" font-family="Helvetica-Light" font-size="36.0" fill="#000000" transform="matrix(1.00, 0.00, -0.00, -1.00, 621.4, 113.0)">a</text><text xml:space="preserve" font-family="Helvetica-Light" font-size="36.0" fill="#000000" transform="matrix(1.00, 0.00, -0.00, -1.00, 641.4, 113.0)">t</text><text xml:space="preserve" font-family="Helvetica-Light" font-size="36.0" fill="#000000" transform="matrix(1.00, 0.00, -0.00, -1.00, 651.4, 113.0)">i</text><text xml:space="preserve" font-family="Helvetica-Light" font-size="36.0" fill="#000000" transform="matrix(1.00, 0.00, -0.00, -1.00, 659.4, 113.0)">o</text><text xml:space="preserve" font-family="Helvetica-Light" font-size="36.0" fill="#000000" transform="matrix(1.00, 0.00, -0.00, -1.00, 679.4, 113.0)">n</text><text xml:space="preserve" font-family="Helvetica-Light" font-size="36.0" fill="#000000" transform="matrix(1.00, 0.00, -0.00, -1.00, 699.5, 113.0)"> </text><text xml:space="preserve" font-family="Helvetica-Light" font-size="36.0" fill="#000000" transform="matrix(1.00, 0.00, -0.00, -1.00, 709.5, 113.0)">i</text><text xml:space="preserve" font-family="Helvetica-Light" font-size="36.0" fill="#000000" transform="matrix(1.00, 0.00, -0.00, -1.00, 717.5, 113.0)">s</text><text xml:space="preserve" font-family="Helvetica-Light" font-size="36.0" fill="#000000" transform="matrix(1.00, 0.00, -0.00, -1.00, 735.5, 113.0)"> </text><text xml:space="preserve" font-family="Helvetica-Light" font-size="36.0" fill="#000000" transform="matrix(1.00, 0.00, -0.00, -1.00, 745.5, 113.0)">l</text><text xml:space="preserve" font-family="Helvetica-Light" font-size="36.0" fill="#000000" transform="matrix(1.00, 0.00, -0.00, -1.00, 753.5, 113.0)">i</text><text xml:space="preserve" font-family="Helvetica-Light" font-size="36.0" fill="#000000" transform="matrix(1.00, 0.00, -0.00, -1.00, 761.4, 113.0)">m</text><text xml:space="preserve" font-family="Helvetica-Light" font-size="36.0" fill="#000000" transform="matrix(1.00, 0.00, -0.00, -1.00, 791.4, 113.0)">i</text><text xml:space="preserve" font-family="Helvetica-Light" font-size="36.0" fill="#000000" transform="matrix(1.00, 0.00, -0.00, -1.00, 799.4, 113.0)">t</text><text xml:space="preserve" font-family="Helvetica-Light" font-size="36.0" fill="#000000" transform="matrix(1.00, 0.00, -0.00, -1.00, 809.4, 113.0)">e</text><text xml:space="preserve" font-family="Helvetica-Light" font-size="36.0" fill="#000000" transform="matrix(1.00, 0.00, -0.00, -1.00, 829.4, 113.0)">d</text><text xml:space="preserve" font-family="Helvetica-Light" font-size="36.0" fill="#000000" transform="matrix(1.00, 0.00, -0.00, -1.00, 851.4, 113.0)">.</text><text xml:space="preserve" font-family="Helvetica-Light" font-size="23.0" fill="#000000" transform="matrix(1.00, 0.00, -0.00, -1.00, 134.0, 117.0)">e</text><text xml:space="preserve" font-family="Helvetica-Light" font-size="23.0" fill="#000000" transform="matrix(1.00, 0.00, -0.00, -1.00, 146.8, 117.0)">x</text><text xml:space="preserve" font-family="Helvetica-Light" font-size="23.0" fill="#000000" transform="matrix(1.00, 0.00, -0.00, -1.00, 158.3, 117.0)">o</text><text xml:space="preserve" font-family="Helvetica-Light" font-size="23.0" fill="#000000" transform="matrix(1.00, 0.00, -0.00, -1.00, 171.1, 117.0)">n</text><text xml:space="preserve" font-family="Helvetica-Light" font-size="23.0" fill="#000000" transform="matrix(1.00, 0.00, -0.00, -1.00, 183.9, 117.0)"> </text><text xml:space="preserve" font-family="Helvetica-Light" font-size="23.0" fill="#000000" transform="matrix(1.00, 0.00, -0.00, -1.00, 190.3, 117.0)">(</text><text xml:space="preserve" font-family="Helvetica-Light" font-size="23.0" fill="#000000" transform="matrix(1.00, 0.00, -0.00, -1.00, 197.9, 117.0)">x</text><text xml:space="preserve" font-family="Helvetica-Light" font-size="23.0" fill="#000000" transform="matrix(1.00, 0.00, -0.00, -1.00, 209.4, 117.0)">2</text><text xml:space="preserve" font-family="Helvetica-Light" font-size="23.0" fill="#000000" transform="matrix(1.00, 0.00, -0.00, -1.00, 222.2, 117.0)">6</text><text xml:space="preserve" font-family="Helvetica-Light" font-size="23.0" fill="#000000" transform="matrix(1.00, 0.00, -0.00, -1.00, 235.0, 117.0)">)</text><path d="M 0.0 0.0 L 26.4 0.0 L 27.4 0.0 " fill="none" stroke="#000000" stroke-width="2.00" transform="matrix(0.00, -1.00, -1.00, 0.00, 184.0, 100.1)"></path><path d="M 179.2 73.7 L 184.0 64.1 L 188.8 73.7 Z M 179.2 73.7 " fill="#000000"></path><text xml:space="preserve" font-family="Helvetica-Light" font-size="23.0" fill="#000000" transform="matrix(1.00, 0.00, -0.00, -1.00, 538.0, 302.0)">h</text><text xml:space="preserve" font-family="Helvetica-Light" font-size="23.0" fill="#000000" transform="matrix(1.00, 0.00, -0.00, -1.00, 550.8, 302.0)">y</text><text xml:space="preserve" font-family="Helvetica-Light" font-size="23.0" fill="#000000" transform="matrix(1.00, 0.00, -0.00, -1.00, 562.3, 302.0)">p</text><text xml:space="preserve" font-family="Helvetica-Light" font-size="23.0" fill="#000000" transform="matrix(1.00, 0.00, -0.00, -1.00, 576.3, 302.0)">e</text><text xml:space="preserve" font-family="Helvetica-Light" font-size="23.0" fill="#000000" transform="matrix(1.00, 0.00, -0.00, -1.00, 589.1, 302.0)">r</text><text xml:space="preserve" font-family="Helvetica-Light" font-size="23.0" fill="#000000" transform="matrix(1.00, 0.00, -0.00, -1.00, 597.2, 302.0)">m</text><text xml:space="preserve" font-family="Helvetica-Light" font-size="23.0" fill="#000000" transform="matrix(1.00, 0.00, -0.00, -1.00, 616.4, 302.0)">e</text><text xml:space="preserve" font-family="Helvetica-Light" font-size="23.0" fill="#000000" transform="matrix(1.00, 0.00, -0.00, -1.00, 629.1, 302.0)">t</text><text xml:space="preserve" font-family="Helvetica-Light" font-size="23.0" fill="#000000" transform="matrix(1.00, 0.00, -0.00, -1.00, 635.5, 302.0)">h</text><text xml:space="preserve" font-family="Helvetica-Light" font-size="23.0" fill="#000000" transform="matrix(1.00, 0.00, -0.00, -1.00, 648.3, 302.0)">y</text><text xml:space="preserve" font-family="Helvetica-Light" font-size="23.0" fill="#000000" transform="matrix(1.00, 0.00, -0.00, -1.00, 659.8, 302.0)">l</text><text xml:space="preserve" font-family="Helvetica-Light" font-size="23.0" fill="#000000" transform="matrix(1.00, 0.00, -0.00, -1.00, 664.9, 302.0)">a</text><text xml:space="preserve" font-family="Helvetica-Light" font-size="23.0" fill="#000000" transform="matrix(1.00, 0.00, -0.00, -1.00, 677.7, 302.0)">t</text><text xml:space="preserve" font-family="Helvetica-Light" font-size="23.0" fill="#000000" transform="matrix(1.00, 0.00, -0.00, -1.00, 684.1, 302.0)">e</text><text xml:space="preserve" font-family="Helvetica-Light" font-size="23.0" fill="#000000" transform="matrix(1.00, 0.00, -0.00, -1.00, 696.9, 302.0)">d</text><text xml:space="preserve" font-family="Helvetica-Light" font-size="23.0" fill="#000000" transform="matrix(1.00, 0.00, -0.00, -1.00, 711.0, 302.0)"> </text><text xml:space="preserve" font-family="Helvetica-Light" font-size="23.0" fill="#000000" transform="matrix(1.00, 0.00, -0.00, -1.00, 717.4, 302.0)">r</text><text xml:space="preserve" font-family="Helvetica-Light" font-size="23.0" fill="#000000" transform="matrix(1.00, 0.00, -0.00, -1.00, 724.6, 302.0)">e</text><text xml:space="preserve" font-family="Helvetica-Light" font-size="23.0" fill="#000000" transform="matrix(1.00, 0.00, -0.00, -1.00, 737.4, 302.0)">g</text><text xml:space="preserve" font-family="Helvetica-Light" font-size="23.0" fill="#000000" transform="matrix(1.00, 0.00, -0.00, -1.00, 751.4, 302.0)">i</text><text xml:space="preserve" font-family="Helvetica-Light" font-size="23.0" fill="#000000" transform="matrix(1.00, 0.00, -0.00, -1.00, 756.5, 302.0)">o</text><text xml:space="preserve" font-family="Helvetica-Light" font-size="23.0" fill="#000000" transform="matrix(1.00, 0.00, -0.00, -1.00, 769.3, 302.0)">n</text><text xml:space="preserve" font-family="Helvetica-Light" font-size="23.0" fill="#000000" transform="matrix(1.00, 0.00, -0.00, -1.00, 782.1, 302.0)"> </text><text xml:space="preserve" font-family="Helvetica-Light" font-size="23.0" fill="#000000" transform="matrix(1.00, 0.00, -0.00, -1.00, 788.5, 302.0)">(</text><text xml:space="preserve" font-family="Helvetica-Light" font-size="23.0" fill="#000000" transform="matrix(1.00, 0.00, -0.00, -1.00, 796.2, 302.0)">5</text><text xml:space="preserve" font-family="Helvetica-Light" font-size="23.0" fill="#000000" transform="matrix(1.00, 0.00, -0.00, -1.00, 809.0, 302.0)">0</text><text xml:space="preserve" font-family="Helvetica-Light" font-size="23.0" fill="#000000" transform="matrix(1.00, 0.00, -0.00, -1.00, 821.8, 302.0)">b</text><text xml:space="preserve" font-family="Helvetica-Light" font-size="23.0" fill="#000000" transform="matrix(1.00, 0.00, -0.00, -1.00, 835.8, 302.0)">p</text><text xml:space="preserve" font-family="Helvetica-Light" font-size="23.0" fill="#000000" transform="matrix(1.00, 0.00, -0.00, -1.00, 849.9, 302.0)">)</text><path d="M 0.0 0.0 L 38.0 0.0 L 39.0 0.0 " fill="none" stroke="#000000" stroke-width="2.00" transform="matrix(-0.97, 0.23, 0.23, 0.97, 535.0, 305.2)"></path><path d="M 499.1 318.6 L 488.7 316.2 L 496.9 309.3 Z M 499.1 318.6 " fill="#000000"></path><text xml:space="preserve" font-family="Helvetica-Light" font-size="23.0" fill="#000000" transform="matrix(1.00, 0.00, -0.00, -1.00, 635.0, 214.0)">h</text><text xml:space="preserve" font-family="Helvetica-Light" font-size="23.0" fill="#000000" transform="matrix(1.00, 0.00, -0.00, -1.00, 647.8, 214.0)">y</text><text xml:space="preserve" font-family="Helvetica-Light" font-size="23.0" fill="#000000" transform="matrix(1.00, 0.00, -0.00, -1.00, 659.3, 214.0)">p</text><text xml:space="preserve" font-family="Helvetica-Light" font-size="23.0" fill="#000000" transform="matrix(1.00, 0.00, -0.00, -1.00, 673.3, 214.0)">o</text><text xml:space="preserve" font-family="Helvetica-Light" font-size="23.0" fill="#000000" transform="matrix(1.00, 0.00, -0.00, -1.00, 686.1, 214.0)">m</text><text xml:space="preserve" font-family="Helvetica-Light" font-size="23.0" fill="#000000" transform="matrix(1.00, 0.00, -0.00, -1.00, 705.3, 214.0)">e</text><text xml:space="preserve" font-family="Helvetica-Light" font-size="23.0" fill="#000000" transform="matrix(1.00, 0.00, -0.00, -1.00, 718.1, 214.0)">t</text><text xml:space="preserve" font-family="Helvetica-Light" font-size="23.0" fill="#000000" transform="matrix(1.00, 0.00, -0.00, -1.00, 724.5, 214.0)">h</text><text xml:space="preserve" font-family="Helvetica-Light" font-size="23.0" fill="#000000" transform="matrix(1.00, 0.00, -0.00, -1.00, 737.3, 214.0)">y</text><text xml:space="preserve" font-family="Helvetica-Light" font-size="23.0" fill="#000000" transform="matrix(1.00, 0.00, -0.00, -1.00, 748.8, 214.0)">l</text><text xml:space="preserve" font-family="Helvetica-Light" font-size="23.0" fill="#000000" transform="matrix(1.00, 0.00, -0.00, -1.00, 753.9, 214.0)">a</text><text xml:space="preserve" font-family="Helvetica-Light" font-size="23.0" fill="#000000" transform="matrix(1.00, 0.00, -0.00, -1.00, 766.7, 214.0)">t</text><text xml:space="preserve" font-family="Helvetica-Light" font-size="23.0" fill="#000000" transform="matrix(1.00, 0.00, -0.00, -1.00, 773.0, 214.0)">e</text><text xml:space="preserve" font-family="Helvetica-Light" font-size="23.0" fill="#000000" transform="matrix(1.00, 0.00, -0.00, -1.00, 785.8, 214.0)">d</text><text xml:space="preserve" font-family="Helvetica-Light" font-size="23.0" fill="#000000" transform="matrix(1.00, 0.00, -0.00, -1.00, 799.9, 214.0)"> </text><text xml:space="preserve" font-family="Helvetica-Light" font-size="23.0" fill="#000000" transform="matrix(1.00, 0.00, -0.00, -1.00, 806.3, 214.0)">r</text><text xml:space="preserve" font-family="Helvetica-Light" font-size="23.0" fill="#000000" transform="matrix(1.00, 0.00, -0.00, -1.00, 813.5, 214.0)">e</text><text xml:space="preserve" font-family="Helvetica-Light" font-size="23.0" fill="#000000" transform="matrix(1.00, 0.00, -0.00, -1.00, 826.3, 214.0)">g</text><text xml:space="preserve" font-family="Helvetica-Light" font-size="23.0" fill="#000000" transform="matrix(1.00, 0.00, -0.00, -1.00, 840.4, 214.0)">i</text><text xml:space="preserve" font-family="Helvetica-Light" font-size="23.0" fill="#000000" transform="matrix(1.00, 0.00, -0.00, -1.00, 845.5, 214.0)">o</text><text xml:space="preserve" font-family="Helvetica-Light" font-size="23.0" fill="#000000" transform="matrix(1.00, 0.00, -0.00, -1.00, 858.3, 214.0)">n</text><text xml:space="preserve" font-family="Helvetica-Light" font-size="23.0" fill="#000000" transform="matrix(1.00, 0.00, -0.00, -1.00, 871.0, 214.0)"> </text><text xml:space="preserve" font-family="Helvetica-Light" font-size="23.0" fill="#000000" transform="matrix(1.00, 0.00, -0.00, -1.00, 877.4, 214.0)">(</text><text xml:space="preserve" font-family="Helvetica-Light" font-size="23.0" fill="#000000" transform="matrix(1.00, 0.00, -0.00, -1.00, 885.1, 214.0)">5</text><text xml:space="preserve" font-family="Helvetica-Light" font-size="23.0" fill="#000000" transform="matrix(1.00, 0.00, -0.00, -1.00, 897.9, 214.0)">0</text><text xml:space="preserve" font-family="Helvetica-Light" font-size="23.0" fill="#000000" transform="matrix(1.00, 0.00, -0.00, -1.00, 910.7, 214.0)">b</text><text xml:space="preserve" font-family="Helvetica-Light" font-size="23.0" fill="#000000" transform="matrix(1.00, 0.00, -0.00, -1.00, 924.7, 214.0)">p</text><text xml:space="preserve" font-family="Helvetica-Light" font-size="23.0" fill="#000000" transform="matrix(1.00, 0.00, -0.00, -1.00, 938.8, 214.0)">)</text><path d="M 0.0 0.0 L 38.0 0.0 L 39.0 0.0 " fill="none" stroke="#000000" stroke-width="2.00" transform="matrix(-0.97, 0.23, 0.23, 0.97, 627.7, 216.7)"></path><path d="M 591.8 230.1 L 581.3 227.6 L 589.6 220.7 Z M 591.8 230.1 " fill="#000000"></path></g></svg>