<?xml version="1.0" encoding="UTF-8" standalone="no"?><svg xmlns="http://www.w3.org/2000/svg" xmlns:xlink="http://www.w3.org/1999/xlink" clip-rule="evenodd" stroke-miterlimit="4.00" viewBox="0 0 1024 768"><desc>SVG generated by Keynote</desc><defs></defs><g transform="matrix(1.00, 0.00, -0.00, -1.00, 0.0, 768.0)"><path d="M 0.0 768.0 L 1024.0 768.0 L 1024.0 0.0 L 0.0 0.0 Z M 0.0 768.0 " fill="#FEFFFF"></path><text xml:space="preserve" font-family="CenturyGothic" font-size="42.0" fill="#000000" transform="matrix(1.00, 0.00, -0.00, -1.00, 12.0, 682.0)">E</text><text xml:space="preserve" font-family="CenturyGothic" font-size="42.0" fill="#000000" transform="matrix(1.00, 0.00, -0.00, -1.00, 34.5, 682.0)">n</text><text xml:space="preserve" font-family="CenturyGothic" font-size="42.0" fill="#000000" transform="matrix(1.00, 0.00, -0.00, -1.00, 60.1, 682.0)">v</text><text xml:space="preserve" font-family="CenturyGothic" font-size="42.0" fill="#000000" transform="matrix(1.00, 0.00, -0.00, -1.00, 83.4, 682.0)">i</text><text xml:space="preserve" font-family="CenturyGothic" font-size="42.0" fill="#000000" transform="matrix(1.00, 0.00, -0.00, -1.00, 91.8, 682.0)">r</text><text xml:space="preserve" font-family="CenturyGothic" font-size="42.0" fill="#000000" transform="matrix(1.00, 0.00, -0.00, -1.00, 104.3, 682.0)">o</text><text xml:space="preserve" font-family="CenturyGothic" font-size="42.0" fill="#000000" transform="matrix(1.00, 0.00, -0.00, -1.00, 131.8, 682.0)">n</text><text xml:space="preserve" font-family="CenturyGothic" font-size="42.0" fill="#000000" transform="matrix(1.00, 0.00, -0.00, -1.00, 157.4, 682.0)">m</text><text xml:space="preserve" font-family="CenturyGothic" font-size="42.0" fill="#000000" transform="matrix(1.00, 0.00, -0.00, -1.00, 196.8, 682.0)">e</text><text xml:space="preserve" font-family="CenturyGothic" font-size="42.0" fill="#000000" transform="matrix(1.00, 0.00, -0.00, -1.00, 224.1, 682.0)">n</text><text xml:space="preserve" font-family="CenturyGothic" font-size="42.0" fill="#000000" transform="matrix(1.00, 0.00, -0.00, -1.00, 249.7, 682.0)">t</text><text xml:space="preserve" font-family="CenturyGothic" font-size="42.0" fill="#000000" transform="matrix(1.00, 0.00, -0.00, -1.00, 263.9, 682.0)">a</text><text xml:space="preserve" font-family="CenturyGothic" font-size="42.0" fill="#000000" transform="matrix(1.00, 0.00, -0.00, -1.00, 292.6, 682.0)">l</text><text xml:space="preserve" font-family="CenturyGothic" font-size="42.0" fill="#000000" transform="matrix(1.00, 0.00, -0.00, -1.00, 301.0, 682.0)"> </text><text xml:space="preserve" font-family="CenturyGothic" font-size="42.0" fill="#000000" transform="matrix(1.00, 0.00, -0.00, -1.00, 312.7, 682.0)">i</text><text xml:space="preserve" font-family="CenturyGothic" font-size="42.0" fill="#000000" transform="matrix(1.00, 0.00, -0.00, -1.00, 321.1, 682.0)">m</text><text xml:space="preserve" font-family="CenturyGothic" font-size="42.0" fill="#000000" transform="matrix(1.00, 0.00, -0.00, -1.00, 360.5, 682.0)">p</text><text xml:space="preserve" font-family="CenturyGothic" font-size="42.0" fill="#000000" transform="matrix(1.00, 0.00, -0.00, -1.00, 389.1, 682.0)">a</text><text xml:space="preserve" font-family="CenturyGothic" font-size="42.0" fill="#000000" transform="matrix(1.00, 0.00, -0.00, -1.00, 417.8, 682.0)">c</text><text xml:space="preserve" font-family="CenturyGothic" font-size="42.0" fill="#000000" transform="matrix(1.00, 0.00, -0.00, -1.00, 445.0, 682.0)">t</text><text xml:space="preserve" font-family="CenturyGothic" font-size="42.0" fill="#000000" transform="matrix(1.00, 0.00, -0.00, -1.00, 459.2, 682.0)"> </text><text xml:space="preserve" font-family="CenturyGothic" font-size="42.0" fill="#000000" transform="matrix(1.00, 0.00, -0.00, -1.00, 470.8, 682.0)"> </text><text xml:space="preserve" font-family="CenturyGothic" font-size="42.0" fill="#000000" transform="matrix(1.00, 0.00, -0.00, -1.00, 482.5, 682.0)">(</text><text xml:space="preserve" font-family="CenturyGothic" font-size="42.0" fill="#000000" transform="matrix(1.00, 0.00, -0.00, -1.00, 498.0, 682.0)">E</text><text xml:space="preserve" font-family="CenturyGothic" font-size="42.0" fill="#000000" transform="matrix(1.00, 0.00, -0.00, -1.00, 520.5, 682.0)">s</text><text xml:space="preserve" font-family="CenturyGothic" font-size="42.0" fill="#000000" transform="matrix(1.00, 0.00, -0.00, -1.00, 536.8, 682.0)">t</text><text xml:space="preserve" font-family="CenturyGothic" font-size="42.0" fill="#000000" transform="matrix(1.00, 0.00, -0.00, -1.00, 551.0, 682.0)">r</text><text xml:space="preserve" font-family="CenturyGothic" font-size="42.0" fill="#000000" transform="matrix(1.00, 0.00, -0.00, -1.00, 563.5, 682.0)">o</text><text xml:space="preserve" font-family="CenturyGothic" font-size="42.0" fill="#000000" transform="matrix(1.00, 0.00, -0.00, -1.00, 591.0, 682.0)">g</text><text xml:space="preserve" font-family="CenturyGothic" font-size="42.0" fill="#000000" transform="matrix(1.00, 0.00, -0.00, -1.00, 619.2, 682.0)">e</text><text xml:space="preserve" font-family="CenturyGothic" font-size="42.0" fill="#000000" transform="matrix(1.00, 0.00, -0.00, -1.00, 646.5, 682.0)">n</text><text xml:space="preserve" font-family="CenturyGothic" font-size="42.0" fill="#000000" transform="matrix(1.00, 0.00, -0.00, -1.00, 672.1, 682.0)">s</text><text xml:space="preserve" font-family="CenturyGothic" font-size="42.0" fill="#000000" transform="matrix(1.00, 0.00, -0.00, -1.00, 688.5, 682.0)">)</text><text xml:space="preserve" font-family="CenturyGothic" font-size="42.0" fill="#000000" transform="matrix(1.00, 0.00, -0.00, -1.00, 704.0, 682.0)"> </text><image xlink:href="607FE4084905DB326D0ADF56DBF6B5CE.png" width="283.00" height="358.00" transform="matrix(1.33, 0.00, -0.00, -1.33, 55.0, 559.0)"></image><image xlink:href="94DD1F96797C49BE19AC018A3CC5D45E.png" width="430.00" height="422.00" transform="matrix(1.00, 0.00, -0.00, -1.00, 559.0, 443.0)"></image><image xlink:href="0A023C04683D0FAF9E2027FED77D57E9.png" width="443.00" height="169.00" transform="matrix(1.00, 0.00, -0.00, -1.00, 553.0, 629.0)"></image></g></svg>