<?xml version="1.0" encoding="UTF-8" standalone="no"?><svg xmlns="http://www.w3.org/2000/svg" xmlns:xlink="http://www.w3.org/1999/xlink" clip-rule="evenodd" stroke-miterlimit="4.00" viewBox="0 0 1024 768"><desc>SVG generated by Keynote</desc><defs></defs><g transform="matrix(1.00, 0.00, -0.00, -1.00, 0.0, 768.0)"><path d="M 0.0 768.0 L 1024.0 768.0 L 1024.0 0.0 L 0.0 0.0 Z M 0.0 768.0 " fill="#FEFFFF"></path><text xml:space="preserve" font-family="CenturyGothic" font-size="42.0" fill="#000000" transform="matrix(1.00, 0.00, -0.00, -1.00, 12.0, 675.0)">E</text><text xml:space="preserve" font-family="CenturyGothic" font-size="42.0" fill="#000000" transform="matrix(1.00, 0.00, -0.00, -1.00, 34.5, 675.0)">n</text><text xml:space="preserve" font-family="CenturyGothic" font-size="42.0" fill="#000000" transform="matrix(1.00, 0.00, -0.00, -1.00, 60.1, 675.0)">v</text><text xml:space="preserve" font-family="CenturyGothic" font-size="42.0" fill="#000000" transform="matrix(1.00, 0.00, -0.00, -1.00, 83.4, 675.0)">i</text><text xml:space="preserve" font-family="CenturyGothic" font-size="42.0" fill="#000000" transform="matrix(1.00, 0.00, -0.00, -1.00, 91.8, 675.0)">r</text><text xml:space="preserve" font-family="CenturyGothic" font-size="42.0" fill="#000000" transform="matrix(1.00, 0.00, -0.00, -1.00, 104.3, 675.0)">o</text><text xml:space="preserve" font-family="CenturyGothic" font-size="42.0" fill="#000000" transform="matrix(1.00, 0.00, -0.00, -1.00, 131.8, 675.0)">n</text><text xml:space="preserve" font-family="CenturyGothic" font-size="42.0" fill="#000000" transform="matrix(1.00, 0.00, -0.00, -1.00, 157.4, 675.0)">m</text><text xml:space="preserve" font-family="CenturyGothic" font-size="42.0" fill="#000000" transform="matrix(1.00, 0.00, -0.00, -1.00, 196.8, 675.0)">e</text><text xml:space="preserve" font-family="CenturyGothic" font-size="42.0" fill="#000000" transform="matrix(1.00, 0.00, -0.00, -1.00, 224.1, 675.0)">n</text><text xml:space="preserve" font-family="CenturyGothic" font-size="42.0" fill="#000000" transform="matrix(1.00, 0.00, -0.00, -1.00, 249.7, 675.0)">t</text><text xml:space="preserve" font-family="CenturyGothic" font-size="42.0" fill="#000000" transform="matrix(1.00, 0.00, -0.00, -1.00, 263.9, 675.0)"> </text><text xml:space="preserve" font-family="CenturyGothic" font-size="42.0" fill="#000000" transform="matrix(1.00, 0.00, -0.00, -1.00, 275.5, 675.0)">a</text><text xml:space="preserve" font-family="CenturyGothic" font-size="42.0" fill="#000000" transform="matrix(1.00, 0.00, -0.00, -1.00, 304.2, 675.0)">n</text><text xml:space="preserve" font-family="CenturyGothic" font-size="42.0" fill="#000000" transform="matrix(1.00, 0.00, -0.00, -1.00, 329.9, 675.0)">d</text><text xml:space="preserve" font-family="CenturyGothic" font-size="42.0" fill="#000000" transform="matrix(1.00, 0.00, -0.00, -1.00, 358.6, 675.0)"> </text><text xml:space="preserve" font-family="CenturyGothic" font-size="42.0" fill="#000000" transform="matrix(1.00, 0.00, -0.00, -1.00, 370.3, 675.0)">g</text><text xml:space="preserve" font-family="CenturyGothic" font-size="42.0" fill="#000000" transform="matrix(1.00, 0.00, -0.00, -1.00, 398.5, 675.0)">e</text><text xml:space="preserve" font-family="CenturyGothic" font-size="42.0" fill="#000000" transform="matrix(1.00, 0.00, -0.00, -1.00, 425.8, 675.0)">n</text><text xml:space="preserve" font-family="CenturyGothic" font-size="42.0" fill="#000000" transform="matrix(1.00, 0.00, -0.00, -1.00, 451.4, 675.0)">e</text><text xml:space="preserve" font-family="CenturyGothic" font-size="42.0" fill="#000000" transform="matrix(1.00, 0.00, -0.00, -1.00, 478.7, 675.0)"> </text><text xml:space="preserve" font-family="CenturyGothic" font-size="42.0" fill="#000000" transform="matrix(1.00, 0.00, -0.00, -1.00, 490.3, 675.0)">e</text><text xml:space="preserve" font-family="CenturyGothic" font-size="42.0" fill="#000000" transform="matrix(1.00, 0.00, -0.00, -1.00, 517.6, 675.0)">x</text><text xml:space="preserve" font-family="CenturyGothic" font-size="42.0" fill="#000000" transform="matrix(1.00, 0.00, -0.00, -1.00, 537.8, 675.0)">p</text><text xml:space="preserve" font-family="CenturyGothic" font-size="42.0" fill="#000000" transform="matrix(1.00, 0.00, -0.00, -1.00, 566.4, 675.0)">r</text><text xml:space="preserve" font-family="CenturyGothic" font-size="42.0" fill="#000000" transform="matrix(1.00, 0.00, -0.00, -1.00, 578.9, 675.0)">e</text><text xml:space="preserve" font-family="CenturyGothic" font-size="42.0" fill="#000000" transform="matrix(1.00, 0.00, -0.00, -1.00, 606.2, 675.0)">s</text><text xml:space="preserve" font-family="CenturyGothic" font-size="42.0" fill="#000000" transform="matrix(1.00, 0.00, -0.00, -1.00, 622.5, 675.0)">s</text><text xml:space="preserve" font-family="CenturyGothic" font-size="42.0" fill="#000000" transform="matrix(1.00, 0.00, -0.00, -1.00, 638.8, 675.0)">i</text><text xml:space="preserve" font-family="CenturyGothic" font-size="42.0" fill="#000000" transform="matrix(1.00, 0.00, -0.00, -1.00, 647.2, 675.0)">o</text><text xml:space="preserve" font-family="CenturyGothic" font-size="42.0" fill="#000000" transform="matrix(1.00, 0.00, -0.00, -1.00, 674.7, 675.0)">n</text><text xml:space="preserve" font-family="CenturyGothic" font-size="42.0" fill="#000000" transform="matrix(1.00, 0.00, -0.00, -1.00, 700.3, 675.0)"> </text><image xlink:href="../../BFA97C68-54F7-4457-AF49-25A3695243B2/assets/7789E5D50338B2E9489ACA79B26848C9.png" width="206.00" height="176.00" transform="matrix(1.00, 0.00, -0.00, -1.00, 47.0, 620.0)"></image><g opacity="0.65"><g><clipPath id="clip-170"><path d="M 672.0 208.0 L 1024.0 208.0 L 1024.0 525.0 L 672.0 525.0 Z M 672.0 208.0 "></path></clipPath><g clip-path="url(#clip-170)"><path d="M 673.0 523.3 L 1038.0 523.3 L 1038.0 209.3 L 673.0 209.3 Z M 673.0 523.3 " fill="#FEFFFF"></path></g></g></g><text xml:space="preserve" font-family="HelveticaNeue-LightItalic" font-style="italic" font-size="42.0" fill="#000000" transform="matrix(1.00, 0.00, -0.00, -1.00, 414.0, 504.0)">s</text><text xml:space="preserve" font-family="HelveticaNeue-LightItalic" font-style="italic" font-size="42.0" fill="#000000" transform="matrix(1.00, 0.00, -0.00, -1.00, 434.2, 504.0)">t</text><text xml:space="preserve" font-family="HelveticaNeue-LightItalic" font-style="italic" font-size="42.0" fill="#000000" transform="matrix(1.00, 0.00, -0.00, -1.00, 446.6, 504.0)">o</text><text xml:space="preserve" font-family="HelveticaNeue-LightItalic" font-style="italic" font-size="42.0" fill="#000000" transform="matrix(1.00, 0.00, -0.00, -1.00, 470.0, 504.0)">c</text><text xml:space="preserve" font-family="HelveticaNeue-LightItalic" font-style="italic" font-size="42.0" fill="#000000" transform="matrix(1.00, 0.00, -0.00, -1.00, 491.8, 504.0)">h</text><text xml:space="preserve" font-family="HelveticaNeue-LightItalic" font-style="italic" font-size="42.0" fill="#000000" transform="matrix(1.00, 0.00, -0.00, -1.00, 514.3, 504.0)">a</text><text xml:space="preserve" font-family="HelveticaNeue-LightItalic" font-style="italic" font-size="42.0" fill="#000000" transform="matrix(1.00, 0.00, -0.00, -1.00, 536.1, 504.0)">s</text><text xml:space="preserve" font-family="HelveticaNeue-LightItalic" font-style="italic" font-size="42.0" fill="#000000" transform="matrix(1.00, 0.00, -0.00, -1.00, 556.3, 504.0)">t</text><text xml:space="preserve" font-family="HelveticaNeue-LightItalic" font-style="italic" font-size="42.0" fill="#000000" transform="matrix(1.00, 0.00, -0.00, -1.00, 568.8, 504.0)">i</text><text xml:space="preserve" font-family="HelveticaNeue-LightItalic" font-style="italic" font-size="42.0" fill="#000000" transform="matrix(1.00, 0.00, -0.00, -1.00, 576.5, 504.0)">c</text><text xml:space="preserve" font-family="HelveticaNeue-LightItalic" font-style="italic" font-size="42.0" fill="#000000" transform="matrix(1.00, 0.00, -0.00, -1.00, 598.3, 504.0)"> </text><text xml:space="preserve" font-family="HelveticaNeue-LightItalic" font-style="italic" font-size="42.0" fill="#000000" transform="matrix(1.00, 0.00, -0.00, -1.00, 610.0, 504.0)">o</text><text xml:space="preserve" font-family="HelveticaNeue-LightItalic" font-style="italic" font-size="42.0" fill="#000000" transform="matrix(1.00, 0.00, -0.00, -1.00, 633.4, 504.0)">r</text><text xml:space="preserve" font-family="HelveticaNeue-LightItalic" font-style="italic" font-size="42.0" fill="#000000" transform="matrix(1.00, 0.00, -0.00, -1.00, 646.6, 504.0)"> </text><text xml:space="preserve" font-family="HelveticaNeue-LightItalic" font-style="italic" font-size="42.0" fill="#000000" transform="matrix(1.00, 0.00, -0.00, -1.00, 658.3, 504.0)">t</text><text xml:space="preserve" font-family="HelveticaNeue-LightItalic" font-style="italic" font-size="42.0" fill="#000000" transform="matrix(1.00, 0.00, -0.00, -1.00, 670.7, 504.0)">a</text><text xml:space="preserve" font-family="HelveticaNeue-LightItalic" font-style="italic" font-size="42.0" fill="#000000" transform="matrix(1.00, 0.00, -0.00, -1.00, 692.5, 504.0)">r</text><text xml:space="preserve" font-family="HelveticaNeue-LightItalic" font-style="italic" font-size="42.0" fill="#000000" transform="matrix(1.00, 0.00, -0.00, -1.00, 705.7, 504.0)">g</text><text xml:space="preserve" font-family="HelveticaNeue-LightItalic" font-style="italic" font-size="42.0" fill="#000000" transform="matrix(1.00, 0.00, -0.00, -1.00, 729.1, 504.0)">e</text><text xml:space="preserve" font-family="HelveticaNeue-LightItalic" font-style="italic" font-size="42.0" fill="#000000" transform="matrix(1.00, 0.00, -0.00, -1.00, 750.9, 504.0)">t</text><text xml:space="preserve" font-family="HelveticaNeue-LightItalic" font-style="italic" font-size="42.0" fill="#000000" transform="matrix(1.00, 0.00, -0.00, -1.00, 763.3, 504.0)">e</text><text xml:space="preserve" font-family="HelveticaNeue-LightItalic" font-style="italic" font-size="42.0" fill="#000000" transform="matrix(1.00, 0.00, -0.00, -1.00, 785.1, 504.0)">d</text><text xml:space="preserve" font-family="HelveticaNeue-LightItalic" font-style="italic" font-size="42.0" fill="#000000" transform="matrix(1.00, 0.00, -0.00, -1.00, 809.2, 504.0)">?</text><text xml:space="preserve" font-family="Helvetica-Light" font-size="36.0" fill="#000000" transform="matrix(1.00, 0.00, -0.00, -1.00, 577.0, 319.0)">N</text><text xml:space="preserve" font-family="Helvetica-Light" font-size="36.0" fill="#000000" transform="matrix(1.00, 0.00, -0.00, -1.00, 603.0, 319.0)">o</text><text xml:space="preserve" font-family="Helvetica-Light" font-size="36.0" fill="#000000" transform="matrix(1.00, 0.00, -0.00, -1.00, 623.0, 319.0)"> </text><text xml:space="preserve" font-family="Helvetica-Light" font-size="36.0" fill="#000000" transform="matrix(1.00, 0.00, -0.00, -1.00, 633.0, 319.0)">o</text><text xml:space="preserve" font-family="Helvetica-Light" font-size="36.0" fill="#000000" transform="matrix(1.00, 0.00, -0.00, -1.00, 653.0, 319.0)">b</text><text xml:space="preserve" font-family="Helvetica-Light" font-size="36.0" fill="#000000" transform="matrix(1.00, 0.00, -0.00, -1.00, 675.0, 319.0)">v</text><text xml:space="preserve" font-family="Helvetica-Light" font-size="36.0" fill="#000000" transform="matrix(1.00, 0.00, -0.00, -1.00, 693.0, 319.0)">i</text><text xml:space="preserve" font-family="Helvetica-Light" font-size="36.0" fill="#000000" transform="matrix(1.00, 0.00, -0.00, -1.00, 701.0, 319.0)">o</text><text xml:space="preserve" font-family="Helvetica-Light" font-size="36.0" fill="#000000" transform="matrix(1.00, 0.00, -0.00, -1.00, 721.0, 319.0)">u</text><text xml:space="preserve" font-family="Helvetica-Light" font-size="36.0" fill="#000000" transform="matrix(1.00, 0.00, -0.00, -1.00, 741.1, 319.0)">s</text><text xml:space="preserve" font-family="Helvetica-Light" font-size="36.0" fill="#000000" transform="matrix(1.00, 0.00, -0.00, -1.00, 759.1, 319.0)"> </text><text xml:space="preserve" font-family="Helvetica-Light" font-size="36.0" fill="#000000" transform="matrix(1.00, 0.00, -0.00, -1.00, 769.1, 319.0)">a</text><text xml:space="preserve" font-family="Helvetica-Light" font-size="36.0" fill="#000000" transform="matrix(1.00, 0.00, -0.00, -1.00, 789.1, 319.0)">s</text><text xml:space="preserve" font-family="Helvetica-Light" font-size="36.0" fill="#000000" transform="matrix(1.00, 0.00, -0.00, -1.00, 807.1, 319.0)">s</text><text xml:space="preserve" font-family="Helvetica-Light" font-size="36.0" fill="#000000" transform="matrix(1.00, 0.00, -0.00, -1.00, 825.1, 319.0)">o</text><text xml:space="preserve" font-family="Helvetica-Light" font-size="36.0" fill="#000000" transform="matrix(1.00, 0.00, -0.00, -1.00, 845.1, 319.0)">c</text><text xml:space="preserve" font-family="Helvetica-Light" font-size="36.0" fill="#000000" transform="matrix(1.00, 0.00, -0.00, -1.00, 865.1, 319.0)">i</text><text xml:space="preserve" font-family="Helvetica-Light" font-size="36.0" fill="#000000" transform="matrix(1.00, 0.00, -0.00, -1.00, 873.1, 319.0)">a</text><text xml:space="preserve" font-family="Helvetica-Light" font-size="36.0" fill="#000000" transform="matrix(1.00, 0.00, -0.00, -1.00, 893.1, 319.0)">t</text><text xml:space="preserve" font-family="Helvetica-Light" font-size="36.0" fill="#000000" transform="matrix(1.00, 0.00, -0.00, -1.00, 903.1, 319.0)">i</text><text xml:space="preserve" font-family="Helvetica-Light" font-size="36.0" fill="#000000" transform="matrix(1.00, 0.00, -0.00, -1.00, 911.1, 319.0)">o</text><text xml:space="preserve" font-family="Helvetica-Light" font-size="36.0" fill="#000000" transform="matrix(1.00, 0.00, -0.00, -1.00, 931.1, 319.0)">n</text><text xml:space="preserve" font-family="Helvetica-Light" font-size="36.0" fill="#000000" transform="matrix(1.00, 0.00, -0.00, -1.00, 951.1, 319.0)"> </text><text xml:space="preserve" font-family="Helvetica-Light" font-size="36.0" fill="#000000" transform="matrix(1.00, 0.00, -0.00, -1.00, 600.0, 276.0)">w</text><text xml:space="preserve" font-family="Helvetica-Light" font-size="36.0" fill="#000000" transform="matrix(1.00, 0.00, -0.00, -1.00, 626.0, 276.0)">i</text><text xml:space="preserve" font-family="Helvetica-Light" font-size="36.0" fill="#000000" transform="matrix(1.00, 0.00, -0.00, -1.00, 634.0, 276.0)">t</text><text xml:space="preserve" font-family="Helvetica-Light" font-size="36.0" fill="#000000" transform="matrix(1.00, 0.00, -0.00, -1.00, 644.0, 276.0)">h</text><text xml:space="preserve" font-family="Helvetica-Light" font-size="36.0" fill="#000000" transform="matrix(1.00, 0.00, -0.00, -1.00, 664.0, 276.0)"> </text><text xml:space="preserve" font-family="Helvetica-Light" font-size="36.0" fill="#000000" transform="matrix(1.00, 0.00, -0.00, -1.00, 674.0, 276.0)">g</text><text xml:space="preserve" font-family="Helvetica-Light" font-size="36.0" fill="#000000" transform="matrix(1.00, 0.00, -0.00, -1.00, 696.0, 276.0)">e</text><text xml:space="preserve" font-family="Helvetica-Light" font-size="36.0" fill="#000000" transform="matrix(1.00, 0.00, -0.00, -1.00, 716.0, 276.0)">n</text><text xml:space="preserve" font-family="Helvetica-Light" font-size="36.0" fill="#000000" transform="matrix(1.00, 0.00, -0.00, -1.00, 736.0, 276.0)">o</text><text xml:space="preserve" font-family="Helvetica-Light" font-size="36.0" fill="#000000" transform="matrix(1.00, 0.00, -0.00, -1.00, 756.1, 276.0)">m</text><text xml:space="preserve" font-family="Helvetica-Light" font-size="36.0" fill="#000000" transform="matrix(1.00, 0.00, -0.00, -1.00, 786.0, 276.0)">e</text><text xml:space="preserve" font-family="Helvetica-Light" font-size="36.0" fill="#000000" transform="matrix(1.00, 0.00, -0.00, -1.00, 806.1, 276.0)"> </text><text xml:space="preserve" font-family="Helvetica-Light" font-size="36.0" fill="#000000" transform="matrix(1.00, 0.00, -0.00, -1.00, 816.1, 276.0)">f</text><text xml:space="preserve" font-family="Helvetica-Light" font-size="36.0" fill="#000000" transform="matrix(1.00, 0.00, -0.00, -1.00, 826.1, 276.0)">e</text><text xml:space="preserve" font-family="Helvetica-Light" font-size="36.0" fill="#000000" transform="matrix(1.00, 0.00, -0.00, -1.00, 846.1, 276.0)">a</text><text xml:space="preserve" font-family="Helvetica-Light" font-size="36.0" fill="#000000" transform="matrix(1.00, 0.00, -0.00, -1.00, 866.1, 276.0)">t</text><text xml:space="preserve" font-family="Helvetica-Light" font-size="36.0" fill="#000000" transform="matrix(1.00, 0.00, -0.00, -1.00, 876.1, 276.0)">u</text><text xml:space="preserve" font-family="Helvetica-Light" font-size="36.0" fill="#000000" transform="matrix(1.00, 0.00, -0.00, -1.00, 896.1, 276.0)">r</text><text xml:space="preserve" font-family="Helvetica-Light" font-size="36.0" fill="#000000" transform="matrix(1.00, 0.00, -0.00, -1.00, 907.5, 276.0)">e</text><text xml:space="preserve" font-family="Helvetica-Light" font-size="36.0" fill="#000000" transform="matrix(1.00, 0.00, -0.00, -1.00, 927.5, 276.0)"> </text><text xml:space="preserve" font-family="Helvetica-Light" font-size="36.0" fill="#000000" transform="matrix(1.00, 0.00, -0.00, -1.00, 589.0, 233.0)">i</text><text xml:space="preserve" font-family="Helvetica-Light" font-size="36.0" fill="#000000" transform="matrix(1.00, 0.00, -0.00, -1.00, 597.0, 233.0)">n</text><text xml:space="preserve" font-family="Helvetica-Light" font-size="36.0" fill="#000000" transform="matrix(1.00, 0.00, -0.00, -1.00, 617.0, 233.0)">c</text><text xml:space="preserve" font-family="Helvetica-Light" font-size="36.0" fill="#000000" transform="matrix(1.00, 0.00, -0.00, -1.00, 637.0, 233.0)">l</text><text xml:space="preserve" font-family="Helvetica-Light" font-size="36.0" fill="#000000" transform="matrix(1.00, 0.00, -0.00, -1.00, 645.0, 233.0)">u</text><text xml:space="preserve" font-family="Helvetica-Light" font-size="36.0" fill="#000000" transform="matrix(1.00, 0.00, -0.00, -1.00, 665.0, 233.0)">d</text><text xml:space="preserve" font-family="Helvetica-Light" font-size="36.0" fill="#000000" transform="matrix(1.00, 0.00, -0.00, -1.00, 687.0, 233.0)">i</text><text xml:space="preserve" font-family="Helvetica-Light" font-size="36.0" fill="#000000" transform="matrix(1.00, 0.00, -0.00, -1.00, 695.0, 233.0)">n</text><text xml:space="preserve" font-family="Helvetica-Light" font-size="36.0" fill="#000000" transform="matrix(1.00, 0.00, -0.00, -1.00, 715.0, 233.0)">g</text><text xml:space="preserve" font-family="Helvetica-Light" font-size="36.0" fill="#000000" transform="matrix(1.00, 0.00, -0.00, -1.00, 737.0, 233.0)"> </text><text xml:space="preserve" font-family="Helvetica-LightOblique" font-style="italic" font-size="36.0" fill="#000000" transform="matrix(1.00, 0.00, -0.00, -1.00, 747.0, 233.0)">d</text><text xml:space="preserve" font-family="Helvetica-LightOblique" font-style="italic" font-size="36.0" fill="#000000" transform="matrix(1.00, 0.00, -0.00, -1.00, 769.0, 233.0)">i</text><text xml:space="preserve" font-family="Helvetica-LightOblique" font-style="italic" font-size="36.0" fill="#000000" transform="matrix(1.00, 0.00, -0.00, -1.00, 777.0, 233.0)">f</text><text xml:space="preserve" font-family="Helvetica-LightOblique" font-style="italic" font-size="36.0" fill="#000000" transform="matrix(1.00, 0.00, -0.00, -1.00, 786.4, 233.0)">f</text><text xml:space="preserve" font-family="Helvetica-LightOblique" font-style="italic" font-size="36.0" fill="#000000" transform="matrix(1.00, 0.00, -0.00, -1.00, 796.4, 233.0)">e</text><text xml:space="preserve" font-family="Helvetica-LightOblique" font-style="italic" font-size="36.0" fill="#000000" transform="matrix(1.00, 0.00, -0.00, -1.00, 816.4, 233.0)">r</text><text xml:space="preserve" font-family="Helvetica-LightOblique" font-style="italic" font-size="36.0" fill="#000000" transform="matrix(1.00, 0.00, -0.00, -1.00, 827.8, 233.0)">e</text><text xml:space="preserve" font-family="Helvetica-LightOblique" font-style="italic" font-size="36.0" fill="#000000" transform="matrix(1.00, 0.00, -0.00, -1.00, 847.8, 233.0)">n</text><text xml:space="preserve" font-family="Helvetica-LightOblique" font-style="italic" font-size="36.0" fill="#000000" transform="matrix(1.00, 0.00, -0.00, -1.00, 867.8, 233.0)">t</text><text xml:space="preserve" font-family="Helvetica-LightOblique" font-style="italic" font-size="36.0" fill="#000000" transform="matrix(1.00, 0.00, -0.00, -1.00, 877.8, 233.0)">i</text><text xml:space="preserve" font-family="Helvetica-LightOblique" font-style="italic" font-size="36.0" fill="#000000" transform="matrix(1.00, 0.00, -0.00, -1.00, 885.8, 233.0)">a</text><text xml:space="preserve" font-family="Helvetica-LightOblique" font-style="italic" font-size="36.0" fill="#000000" transform="matrix(1.00, 0.00, -0.00, -1.00, 905.8, 233.0)">l</text><text xml:space="preserve" font-family="Helvetica-LightOblique" font-style="italic" font-size="36.0" fill="#000000" transform="matrix(1.00, 0.00, -0.00, -1.00, 913.8, 233.0)">l</text><text xml:space="preserve" font-family="Helvetica-LightOblique" font-style="italic" font-size="36.0" fill="#000000" transform="matrix(1.00, 0.00, -0.00, -1.00, 921.8, 233.0)">y</text><text xml:space="preserve" font-family="Helvetica-LightOblique" font-style="italic" font-size="36.0" fill="#000000" transform="matrix(1.00, 0.00, -0.00, -1.00, 939.8, 233.0)"> </text><text xml:space="preserve" font-family="Helvetica-LightOblique" font-style="italic" font-size="36.0" fill="#000000" transform="matrix(1.00, 0.00, -0.00, -1.00, 679.0, 190.0)">e</text><text xml:space="preserve" font-family="Helvetica-LightOblique" font-style="italic" font-size="36.0" fill="#000000" transform="matrix(1.00, 0.00, -0.00, -1.00, 699.0, 190.0)">x</text><text xml:space="preserve" font-family="Helvetica-LightOblique" font-style="italic" font-size="36.0" fill="#000000" transform="matrix(1.00, 0.00, -0.00, -1.00, 717.0, 190.0)">p</text><text xml:space="preserve" font-family="Helvetica-LightOblique" font-style="italic" font-size="36.0" fill="#000000" transform="matrix(1.00, 0.00, -0.00, -1.00, 739.0, 190.0)">r</text><text xml:space="preserve" font-family="Helvetica-LightOblique" font-style="italic" font-size="36.0" fill="#000000" transform="matrix(1.00, 0.00, -0.00, -1.00, 750.4, 190.0)">e</text><text xml:space="preserve" font-family="Helvetica-LightOblique" font-style="italic" font-size="36.0" fill="#000000" transform="matrix(1.00, 0.00, -0.00, -1.00, 770.4, 190.0)">s</text><text xml:space="preserve" font-family="Helvetica-LightOblique" font-style="italic" font-size="36.0" fill="#000000" transform="matrix(1.00, 0.00, -0.00, -1.00, 788.4, 190.0)">s</text><text xml:space="preserve" font-family="Helvetica-LightOblique" font-style="italic" font-size="36.0" fill="#000000" transform="matrix(1.00, 0.00, -0.00, -1.00, 806.4, 190.0)">e</text><text xml:space="preserve" font-family="Helvetica-LightOblique" font-style="italic" font-size="36.0" fill="#000000" transform="matrix(1.00, 0.00, -0.00, -1.00, 826.4, 190.0)">d</text><text xml:space="preserve" font-family="Helvetica-LightOblique" font-style="italic" font-size="36.0" fill="#000000" transform="matrix(1.00, 0.00, -0.00, -1.00, 848.4, 190.0)"> </text><text xml:space="preserve" font-family="Helvetica-LightOblique" font-style="italic" font-size="36.0" fill="#000000" transform="matrix(1.00, 0.00, -0.00, -1.00, 714.0, 147.0)">g</text><text xml:space="preserve" font-family="Helvetica-LightOblique" font-style="italic" font-size="36.0" fill="#000000" transform="matrix(1.00, 0.00, -0.00, -1.00, 736.0, 147.0)">e</text><text xml:space="preserve" font-family="Helvetica-LightOblique" font-style="italic" font-size="36.0" fill="#000000" transform="matrix(1.00, 0.00, -0.00, -1.00, 756.0, 147.0)">n</text><text xml:space="preserve" font-family="Helvetica-LightOblique" font-style="italic" font-size="36.0" fill="#000000" transform="matrix(1.00, 0.00, -0.00, -1.00, 776.0, 147.0)">e</text><text xml:space="preserve" font-family="Helvetica-LightOblique" font-style="italic" font-size="36.0" fill="#000000" transform="matrix(1.00, 0.00, -0.00, -1.00, 796.0, 147.0)">s</text><g><clipPath id="clip-171"><path d="M 62.0 384.0 L 562.0 384.0 L 562.0 84.0 L 62.0 84.0 Z M 62.0 384.0 "></path></clipPath><g clip-path="url(#clip-171)"><path d="M 62.0 384.0 L 228.7 384.0 L 228.7 309.0 L 62.0 309.0 Z M 62.0 384.0 " fill="#0264C0"></path><path d="M 228.7 384.0 L 395.3 384.0 L 395.3 309.0 L 228.7 309.0 Z M 228.7 384.0 " fill="#0264C0"></path><path d="M 395.3 384.0 L 562.0 384.0 L 562.0 309.0 L 395.3 309.0 Z M 395.3 384.0 " fill="#0264C0"></path><path d="M 62.0 309.0 L 228.7 309.0 L 228.7 234.0 L 62.0 234.0 Z M 62.0 309.0 " fill="#388CCE"></path><path d="M 228.7 309.0 L 395.3 309.0 L 395.3 234.0 L 228.7 234.0 Z M 228.7 309.0 " fill="#FEFFFF"></path><path d="M 395.3 309.0 L 562.0 309.0 L 562.0 234.0 L 395.3 234.0 Z M 395.3 309.0 " fill="#FEFFFF"></path><path d="M 62.0 234.0 L 228.7 234.0 L 228.7 159.0 L 62.0 159.0 Z M 62.0 234.0 " fill="#388CCE"></path><path d="M 228.7 234.0 L 395.3 234.0 L 395.3 159.0 L 228.7 159.0 Z M 228.7 234.0 " fill="#E2E5E8"></path><path d="M 395.3 234.0 L 562.0 234.0 L 562.0 159.0 L 395.3 159.0 Z M 395.3 234.0 " fill="#E2E5E8"></path><path d="M 62.0 159.0 L 228.7 159.0 L 228.7 84.0 L 62.0 84.0 Z M 62.0 159.0 " fill="#388CCE"></path><path d="M 228.7 159.0 L 395.3 159.0 L 395.3 84.0 L 228.7 84.0 Z M 228.7 159.0 " fill="#FEFFFF"></path><path d="M 395.3 159.0 L 562.0 159.0 L 562.0 84.0 L 395.3 84.0 Z M 395.3 159.0 " fill="#FEFFFF"></path></g></g><g><clipPath id="clip-172"><path d="M 62.0 384.0 L 562.0 384.0 L 562.0 84.0 L 62.0 84.0 Z M 62.0 384.0 "></path></clipPath><g clip-path="url(#clip-172)"><g><clipPath id="clip-173"><path d="M 62.0 309.5 L 228.7 309.5 L 228.7 384.0 L 62.0 384.0 Z M 62.0 309.5 "></path></clipPath><g clip-path="url(#clip-173)"><text xml:space="preserve" font-family="Helvetica-Bold" font-weight="bold" font-size="26.0" fill="#FEFFFE" transform="matrix(1.00, 0.00, -0.00, -1.00, 104.0, 337.0)">O</text><text xml:space="preserve" font-family="Helvetica-Bold" font-weight="bold" font-size="26.0" fill="#FEFFFE" transform="matrix(1.00, 0.00, -0.00, -1.00, 124.2, 337.0)">y</text><text xml:space="preserve" font-family="Helvetica-Bold" font-weight="bold" font-size="26.0" fill="#FEFFFE" transform="matrix(1.00, 0.00, -0.00, -1.00, 138.7, 337.0)">s</text><text xml:space="preserve" font-family="Helvetica-Bold" font-weight="bold" font-size="26.0" fill="#FEFFFE" transform="matrix(1.00, 0.00, -0.00, -1.00, 153.1, 337.0)">t</text><text xml:space="preserve" font-family="Helvetica-Bold" font-weight="bold" font-size="26.0" fill="#FEFFFE" transform="matrix(1.00, 0.00, -0.00, -1.00, 161.8, 337.0)">e</text><text xml:space="preserve" font-family="Helvetica-Bold" font-weight="bold" font-size="26.0" fill="#FEFFFE" transform="matrix(1.00, 0.00, -0.00, -1.00, 176.3, 337.0)">r</text></g></g></g></g><g><clipPath id="clip-174"><path d="M 62.0 384.0 L 562.0 384.0 L 562.0 84.0 L 62.0 84.0 Z M 62.0 384.0 "></path></clipPath><g clip-path="url(#clip-174)"><g><clipPath id="clip-175"><path d="M 228.7 309.5 L 395.3 309.5 L 395.3 384.0 L 228.7 384.0 Z M 228.7 309.5 "></path></clipPath><g clip-path="url(#clip-175)"><text xml:space="preserve" font-family="Helvetica-Bold" font-weight="bold" font-size="26.0" fill="#FEFFFE" transform="matrix(1.00, 0.00, -0.00, -1.00, 275.0, 353.0)">H</text><text xml:space="preserve" font-family="Helvetica-Bold" font-weight="bold" font-size="26.0" fill="#FEFFFE" transform="matrix(1.00, 0.00, -0.00, -1.00, 293.8, 353.0)">y</text><text xml:space="preserve" font-family="Helvetica-Bold" font-weight="bold" font-size="26.0" fill="#FEFFFE" transform="matrix(1.00, 0.00, -0.00, -1.00, 308.2, 353.0)">p</text><text xml:space="preserve" font-family="Helvetica-Bold" font-weight="bold" font-size="26.0" fill="#FEFFFE" transform="matrix(1.00, 0.00, -0.00, -1.00, 324.1, 353.0)">o</text><text xml:space="preserve" font-family="Helvetica-Bold" font-weight="bold" font-size="26.0" fill="#FEFFFE" transform="matrix(1.00, 0.00, -0.00, -1.00, 340.0, 353.0)">-</text><text xml:space="preserve" font-family="Helvetica-Bold" font-weight="bold" font-size="26.0" fill="#FEFFFE" transform="matrix(1.00, 0.00, -0.00, -1.00, 243.0, 322.0)">m</text><text xml:space="preserve" font-family="Helvetica-Bold" font-weight="bold" font-size="26.0" fill="#FEFFFE" transform="matrix(1.00, 0.00, -0.00, -1.00, 266.1, 322.0)">e</text><text xml:space="preserve" font-family="Helvetica-Bold" font-weight="bold" font-size="26.0" fill="#FEFFFE" transform="matrix(1.00, 0.00, -0.00, -1.00, 280.6, 322.0)">t</text><text xml:space="preserve" font-family="Helvetica-Bold" font-weight="bold" font-size="26.0" fill="#FEFFFE" transform="matrix(1.00, 0.00, -0.00, -1.00, 289.2, 322.0)">h</text><text xml:space="preserve" font-family="Helvetica-Bold" font-weight="bold" font-size="26.0" fill="#FEFFFE" transform="matrix(1.00, 0.00, -0.00, -1.00, 305.1, 322.0)">y</text><text xml:space="preserve" font-family="Helvetica-Bold" font-weight="bold" font-size="26.0" fill="#FEFFFE" transform="matrix(1.00, 0.00, -0.00, -1.00, 319.6, 322.0)">l</text><text xml:space="preserve" font-family="Helvetica-Bold" font-weight="bold" font-size="26.0" fill="#FEFFFE" transform="matrix(1.00, 0.00, -0.00, -1.00, 326.8, 322.0)">a</text><text xml:space="preserve" font-family="Helvetica-Bold" font-weight="bold" font-size="26.0" fill="#FEFFFE" transform="matrix(1.00, 0.00, -0.00, -1.00, 341.3, 322.0)">t</text><text xml:space="preserve" font-family="Helvetica-Bold" font-weight="bold" font-size="26.0" fill="#FEFFFE" transform="matrix(1.00, 0.00, -0.00, -1.00, 349.9, 322.0)">e</text><text xml:space="preserve" font-family="Helvetica-Bold" font-weight="bold" font-size="26.0" fill="#FEFFFE" transform="matrix(1.00, 0.00, -0.00, -1.00, 364.4, 322.0)">d</text></g></g></g></g><g><clipPath id="clip-176"><path d="M 62.0 384.0 L 562.0 384.0 L 562.0 84.0 L 62.0 84.0 Z M 62.0 384.0 "></path></clipPath><g clip-path="url(#clip-176)"><g><clipPath id="clip-177"><path d="M 395.3 309.5 L 562.0 309.5 L 562.0 384.0 L 395.3 384.0 Z M 395.3 309.5 "></path></clipPath><g clip-path="url(#clip-177)"><text xml:space="preserve" font-family="Helvetica-Bold" font-weight="bold" font-size="26.0" fill="#FEFFFE" transform="matrix(1.00, 0.00, -0.00, -1.00, 437.0, 353.0)">H</text><text xml:space="preserve" font-family="Helvetica-Bold" font-weight="bold" font-size="26.0" fill="#FEFFFE" transform="matrix(1.00, 0.00, -0.00, -1.00, 455.8, 353.0)">y</text><text xml:space="preserve" font-family="Helvetica-Bold" font-weight="bold" font-size="26.0" fill="#FEFFFE" transform="matrix(1.00, 0.00, -0.00, -1.00, 470.2, 353.0)">p</text><text xml:space="preserve" font-family="Helvetica-Bold" font-weight="bold" font-size="26.0" fill="#FEFFFE" transform="matrix(1.00, 0.00, -0.00, -1.00, 486.1, 353.0)">e</text><text xml:space="preserve" font-family="Helvetica-Bold" font-weight="bold" font-size="26.0" fill="#FEFFFE" transform="matrix(1.00, 0.00, -0.00, -1.00, 500.6, 353.0)">r</text><text xml:space="preserve" font-family="Helvetica-Bold" font-weight="bold" font-size="26.0" fill="#FEFFFE" transform="matrix(1.00, 0.00, -0.00, -1.00, 510.7, 353.0)">-</text><text xml:space="preserve" font-family="Helvetica-Bold" font-weight="bold" font-size="26.0" fill="#FEFFFE" transform="matrix(1.00, 0.00, -0.00, -1.00, 410.0, 322.0)">m</text><text xml:space="preserve" font-family="Helvetica-Bold" font-weight="bold" font-size="26.0" fill="#FEFFFE" transform="matrix(1.00, 0.00, -0.00, -1.00, 433.1, 322.0)">e</text><text xml:space="preserve" font-family="Helvetica-Bold" font-weight="bold" font-size="26.0" fill="#FEFFFE" transform="matrix(1.00, 0.00, -0.00, -1.00, 447.6, 322.0)">t</text><text xml:space="preserve" font-family="Helvetica-Bold" font-weight="bold" font-size="26.0" fill="#FEFFFE" transform="matrix(1.00, 0.00, -0.00, -1.00, 456.2, 322.0)">h</text><text xml:space="preserve" font-family="Helvetica-Bold" font-weight="bold" font-size="26.0" fill="#FEFFFE" transform="matrix(1.00, 0.00, -0.00, -1.00, 472.1, 322.0)">y</text><text xml:space="preserve" font-family="Helvetica-Bold" font-weight="bold" font-size="26.0" fill="#FEFFFE" transform="matrix(1.00, 0.00, -0.00, -1.00, 486.6, 322.0)">l</text><text xml:space="preserve" font-family="Helvetica-Bold" font-weight="bold" font-size="26.0" fill="#FEFFFE" transform="matrix(1.00, 0.00, -0.00, -1.00, 493.8, 322.0)">a</text><text xml:space="preserve" font-family="Helvetica-Bold" font-weight="bold" font-size="26.0" fill="#FEFFFE" transform="matrix(1.00, 0.00, -0.00, -1.00, 508.3, 322.0)">t</text><text xml:space="preserve" font-family="Helvetica-Bold" font-weight="bold" font-size="26.0" fill="#FEFFFE" transform="matrix(1.00, 0.00, -0.00, -1.00, 516.9, 322.0)">e</text><text xml:space="preserve" font-family="Helvetica-Bold" font-weight="bold" font-size="26.0" fill="#FEFFFE" transform="matrix(1.00, 0.00, -0.00, -1.00, 531.4, 322.0)">d</text></g></g></g></g><g><clipPath id="clip-178"><path d="M 62.0 384.0 L 562.0 384.0 L 562.0 84.0 L 62.0 84.0 Z M 62.0 384.0 "></path></clipPath><g clip-path="url(#clip-178)"><g><clipPath id="clip-179"><path d="M 62.0 234.0 L 228.2 234.0 L 228.2 308.5 L 62.0 308.5 Z M 62.0 234.0 "></path></clipPath><g clip-path="url(#clip-179)"><text xml:space="preserve" font-family="Helvetica-Bold" font-weight="bold" font-size="26.0" fill="#FEFFFE" transform="matrix(1.00, 0.00, -0.00, -1.00, 138.0, 261.0)">2</text></g></g></g></g><g><clipPath id="clip-180"><path d="M 62.0 384.0 L 562.0 384.0 L 562.0 84.0 L 62.0 84.0 Z M 62.0 384.0 "></path></clipPath><g clip-path="url(#clip-180)"><g><clipPath id="clip-181"><path d="M 229.2 234.0 L 395.3 234.0 L 395.3 308.5 L 229.2 308.5 Z M 229.2 234.0 "></path></clipPath><g clip-path="url(#clip-181)"><text xml:space="preserve" font-family="Helvetica-Light" font-size="26.0" fill="#000000" transform="matrix(1.00, 0.00, -0.00, -1.00, 283.0, 261.0)">7</text><text xml:space="preserve" font-family="Helvetica-Light" font-size="26.0" fill="#000000" transform="matrix(1.00, 0.00, -0.00, -1.00, 297.5, 261.0)">2</text><text xml:space="preserve" font-family="Helvetica-Light" font-size="26.0" fill="#000000" transform="matrix(1.00, 0.00, -0.00, -1.00, 311.9, 261.0)">2</text><text xml:space="preserve" font-family="Helvetica-Light" font-size="26.0" fill="#000000" transform="matrix(1.00, 0.00, -0.00, -1.00, 326.4, 261.0)">4</text></g></g></g></g><g><clipPath id="clip-182"><path d="M 62.0 384.0 L 562.0 384.0 L 562.0 84.0 L 62.0 84.0 Z M 62.0 384.0 "></path></clipPath><g clip-path="url(#clip-182)"><g><clipPath id="clip-183"><path d="M 395.3 234.0 L 562.0 234.0 L 562.0 308.5 L 395.3 308.5 Z M 395.3 234.0 "></path></clipPath><g clip-path="url(#clip-183)"><text xml:space="preserve" font-family="Helvetica-Light" font-size="26.0" fill="#000000" transform="matrix(1.00, 0.00, -0.00, -1.00, 450.0, 261.0)">2</text><text xml:space="preserve" font-family="Helvetica-Light" font-size="26.0" fill="#000000" transform="matrix(1.00, 0.00, -0.00, -1.00, 464.5, 261.0)">8</text><text xml:space="preserve" font-family="Helvetica-Light" font-size="26.0" fill="#000000" transform="matrix(1.00, 0.00, -0.00, -1.00, 478.9, 261.0)">0</text><text xml:space="preserve" font-family="Helvetica-Light" font-size="26.0" fill="#000000" transform="matrix(1.00, 0.00, -0.00, -1.00, 493.4, 261.0)">3</text></g></g></g></g><g><clipPath id="clip-184"><path d="M 62.0 384.0 L 562.0 384.0 L 562.0 84.0 L 62.0 84.0 Z M 62.0 384.0 "></path></clipPath><g clip-path="url(#clip-184)"><g><clipPath id="clip-185"><path d="M 62.0 159.0 L 228.2 159.0 L 228.2 234.0 L 62.0 234.0 Z M 62.0 159.0 "></path></clipPath><g clip-path="url(#clip-185)"><text xml:space="preserve" font-family="Helvetica-Bold" font-weight="bold" font-size="26.0" fill="#FEFFFE" transform="matrix(1.00, 0.00, -0.00, -1.00, 138.0, 187.0)">4</text></g></g></g></g><g><clipPath id="clip-186"><path d="M 62.0 384.0 L 562.0 384.0 L 562.0 84.0 L 62.0 84.0 Z M 62.0 384.0 "></path></clipPath><g clip-path="url(#clip-186)"><g><clipPath id="clip-187"><path d="M 229.2 159.0 L 395.3 159.0 L 395.3 234.0 L 229.2 234.0 Z M 229.2 159.0 "></path></clipPath><g clip-path="url(#clip-187)"><text xml:space="preserve" font-family="Helvetica-Light" font-size="26.0" fill="#000000" transform="matrix(1.00, 0.00, -0.00, -1.00, 283.0, 187.0)">6</text><text xml:space="preserve" font-family="Helvetica-Light" font-size="26.0" fill="#000000" transform="matrix(1.00, 0.00, -0.00, -1.00, 297.5, 187.0)">5</text><text xml:space="preserve" font-family="Helvetica-Light" font-size="26.0" fill="#000000" transform="matrix(1.00, 0.00, -0.00, -1.00, 311.9, 187.0)">6</text><text xml:space="preserve" font-family="Helvetica-Light" font-size="26.0" fill="#000000" transform="matrix(1.00, 0.00, -0.00, -1.00, 326.4, 187.0)">0</text></g></g></g></g><g><clipPath id="clip-188"><path d="M 62.0 384.0 L 562.0 384.0 L 562.0 84.0 L 62.0 84.0 Z M 62.0 384.0 "></path></clipPath><g clip-path="url(#clip-188)"><g><clipPath id="clip-189"><path d="M 395.3 159.0 L 562.0 159.0 L 562.0 234.0 L 395.3 234.0 Z M 395.3 159.0 "></path></clipPath><g clip-path="url(#clip-189)"><text xml:space="preserve" font-family="Helvetica-Light" font-size="26.0" fill="#000000" transform="matrix(1.00, 0.00, -0.00, -1.00, 450.0, 187.0)">3</text><text xml:space="preserve" font-family="Helvetica-Light" font-size="26.0" fill="#000000" transform="matrix(1.00, 0.00, -0.00, -1.00, 464.5, 187.0)">5</text><text xml:space="preserve" font-family="Helvetica-Light" font-size="26.0" fill="#000000" transform="matrix(1.00, 0.00, -0.00, -1.00, 478.9, 187.0)">8</text><text xml:space="preserve" font-family="Helvetica-Light" font-size="26.0" fill="#000000" transform="matrix(1.00, 0.00, -0.00, -1.00, 493.4, 187.0)">7</text></g></g></g></g><g><clipPath id="clip-190"><path d="M 62.0 384.0 L 562.0 384.0 L 562.0 84.0 L 62.0 84.0 Z M 62.0 384.0 "></path></clipPath><g clip-path="url(#clip-190)"><g><clipPath id="clip-191"><path d="M 62.0 84.0 L 228.2 84.0 L 228.2 159.0 L 62.0 159.0 Z M 62.0 84.0 "></path></clipPath><g clip-path="url(#clip-191)"><text xml:space="preserve" font-family="Helvetica-Bold" font-weight="bold" font-size="26.0" fill="#FEFFFE" transform="matrix(1.00, 0.00, -0.00, -1.00, 138.0, 112.0)">6</text></g></g></g></g><g><clipPath id="clip-192"><path d="M 62.0 384.0 L 562.0 384.0 L 562.0 84.0 L 62.0 84.0 Z M 62.0 384.0 "></path></clipPath><g clip-path="url(#clip-192)"><g><clipPath id="clip-193"><path d="M 229.2 84.0 L 395.3 84.0 L 395.3 159.0 L 229.2 159.0 Z M 229.2 84.0 "></path></clipPath><g clip-path="url(#clip-193)"><text xml:space="preserve" font-family="Helvetica-Light" font-size="26.0" fill="#000000" transform="matrix(1.00, 0.00, -0.00, -1.00, 283.0, 112.0)">7</text><text xml:space="preserve" font-family="Helvetica-Light" font-size="26.0" fill="#000000" transform="matrix(1.00, 0.00, -0.00, -1.00, 297.5, 112.0)">6</text><text xml:space="preserve" font-family="Helvetica-Light" font-size="26.0" fill="#000000" transform="matrix(1.00, 0.00, -0.00, -1.00, 311.9, 112.0)">4</text><text xml:space="preserve" font-family="Helvetica-Light" font-size="26.0" fill="#000000" transform="matrix(1.00, 0.00, -0.00, -1.00, 326.4, 112.0)">5</text></g></g></g></g><g><clipPath id="clip-194"><path d="M 62.0 384.0 L 562.0 384.0 L 562.0 84.0 L 62.0 84.0 Z M 62.0 384.0 "></path></clipPath><g clip-path="url(#clip-194)"><g><clipPath id="clip-195"><path d="M 395.3 84.0 L 562.0 84.0 L 562.0 159.0 L 395.3 159.0 Z M 395.3 84.0 "></path></clipPath><g clip-path="url(#clip-195)"><text xml:space="preserve" font-family="Helvetica-Light" font-size="26.0" fill="#000000" transform="matrix(1.00, 0.00, -0.00, -1.00, 450.0, 112.0)">4</text><text xml:space="preserve" font-family="Helvetica-Light" font-size="26.0" fill="#000000" transform="matrix(1.00, 0.00, -0.00, -1.00, 464.5, 112.0)">0</text><text xml:space="preserve" font-family="Helvetica-Light" font-size="26.0" fill="#000000" transform="matrix(1.00, 0.00, -0.00, -1.00, 478.9, 112.0)">4</text><text xml:space="preserve" font-family="Helvetica-Light" font-size="26.0" fill="#000000" transform="matrix(1.00, 0.00, -0.00, -1.00, 493.4, 112.0)">4</text></g></g></g></g></g></svg>