<?xml version="1.0" encoding="UTF-8" standalone="no"?><svg xmlns="http://www.w3.org/2000/svg" xmlns:xlink="http://www.w3.org/1999/xlink" clip-rule="evenodd" stroke-miterlimit="4.00" viewBox="0 0 1024 768"><desc>SVG generated by Keynote</desc><defs></defs><g transform="matrix(1.00, 0.00, -0.00, -1.00, 0.0, 768.0)"><path d="M 0.0 768.0 L 1024.0 768.0 L 1024.0 0.0 L 0.0 0.0 Z M 0.0 768.0 " fill="#FEFFFF"></path><g><clipPath id="clip-26"><path d="M 0.0 767.0 L 1024.0 767.0 L 1024.0 1.0 L 0.0 1.0 Z M 0.0 767.0 "></path></clipPath><g clip-path="url(#clip-26)"><image xlink:href="../../0CEF461B-75A5-4EA3-86D8-15400816D1F9/assets/53CDC0A412E54AD92A25BE36EFE5ACD9.jpeg" width="1024.00" height="766.00" transform="matrix(1.00, 0.00, -0.00, -1.00, 0.0, 767.0)"></image></g></g><text xml:space="preserve" font-family="Helvetica-Light" font-size="36.0" fill="#000000" transform="matrix(1.00, 0.00, -0.00, -1.00, 20.0, 712.0)">J</text><text xml:space="preserve" font-family="Helvetica-Light" font-size="36.0" fill="#000000" transform="matrix(1.00, 0.00, -0.00, -1.00, 38.0, 712.0)">a</text><text xml:space="preserve" font-family="Helvetica-Light" font-size="36.0" fill="#000000" transform="matrix(1.00, 0.00, -0.00, -1.00, 58.0, 712.0)">y</text><text xml:space="preserve" font-family="Helvetica-Light" font-size="36.0" fill="#000000" transform="matrix(1.00, 0.00, -0.00, -1.00, 76.0, 712.0)"> </text><text xml:space="preserve" font-family="Helvetica-Light" font-size="36.0" fill="#000000" transform="matrix(1.00, 0.00, -0.00, -1.00, 86.0, 712.0)">D</text><text xml:space="preserve" font-family="Helvetica-Light" font-size="36.0" fill="#000000" transform="matrix(1.00, 0.00, -0.00, -1.00, 112.0, 712.0)">i</text><text xml:space="preserve" font-family="Helvetica-Light" font-size="36.0" fill="#000000" transform="matrix(1.00, 0.00, -0.00, -1.00, 120.0, 712.0)">m</text><text xml:space="preserve" font-family="Helvetica-Light" font-size="36.0" fill="#000000" transform="matrix(1.00, 0.00, -0.00, -1.00, 150.0, 712.0)">o</text><text xml:space="preserve" font-family="Helvetica-Light" font-size="36.0" fill="#000000" transform="matrix(1.00, 0.00, -0.00, -1.00, 170.0, 712.0)">n</text><text xml:space="preserve" font-family="Helvetica-Light" font-size="36.0" fill="#000000" transform="matrix(1.00, 0.00, -0.00, -1.00, 190.0, 712.0)">d</text><g><clipPath id="clip-27"><path d="M 7.0 639.0 L 563.0 639.0 L 563.0 386.0 L 7.0 386.0 Z M 7.4 638.7 "></path></clipPath><g clip-path="url(#clip-27)"><image xlink:href="EE093441A5BCF5EED50F457B9F4B2D54.png" width="628.00" height="332.00" transform="matrix(1.00, 0.00, -0.00, -1.00, 7.0, 718.0)"></image></g></g><image xlink:href="7B9E6270304A62ABFB75639936D35334.png" width="655.00" height="269.00" transform="matrix(1.00, 0.00, -0.00, -1.00, 376.0, 518.0)"></image></g></svg>