<?xml version="1.0" encoding="UTF-8" standalone="no"?><svg xmlns="http://www.w3.org/2000/svg" xmlns:xlink="http://www.w3.org/1999/xlink" clip-rule="evenodd" stroke-miterlimit="4.00" viewBox="0 0 1024 768"><desc>SVG generated by Keynote</desc><defs></defs><g transform="matrix(1.00, 0.00, -0.00, -1.00, 0.0, 768.0)"><path d="M 0.0 768.0 L 1024.0 768.0 L 1024.0 0.0 L 0.0 0.0 Z M 0.0 768.0 " fill="#FEFFFF"></path><text xml:space="preserve" font-family="HelveticaNeue-Bold" font-weight="bold" font-size="95.0" fill="#000000" transform="matrix(1.00, 0.00, -0.00, -1.00, 288.0, 615.0)">M</text><text xml:space="preserve" font-family="HelveticaNeue-Light" font-size="95.0" fill="#000000" transform="matrix(1.00, 0.00, -0.00, -1.00, 374.2, 615.0)">e</text><text xml:space="preserve" font-family="HelveticaNeue-Light" font-size="95.0" fill="#000000" transform="matrix(1.00, 0.00, -0.00, -1.00, 423.5, 615.0)">t</text><text xml:space="preserve" font-family="HelveticaNeue-Light" font-size="95.0" fill="#000000" transform="matrix(1.00, 0.00, -0.00, -1.00, 451.6, 615.0)">h</text><text xml:space="preserve" font-family="HelveticaNeue-Light" font-size="95.0" fill="#000000" transform="matrix(1.00, 0.00, -0.00, -1.00, 502.6, 615.0)">y</text><text xml:space="preserve" font-family="HelveticaNeue-Light" font-size="95.0" fill="#000000" transform="matrix(1.00, 0.00, -0.00, -1.00, 546.6, 615.0)">l</text><text xml:space="preserve" font-family="HelveticaNeue-Light" font-size="95.0" fill="#000000" transform="matrix(1.00, 0.00, -0.00, -1.00, 564.2, 615.0)">a</text><text xml:space="preserve" font-family="HelveticaNeue-Light" font-size="95.0" fill="#000000" transform="matrix(1.00, 0.00, -0.00, -1.00, 613.5, 615.0)">t</text><text xml:space="preserve" font-family="HelveticaNeue-Light" font-size="95.0" fill="#000000" transform="matrix(1.00, 0.00, -0.00, -1.00, 641.6, 615.0)">i</text><text xml:space="preserve" font-family="HelveticaNeue-Light" font-size="95.0" fill="#000000" transform="matrix(1.00, 0.00, -0.00, -1.00, 659.2, 615.0)">o</text><text xml:space="preserve" font-family="HelveticaNeue-Light" font-size="95.0" fill="#000000" transform="matrix(1.00, 0.00, -0.00, -1.00, 712.0, 615.0)">n</text><text xml:space="preserve" font-family="HelveticaNeue-Light" font-size="95.0" fill="#000000" transform="matrix(1.00, 0.00, -0.00, -1.00, 763.0, 615.0)"> </text><text xml:space="preserve" font-family="HelveticaNeue-Bold" font-weight="bold" font-size="95.0" fill="#000000" transform="matrix(1.00, 0.00, -0.00, -1.00, 288.0, 498.0)">E</text><text xml:space="preserve" font-family="HelveticaNeue-Light" font-size="95.0" fill="#000000" transform="matrix(1.00, 0.00, -0.00, -1.00, 349.6, 498.0)">n</text><text xml:space="preserve" font-family="HelveticaNeue-Light" font-size="95.0" fill="#000000" transform="matrix(1.00, 0.00, -0.00, -1.00, 400.6, 498.0)">h</text><text xml:space="preserve" font-family="HelveticaNeue-Light" font-size="95.0" fill="#000000" transform="matrix(1.00, 0.00, -0.00, -1.00, 451.6, 498.0)">a</text><text xml:space="preserve" font-family="HelveticaNeue-Light" font-size="95.0" fill="#000000" transform="matrix(1.00, 0.00, -0.00, -1.00, 500.9, 498.0)">n</text><text xml:space="preserve" font-family="HelveticaNeue-Light" font-size="95.0" fill="#000000" transform="matrix(1.00, 0.00, -0.00, -1.00, 551.9, 498.0)">c</text><text xml:space="preserve" font-family="HelveticaNeue-Light" font-size="95.0" fill="#000000" transform="matrix(1.00, 0.00, -0.00, -1.00, 601.2, 498.0)">e</text><text xml:space="preserve" font-family="HelveticaNeue-Light" font-size="95.0" fill="#000000" transform="matrix(1.00, 0.00, -0.00, -1.00, 650.5, 498.0)">d</text><text xml:space="preserve" font-family="HelveticaNeue-Light" font-size="95.0" fill="#000000" transform="matrix(1.00, 0.00, -0.00, -1.00, 705.1, 498.0)"> </text><text xml:space="preserve" font-family="HelveticaNeue-Bold" font-weight="bold" font-size="95.0" fill="#000000" transform="matrix(1.00, 0.00, -0.00, -1.00, 288.0, 381.0)">R</text><text xml:space="preserve" font-family="HelveticaNeue-Light" font-size="95.0" fill="#000000" transform="matrix(1.00, 0.00, -0.00, -1.00, 356.6, 381.0)">a</text><text xml:space="preserve" font-family="HelveticaNeue-Light" font-size="95.0" fill="#000000" transform="matrix(1.00, 0.00, -0.00, -1.00, 405.9, 381.0)">n</text><text xml:space="preserve" font-family="HelveticaNeue-Light" font-size="95.0" fill="#000000" transform="matrix(1.00, 0.00, -0.00, -1.00, 456.9, 381.0)">d</text><text xml:space="preserve" font-family="HelveticaNeue-Light" font-size="95.0" fill="#000000" transform="matrix(1.00, 0.00, -0.00, -1.00, 511.4, 381.0)">o</text><text xml:space="preserve" font-family="HelveticaNeue-Light" font-size="95.0" fill="#000000" transform="matrix(1.00, 0.00, -0.00, -1.00, 564.3, 381.0)">m</text><text xml:space="preserve" font-family="LucidaGrande" font-size="95.0" fill="#000000" transform="matrix(1.00, 0.00, -0.00, -1.00, 643.4, 381.0)"> </text><text xml:space="preserve" font-family="HelveticaNeue-Bold" font-weight="bold" font-size="95.0" fill="#000000" transform="matrix(1.00, 0.00, -0.00, -1.00, 288.0, 264.0)">V</text><text xml:space="preserve" font-family="HelveticaNeue-Light" font-size="95.0" fill="#000000" transform="matrix(1.00, 0.00, -0.00, -1.00, 347.9, 264.0)">a</text><text xml:space="preserve" font-family="HelveticaNeue-Light" font-size="95.0" fill="#000000" transform="matrix(1.00, 0.00, -0.00, -1.00, 397.2, 264.0)">r</text><text xml:space="preserve" font-family="HelveticaNeue-Light" font-size="95.0" fill="#000000" transform="matrix(1.00, 0.00, -0.00, -1.00, 427.1, 264.0)">i</text><text xml:space="preserve" font-family="HelveticaNeue-Light" font-size="95.0" fill="#000000" transform="matrix(1.00, 0.00, -0.00, -1.00, 444.7, 264.0)">a</text><text xml:space="preserve" font-family="HelveticaNeue-Light" font-size="95.0" fill="#000000" transform="matrix(1.00, 0.00, -0.00, -1.00, 494.0, 264.0)">t</text><text xml:space="preserve" font-family="HelveticaNeue-Light" font-size="95.0" fill="#000000" transform="matrix(1.00, 0.00, -0.00, -1.00, 522.1, 264.0)">i</text><text xml:space="preserve" font-family="HelveticaNeue-Light" font-size="95.0" fill="#000000" transform="matrix(1.00, 0.00, -0.00, -1.00, 539.7, 264.0)">o</text><text xml:space="preserve" font-family="HelveticaNeue-Light" font-size="95.0" fill="#000000" transform="matrix(1.00, 0.00, -0.00, -1.00, 592.5, 264.0)">n</text><text xml:space="preserve" font-family="HelveticaNeue-Light" font-size="95.0" fill="#000000" transform="matrix(1.00, 0.00, -0.00, -1.00, 643.5, 264.0)"> </text><text xml:space="preserve" font-family="HelveticaNeue-LightItalic" font-style="italic" font-size="95.0" fill="#000000" transform="matrix(1.00, 0.00, -0.00, -1.00, 288.0, 151.0)">t</text><text xml:space="preserve" font-family="HelveticaNeue-LightItalic" font-style="italic" font-size="95.0" fill="#000000" transform="matrix(1.00, 0.00, -0.00, -1.00, 316.1, 151.0)">h</text><text xml:space="preserve" font-family="HelveticaNeue-LightItalic" font-style="italic" font-size="95.0" fill="#000000" transform="matrix(1.00, 0.00, -0.00, -1.00, 367.1, 151.0)">e</text><text xml:space="preserve" font-family="HelveticaNeue-LightItalic" font-style="italic" font-size="95.0" fill="#000000" transform="matrix(1.00, 0.00, -0.00, -1.00, 416.4, 151.0)">o</text><text xml:space="preserve" font-family="HelveticaNeue-LightItalic" font-style="italic" font-size="95.0" fill="#000000" transform="matrix(1.00, 0.00, -0.00, -1.00, 469.3, 151.0)">r</text><text xml:space="preserve" font-family="HelveticaNeue-LightItalic" font-style="italic" font-size="95.0" fill="#000000" transform="matrix(1.00, 0.00, -0.00, -1.00, 499.2, 151.0)">y</text><text xml:space="preserve" font-family="HelveticaNeue-LightItalic" font-style="italic" font-size="95.0" fill="#000000" transform="matrix(1.00, 0.00, -0.00, -1.00, 543.2, 151.0)"> </text></g></svg>