<?xml version="1.0" encoding="UTF-8" standalone="no"?><svg xmlns="http://www.w3.org/2000/svg" xmlns:xlink="http://www.w3.org/1999/xlink" clip-rule="evenodd" stroke-miterlimit="4.00" viewBox="0 0 1024 768"><desc>SVG generated by Keynote</desc><defs></defs><g transform="matrix(1.00, 0.00, -0.00, -1.00, 0.0, 768.0)"><path d="M 0.0 768.0 L 1024.0 768.0 L 1024.0 0.0 L 0.0 0.0 Z M 0.0 768.0 " fill="#FEFFFF"></path><image xlink:href="28B451960ABA2F96324C54109AA60708.png" width="637.00" height="535.00" transform="matrix(1.19, 0.00, -0.00, -1.19, 25.0, 753.0)"></image><image xlink:href="F0824FCEEA247B470E4F72D498DDCCB2.png" width="626.00" height="81.00" transform="matrix(1.00, 0.00, -0.00, -1.00, 358.0, 107.0)"></image><text xml:space="preserve" font-family="GillSans" font-size="42.0" fill="#C0C0C0" transform="matrix(1.00, 0.00, -0.00, -1.00, 109.0, 43.0)">m</text><text xml:space="preserve" font-family="GillSans" font-size="42.0" fill="#C0C0C0" transform="matrix(1.00, 0.00, -0.00, -1.00, 141.4, 43.0)">o</text><text xml:space="preserve" font-family="GillSans" font-size="42.0" fill="#C0C0C0" transform="matrix(1.00, 0.00, -0.00, -1.00, 164.5, 43.0)">d</text><text xml:space="preserve" font-family="GillSans" font-size="42.0" fill="#C0C0C0" transform="matrix(1.00, 0.00, -0.00, -1.00, 185.9, 43.0)">i</text><text xml:space="preserve" font-family="GillSans" font-size="42.0" fill="#C0C0C0" transform="matrix(1.00, 0.00, -0.00, -1.00, 195.2, 43.0)">ï¬</text><text xml:space="preserve" font-family="GillSans" font-size="42.0" fill="#C0C0C0" transform="matrix(1.00, 0.00, -0.00, -1.00, 216.2, 43.0)">e</text><text xml:space="preserve" font-family="GillSans" font-size="42.0" fill="#C0C0C0" transform="matrix(1.00, 0.00, -0.00, -1.00, 236.3, 43.0)">d</text><text xml:space="preserve" font-family="GillSans" font-size="42.0" fill="#C0C0C0" transform="matrix(1.00, 0.00, -0.00, -1.00, 257.7, 43.0)"> </text><text xml:space="preserve" font-family="GillSans" font-size="42.0" fill="#C0C0C0" transform="matrix(1.00, 0.00, -0.00, -1.00, 269.3, 43.0)">f</text><text xml:space="preserve" font-family="GillSans" font-size="42.0" fill="#C0C0C0" transform="matrix(1.00, 0.00, -0.00, -1.00, 279.8, 43.0)">r</text><text xml:space="preserve" font-family="GillSans" font-size="42.0" fill="#C0C0C0" transform="matrix(1.00, 0.00, -0.00, -1.00, 295.4, 43.0)">o</text><text xml:space="preserve" font-family="GillSans" font-size="42.0" fill="#C0C0C0" transform="matrix(1.00, 0.00, -0.00, -1.00, 318.6, 43.0)">m</text><image xlink:href="DD03372A1604D5C796BFD0B8486B0680.png" width="170.00" height="40.00" transform="matrix(1.00, 0.00, -0.00, -1.00, 772.0, 77.0)"></image></g></svg>