<?xml version="1.0" encoding="UTF-8" standalone="no"?><svg xmlns="http://www.w3.org/2000/svg" xmlns:xlink="http://www.w3.org/1999/xlink" clip-rule="evenodd" stroke-miterlimit="4.00" viewBox="0 0 1024 768"><desc>SVG generated by Keynote</desc><defs></defs><g transform="matrix(1.00, 0.00, -0.00, -1.00, 0.0, 768.0)"><path d="M 0.0 768.0 L 1024.0 768.0 L 1024.0 0.0 L 0.0 0.0 Z M 0.0 768.0 " fill="#FEFFFF"></path><image xlink:href="../../632996A8-4462-4E17-A896-B4D282946B5A/assets/2502C76644254F55C5F5498D0C5DB16E.png" width="115.00" height="61.00" transform="matrix(1.22, 0.00, -0.00, -1.21, 45.0, 730.0)"></image><text xml:space="preserve" font-family="Helvetica-Bold" font-weight="bold" font-size="50.0" fill="#000000" transform="matrix(1.00, 0.00, -0.00, -1.00, 188.0, 675.0)">S</text><text xml:space="preserve" font-family="Helvetica-Bold" font-weight="bold" font-size="50.0" fill="#000000" transform="matrix(1.00, 0.00, -0.00, -1.00, 221.3, 675.0)">u</text><text xml:space="preserve" font-family="Helvetica-Bold" font-weight="bold" font-size="50.0" fill="#000000" transform="matrix(1.00, 0.00, -0.00, -1.00, 251.9, 675.0)">m</text><text xml:space="preserve" font-family="Helvetica-Bold" font-weight="bold" font-size="50.0" fill="#000000" transform="matrix(1.00, 0.00, -0.00, -1.00, 296.3, 675.0)">m</text><text xml:space="preserve" font-family="Helvetica-Bold" font-weight="bold" font-size="50.0" fill="#000000" transform="matrix(1.00, 0.00, -0.00, -1.00, 340.8, 675.0)">a</text><text xml:space="preserve" font-family="Helvetica-Bold" font-weight="bold" font-size="50.0" fill="#000000" transform="matrix(1.00, 0.00, -0.00, -1.00, 368.6, 675.0)">r</text><text xml:space="preserve" font-family="Helvetica-Bold" font-weight="bold" font-size="50.0" fill="#000000" transform="matrix(1.00, 0.00, -0.00, -1.00, 388.1, 675.0)">y</text><text xml:space="preserve" font-family="Helvetica" font-size="51.2" fill="#000000" transform="matrix(1.00, 0.00, -0.00, -1.00, 43.5, 504.1)">•</text><text xml:space="preserve" font-family="Helvetica" font-size="41.0" fill="#000000" transform="matrix(1.00, 0.00, -0.00, -1.00, 61.0, 508.0)"> </text><text xml:space="preserve" font-family="Helvetica" font-size="41.0" fill="#000000" transform="matrix(1.00, 0.00, -0.00, -1.00, 72.4, 508.0)">S</text><text xml:space="preserve" font-family="Helvetica" font-size="41.0" fill="#000000" transform="matrix(1.00, 0.00, -0.00, -1.00, 99.7, 508.0)">p</text><text xml:space="preserve" font-family="Helvetica" font-size="41.0" fill="#000000" transform="matrix(1.00, 0.00, -0.00, -1.00, 122.5, 508.0)">a</text><text xml:space="preserve" font-family="Helvetica" font-size="41.0" fill="#000000" transform="matrix(1.00, 0.00, -0.00, -1.00, 145.4, 508.0)">r</text><text xml:space="preserve" font-family="Helvetica" font-size="41.0" fill="#000000" transform="matrix(1.00, 0.00, -0.00, -1.00, 159.0, 508.0)">s</text><text xml:space="preserve" font-family="Helvetica" font-size="41.0" fill="#000000" transform="matrix(1.00, 0.00, -0.00, -1.00, 179.5, 508.0)">e</text><text xml:space="preserve" font-family="Helvetica" font-size="41.0" fill="#000000" transform="matrix(1.00, 0.00, -0.00, -1.00, 202.3, 508.0)">l</text><text xml:space="preserve" font-family="Helvetica" font-size="41.0" fill="#000000" transform="matrix(1.00, 0.00, -0.00, -1.00, 211.4, 508.0)">y</text><text xml:space="preserve" font-family="Helvetica" font-size="41.0" fill="#000000" transform="matrix(1.00, 0.00, -0.00, -1.00, 231.9, 508.0)"> </text><text xml:space="preserve" font-family="Helvetica" font-size="41.0" fill="#000000" transform="matrix(1.00, 0.00, -0.00, -1.00, 243.3, 508.0)">(</text><text xml:space="preserve" font-family="Helvetica" font-size="41.0" fill="#000000" transform="matrix(1.00, 0.00, -0.00, -1.00, 257.0, 508.0)">~</text><text xml:space="preserve" font-family="Helvetica" font-size="41.0" fill="#000000" transform="matrix(1.00, 0.00, -0.00, -1.00, 280.9, 508.0)">1</text><text xml:space="preserve" font-family="Helvetica" font-size="41.0" fill="#000000" transform="matrix(1.00, 0.00, -0.00, -1.00, 303.7, 508.0)">6</text><text xml:space="preserve" font-family="Helvetica" font-size="41.0" fill="#000000" transform="matrix(1.00, 0.00, -0.00, -1.00, 326.5, 508.0)"> </text><text xml:space="preserve" font-family="Helvetica" font-size="41.0" fill="#000000" transform="matrix(1.00, 0.00, -0.00, -1.00, 337.9, 508.0)">%</text><text xml:space="preserve" font-family="Helvetica" font-size="41.0" fill="#000000" transform="matrix(1.00, 0.00, -0.00, -1.00, 374.4, 508.0)">)</text><text xml:space="preserve" font-family="Helvetica" font-size="41.0" fill="#000000" transform="matrix(1.00, 0.00, -0.00, -1.00, 388.0, 508.0)">,</text><text xml:space="preserve" font-family="Helvetica" font-size="41.0" fill="#000000" transform="matrix(1.00, 0.00, -0.00, -1.00, 399.4, 508.0)"> </text><text xml:space="preserve" font-family="Helvetica" font-size="41.0" fill="#000000" transform="matrix(1.00, 0.00, -0.00, -1.00, 410.8, 508.0)">m</text><text xml:space="preserve" font-family="Helvetica" font-size="41.0" fill="#000000" transform="matrix(1.00, 0.00, -0.00, -1.00, 445.0, 508.0)">o</text><text xml:space="preserve" font-family="Helvetica" font-size="41.0" fill="#000000" transform="matrix(1.00, 0.00, -0.00, -1.00, 467.8, 508.0)">s</text><text xml:space="preserve" font-family="Helvetica" font-size="41.0" fill="#000000" transform="matrix(1.00, 0.00, -0.00, -1.00, 488.3, 508.0)">a</text><text xml:space="preserve" font-family="Helvetica" font-size="41.0" fill="#000000" transform="matrix(1.00, 0.00, -0.00, -1.00, 511.1, 508.0)">i</text><text xml:space="preserve" font-family="Helvetica" font-size="41.0" fill="#000000" transform="matrix(1.00, 0.00, -0.00, -1.00, 520.2, 508.0)">c</text><text xml:space="preserve" font-family="Helvetica" font-size="41.0" fill="#000000" transform="matrix(1.00, 0.00, -0.00, -1.00, 540.6, 508.0)"> </text><text xml:space="preserve" font-family="Helvetica" font-size="41.0" fill="#000000" transform="matrix(1.00, 0.00, -0.00, -1.00, 552.0, 508.0)">m</text><text xml:space="preserve" font-family="Helvetica" font-size="41.0" fill="#000000" transform="matrix(1.00, 0.00, -0.00, -1.00, 586.2, 508.0)">e</text><text xml:space="preserve" font-family="Helvetica" font-size="41.0" fill="#000000" transform="matrix(1.00, 0.00, -0.00, -1.00, 609.0, 508.0)">t</text><text xml:space="preserve" font-family="Helvetica" font-size="41.0" fill="#000000" transform="matrix(1.00, 0.00, -0.00, -1.00, 620.4, 508.0)">h</text><text xml:space="preserve" font-family="Helvetica" font-size="41.0" fill="#000000" transform="matrix(1.00, 0.00, -0.00, -1.00, 643.2, 508.0)">y</text><text xml:space="preserve" font-family="Helvetica" font-size="41.0" fill="#000000" transform="matrix(1.00, 0.00, -0.00, -1.00, 663.7, 508.0)">l</text><text xml:space="preserve" font-family="Helvetica" font-size="41.0" fill="#000000" transform="matrix(1.00, 0.00, -0.00, -1.00, 672.8, 508.0)">a</text><text xml:space="preserve" font-family="Helvetica" font-size="41.0" fill="#000000" transform="matrix(1.00, 0.00, -0.00, -1.00, 695.6, 508.0)">t</text><text xml:space="preserve" font-family="Helvetica" font-size="41.0" fill="#000000" transform="matrix(1.00, 0.00, -0.00, -1.00, 707.0, 508.0)">e</text><text xml:space="preserve" font-family="Helvetica" font-size="41.0" fill="#000000" transform="matrix(1.00, 0.00, -0.00, -1.00, 729.8, 508.0)">d</text><text xml:space="preserve" font-family="Helvetica" font-size="41.0" fill="#000000" transform="matrix(1.00, 0.00, -0.00, -1.00, 752.6, 508.0)"> </text><text xml:space="preserve" font-family="Helvetica" font-size="41.0" fill="#000000" transform="matrix(1.00, 0.00, -0.00, -1.00, 764.0, 508.0)">g</text><text xml:space="preserve" font-family="Helvetica" font-size="41.0" fill="#000000" transform="matrix(1.00, 0.00, -0.00, -1.00, 786.8, 508.0)">e</text><text xml:space="preserve" font-family="Helvetica" font-size="41.0" fill="#000000" transform="matrix(1.00, 0.00, -0.00, -1.00, 809.6, 508.0)">n</text><text xml:space="preserve" font-family="Helvetica" font-size="41.0" fill="#000000" transform="matrix(1.00, 0.00, -0.00, -1.00, 832.4, 508.0)">o</text><text xml:space="preserve" font-family="Helvetica" font-size="41.0" fill="#000000" transform="matrix(1.00, 0.00, -0.00, -1.00, 855.2, 508.0)">m</text><text xml:space="preserve" font-family="Helvetica" font-size="41.0" fill="#000000" transform="matrix(1.00, 0.00, -0.00, -1.00, 889.4, 508.0)">e</text><text xml:space="preserve" font-family="Helvetica" font-size="41.0" fill="#000000" transform="matrix(1.00, 0.00, -0.00, -1.00, 912.2, 508.0)"> </text><text xml:space="preserve" font-family="Helvetica" font-size="51.2" fill="#000000" transform="matrix(1.00, 0.00, -0.00, -1.00, 43.5, 406.1)">•</text><text xml:space="preserve" font-family="Helvetica" font-size="41.0" fill="#000000" transform="matrix(1.00, 0.00, -0.00, -1.00, 61.0, 410.0)"> </text><text xml:space="preserve" font-family="Helvetica" font-size="41.0" fill="#000000" transform="matrix(1.00, 0.00, -0.00, -1.00, 72.4, 410.0)">G</text><text xml:space="preserve" font-family="Helvetica" font-size="41.0" fill="#000000" transform="matrix(1.00, 0.00, -0.00, -1.00, 104.3, 410.0)">e</text><text xml:space="preserve" font-family="Helvetica" font-size="41.0" fill="#000000" transform="matrix(1.00, 0.00, -0.00, -1.00, 127.1, 410.0)">n</text><text xml:space="preserve" font-family="Helvetica" font-size="41.0" fill="#000000" transform="matrix(1.00, 0.00, -0.00, -1.00, 149.9, 410.0)">e</text><text xml:space="preserve" font-family="Helvetica" font-size="41.0" fill="#000000" transform="matrix(1.00, 0.00, -0.00, -1.00, 172.7, 410.0)"> </text><text xml:space="preserve" font-family="Helvetica" font-size="41.0" fill="#000000" transform="matrix(1.00, 0.00, -0.00, -1.00, 184.1, 410.0)">b</text><text xml:space="preserve" font-family="Helvetica" font-size="41.0" fill="#000000" transform="matrix(1.00, 0.00, -0.00, -1.00, 206.9, 410.0)">o</text><text xml:space="preserve" font-family="Helvetica" font-size="41.0" fill="#000000" transform="matrix(1.00, 0.00, -0.00, -1.00, 229.7, 410.0)">d</text><text xml:space="preserve" font-family="Helvetica" font-size="41.0" fill="#000000" transform="matrix(1.00, 0.00, -0.00, -1.00, 252.5, 410.0)">y</text><text xml:space="preserve" font-family="Helvetica" font-size="41.0" fill="#000000" transform="matrix(1.00, 0.00, -0.00, -1.00, 273.0, 410.0)"> </text><text xml:space="preserve" font-family="Helvetica" font-size="41.0" fill="#000000" transform="matrix(1.00, 0.00, -0.00, -1.00, 284.4, 410.0)">m</text><text xml:space="preserve" font-family="Helvetica" font-size="41.0" fill="#000000" transform="matrix(1.00, 0.00, -0.00, -1.00, 318.5, 410.0)">e</text><text xml:space="preserve" font-family="Helvetica" font-size="41.0" fill="#000000" transform="matrix(1.00, 0.00, -0.00, -1.00, 341.4, 410.0)">t</text><text xml:space="preserve" font-family="Helvetica" font-size="41.0" fill="#000000" transform="matrix(1.00, 0.00, -0.00, -1.00, 352.7, 410.0)">h</text><text xml:space="preserve" font-family="Helvetica" font-size="41.0" fill="#000000" transform="matrix(1.00, 0.00, -0.00, -1.00, 375.6, 410.0)">y</text><text xml:space="preserve" font-family="Helvetica" font-size="41.0" fill="#000000" transform="matrix(1.00, 0.00, -0.00, -1.00, 396.1, 410.0)">l</text><text xml:space="preserve" font-family="Helvetica" font-size="41.0" fill="#000000" transform="matrix(1.00, 0.00, -0.00, -1.00, 405.2, 410.0)">a</text><text xml:space="preserve" font-family="Helvetica" font-size="41.0" fill="#000000" transform="matrix(1.00, 0.00, -0.00, -1.00, 428.0, 410.0)">t</text><text xml:space="preserve" font-family="Helvetica" font-size="41.0" fill="#000000" transform="matrix(1.00, 0.00, -0.00, -1.00, 439.4, 410.0)">i</text><text xml:space="preserve" font-family="Helvetica" font-size="41.0" fill="#000000" transform="matrix(1.00, 0.00, -0.00, -1.00, 448.5, 410.0)">o</text><text xml:space="preserve" font-family="Helvetica" font-size="41.0" fill="#000000" transform="matrix(1.00, 0.00, -0.00, -1.00, 471.3, 410.0)">n</text><text xml:space="preserve" font-family="Helvetica" font-size="41.0" fill="#000000" transform="matrix(1.00, 0.00, -0.00, -1.00, 494.1, 410.0)"> </text><text xml:space="preserve" font-family="Helvetica" font-size="41.0" fill="#000000" transform="matrix(1.00, 0.00, -0.00, -1.00, 505.5, 410.0)">c</text><text xml:space="preserve" font-family="Helvetica" font-size="41.0" fill="#000000" transform="matrix(1.00, 0.00, -0.00, -1.00, 526.0, 410.0)">o</text><text xml:space="preserve" font-family="Helvetica" font-size="41.0" fill="#000000" transform="matrix(1.00, 0.00, -0.00, -1.00, 548.8, 410.0)">r</text><text xml:space="preserve" font-family="Helvetica" font-size="41.0" fill="#000000" transform="matrix(1.00, 0.00, -0.00, -1.00, 562.4, 410.0)">r</text><text xml:space="preserve" font-family="Helvetica" font-size="41.0" fill="#000000" transform="matrix(1.00, 0.00, -0.00, -1.00, 576.1, 410.0)">e</text><text xml:space="preserve" font-family="Helvetica" font-size="41.0" fill="#000000" transform="matrix(1.00, 0.00, -0.00, -1.00, 598.9, 410.0)">l</text><text xml:space="preserve" font-family="Helvetica" font-size="41.0" fill="#000000" transform="matrix(1.00, 0.00, -0.00, -1.00, 608.0, 410.0)">a</text><text xml:space="preserve" font-family="Helvetica" font-size="41.0" fill="#000000" transform="matrix(1.00, 0.00, -0.00, -1.00, 630.8, 410.0)">t</text><text xml:space="preserve" font-family="Helvetica" font-size="41.0" fill="#000000" transform="matrix(1.00, 0.00, -0.00, -1.00, 642.2, 410.0)">e</text><text xml:space="preserve" font-family="Helvetica" font-size="41.0" fill="#000000" transform="matrix(1.00, 0.00, -0.00, -1.00, 665.0, 410.0)">d</text><text xml:space="preserve" font-family="Helvetica" font-size="41.0" fill="#000000" transform="matrix(1.00, 0.00, -0.00, -1.00, 687.8, 410.0)"> </text><text xml:space="preserve" font-family="Helvetica" font-size="41.0" fill="#000000" transform="matrix(1.00, 0.00, -0.00, -1.00, 699.2, 410.0)">w</text><text xml:space="preserve" font-family="Helvetica" font-size="41.0" fill="#000000" transform="matrix(1.00, 0.00, -0.00, -1.00, 728.8, 410.0)">i</text><text xml:space="preserve" font-family="Helvetica" font-size="41.0" fill="#000000" transform="matrix(1.00, 0.00, -0.00, -1.00, 738.0, 410.0)">t</text><text xml:space="preserve" font-family="Helvetica" font-size="41.0" fill="#000000" transform="matrix(1.00, 0.00, -0.00, -1.00, 749.3, 410.0)">h</text><text xml:space="preserve" font-family="Helvetica" font-size="41.0" fill="#000000" transform="matrix(1.00, 0.00, -0.00, -1.00, 772.2, 410.0)"> </text><text xml:space="preserve" font-family="Helvetica" font-size="41.0" fill="#000000" transform="matrix(1.00, 0.00, -0.00, -1.00, 783.5, 410.0)">f</text><text xml:space="preserve" font-family="Helvetica" font-size="41.0" fill="#000000" transform="matrix(1.00, 0.00, -0.00, -1.00, 794.9, 410.0)">u</text><text xml:space="preserve" font-family="Helvetica" font-size="41.0" fill="#000000" transform="matrix(1.00, 0.00, -0.00, -1.00, 817.7, 410.0)">n</text><text xml:space="preserve" font-family="Helvetica" font-size="41.0" fill="#000000" transform="matrix(1.00, 0.00, -0.00, -1.00, 840.5, 410.0)">c</text><text xml:space="preserve" font-family="Helvetica" font-size="41.0" fill="#000000" transform="matrix(1.00, 0.00, -0.00, -1.00, 861.0, 410.0)">t</text><text xml:space="preserve" font-family="Helvetica" font-size="41.0" fill="#000000" transform="matrix(1.00, 0.00, -0.00, -1.00, 872.4, 410.0)">i</text><text xml:space="preserve" font-family="Helvetica" font-size="41.0" fill="#000000" transform="matrix(1.00, 0.00, -0.00, -1.00, 881.5, 410.0)">o</text><text xml:space="preserve" font-family="Helvetica" font-size="41.0" fill="#000000" transform="matrix(1.00, 0.00, -0.00, -1.00, 904.3, 410.0)">n</text><text xml:space="preserve" font-family="Helvetica" font-size="41.0" fill="#000000" transform="matrix(1.00, 0.00, -0.00, -1.00, 927.0, 410.0)"> </text><text xml:space="preserve" font-family="Helvetica" font-size="51.2" fill="#000000" transform="matrix(1.00, 0.00, -0.00, -1.00, 43.5, 308.1)">•</text><text xml:space="preserve" font-family="Helvetica" font-size="41.0" fill="#000000" transform="matrix(1.00, 0.00, -0.00, -1.00, 61.0, 312.0)"> </text><text xml:space="preserve" font-family="Helvetica" font-size="41.0" fill="#000000" transform="matrix(1.00, 0.00, -0.00, -1.00, 72.4, 312.0)">D</text><text xml:space="preserve" font-family="Helvetica" font-size="41.0" fill="#000000" transform="matrix(1.00, 0.00, -0.00, -1.00, 102.0, 312.0)">N</text><text xml:space="preserve" font-family="Helvetica" font-size="41.0" fill="#000000" transform="matrix(1.00, 0.00, -0.00, -1.00, 131.6, 312.0)">A</text><text xml:space="preserve" font-family="Helvetica" font-size="41.0" fill="#000000" transform="matrix(1.00, 0.00, -0.00, -1.00, 156.7, 312.0)"> </text><text xml:space="preserve" font-family="Helvetica" font-size="41.0" fill="#000000" transform="matrix(1.00, 0.00, -0.00, -1.00, 168.1, 312.0)">m</text><text xml:space="preserve" font-family="Helvetica" font-size="41.0" fill="#000000" transform="matrix(1.00, 0.00, -0.00, -1.00, 202.3, 312.0)">e</text><text xml:space="preserve" font-family="Helvetica" font-size="41.0" fill="#000000" transform="matrix(1.00, 0.00, -0.00, -1.00, 225.1, 312.0)">t</text><text xml:space="preserve" font-family="Helvetica" font-size="41.0" fill="#000000" transform="matrix(1.00, 0.00, -0.00, -1.00, 236.5, 312.0)">h</text><text xml:space="preserve" font-family="Helvetica" font-size="41.0" fill="#000000" transform="matrix(1.00, 0.00, -0.00, -1.00, 259.3, 312.0)">y</text><text xml:space="preserve" font-family="Helvetica" font-size="41.0" fill="#000000" transform="matrix(1.00, 0.00, -0.00, -1.00, 279.8, 312.0)">l</text><text xml:space="preserve" font-family="Helvetica" font-size="41.0" fill="#000000" transform="matrix(1.00, 0.00, -0.00, -1.00, 288.9, 312.0)">a</text><text xml:space="preserve" font-family="Helvetica" font-size="41.0" fill="#000000" transform="matrix(1.00, 0.00, -0.00, -1.00, 311.7, 312.0)">t</text><text xml:space="preserve" font-family="Helvetica" font-size="41.0" fill="#000000" transform="matrix(1.00, 0.00, -0.00, -1.00, 323.1, 312.0)">i</text><text xml:space="preserve" font-family="Helvetica" font-size="41.0" fill="#000000" transform="matrix(1.00, 0.00, -0.00, -1.00, 332.2, 312.0)">o</text><text xml:space="preserve" font-family="Helvetica" font-size="41.0" fill="#000000" transform="matrix(1.00, 0.00, -0.00, -1.00, 355.0, 312.0)">n</text><text xml:space="preserve" font-family="Helvetica" font-size="41.0" fill="#000000" transform="matrix(1.00, 0.00, -0.00, -1.00, 377.8, 312.0)"> </text><text xml:space="preserve" font-family="Helvetica" font-size="41.0" fill="#000000" transform="matrix(1.00, 0.00, -0.00, -1.00, 389.2, 312.0)">p</text><text xml:space="preserve" font-family="Helvetica" font-size="41.0" fill="#000000" transform="matrix(1.00, 0.00, -0.00, -1.00, 412.0, 312.0)">a</text><text xml:space="preserve" font-family="Helvetica" font-size="41.0" fill="#000000" transform="matrix(1.00, 0.00, -0.00, -1.00, 434.8, 312.0)">t</text><text xml:space="preserve" font-family="Helvetica" font-size="41.0" fill="#000000" transform="matrix(1.00, 0.00, -0.00, -1.00, 446.2, 312.0)">t</text><text xml:space="preserve" font-family="Helvetica" font-size="41.0" fill="#000000" transform="matrix(1.00, 0.00, -0.00, -1.00, 457.6, 312.0)">e</text><text xml:space="preserve" font-family="Helvetica" font-size="41.0" fill="#000000" transform="matrix(1.00, 0.00, -0.00, -1.00, 480.4, 312.0)">r</text><text xml:space="preserve" font-family="Helvetica" font-size="41.0" fill="#000000" transform="matrix(1.00, 0.00, -0.00, -1.00, 494.0, 312.0)">n</text><text xml:space="preserve" font-family="Helvetica" font-size="41.0" fill="#000000" transform="matrix(1.00, 0.00, -0.00, -1.00, 516.9, 312.0)">s</text><text xml:space="preserve" font-family="Helvetica" font-size="41.0" fill="#000000" transform="matrix(1.00, 0.00, -0.00, -1.00, 537.4, 312.0)"> </text><text xml:space="preserve" font-family="Helvetica" font-size="41.0" fill="#000000" transform="matrix(1.00, 0.00, -0.00, -1.00, 548.7, 312.0)">a</text><text xml:space="preserve" font-family="Helvetica" font-size="41.0" fill="#000000" transform="matrix(1.00, 0.00, -0.00, -1.00, 571.5, 312.0)">r</text><text xml:space="preserve" font-family="Helvetica" font-size="41.0" fill="#000000" transform="matrix(1.00, 0.00, -0.00, -1.00, 585.2, 312.0)">e</text><text xml:space="preserve" font-family="Helvetica" font-size="41.0" fill="#000000" transform="matrix(1.00, 0.00, -0.00, -1.00, 608.0, 312.0)"> </text><text xml:space="preserve" font-family="Helvetica" font-size="41.0" fill="#000000" transform="matrix(1.00, 0.00, -0.00, -1.00, 619.4, 312.0)">i</text><text xml:space="preserve" font-family="Helvetica" font-size="41.0" fill="#000000" transform="matrix(1.00, 0.00, -0.00, -1.00, 628.5, 312.0)">n</text><text xml:space="preserve" font-family="Helvetica" font-size="41.0" fill="#000000" transform="matrix(1.00, 0.00, -0.00, -1.00, 651.3, 312.0)">h</text><text xml:space="preserve" font-family="Helvetica" font-size="41.0" fill="#000000" transform="matrix(1.00, 0.00, -0.00, -1.00, 674.1, 312.0)">e</text><text xml:space="preserve" font-family="Helvetica" font-size="41.0" fill="#000000" transform="matrix(1.00, 0.00, -0.00, -1.00, 696.9, 312.0)">r</text><text xml:space="preserve" font-family="Helvetica" font-size="41.0" fill="#000000" transform="matrix(1.00, 0.00, -0.00, -1.00, 710.6, 312.0)">i</text><text xml:space="preserve" font-family="Helvetica" font-size="41.0" fill="#000000" transform="matrix(1.00, 0.00, -0.00, -1.00, 719.7, 312.0)">t</text><text xml:space="preserve" font-family="Helvetica" font-size="41.0" fill="#000000" transform="matrix(1.00, 0.00, -0.00, -1.00, 731.1, 312.0)">e</text><text xml:space="preserve" font-family="Helvetica" font-size="41.0" fill="#000000" transform="matrix(1.00, 0.00, -0.00, -1.00, 753.9, 312.0)">d</text><text xml:space="preserve" font-family="Helvetica" font-size="51.2" fill="#000000" transform="matrix(1.00, 0.00, -0.00, -1.00, 43.5, 210.1)">•</text><text xml:space="preserve" font-family="Helvetica" font-size="41.0" fill="#000000" transform="matrix(1.00, 0.00, -0.00, -1.00, 61.0, 214.0)"> </text><text xml:space="preserve" font-family="Helvetica" font-size="41.0" fill="#000000" transform="matrix(1.00, 0.00, -0.00, -1.00, 72.4, 214.0)">D</text><text xml:space="preserve" font-family="Helvetica" font-size="41.0" fill="#000000" transform="matrix(1.00, 0.00, -0.00, -1.00, 102.0, 214.0)">M</text><text xml:space="preserve" font-family="Helvetica" font-size="41.0" fill="#000000" transform="matrix(1.00, 0.00, -0.00, -1.00, 136.2, 214.0)">R</text><text xml:space="preserve" font-family="Helvetica" font-size="41.0" fill="#000000" transform="matrix(1.00, 0.00, -0.00, -1.00, 165.8, 214.0)">s</text><text xml:space="preserve" font-family="Helvetica" font-size="41.0" fill="#000000" transform="matrix(1.00, 0.00, -0.00, -1.00, 186.3, 214.0)"> </text><text xml:space="preserve" font-family="Helvetica" font-size="41.0" fill="#000000" transform="matrix(1.00, 0.00, -0.00, -1.00, 197.7, 214.0)">a</text><text xml:space="preserve" font-family="Helvetica" font-size="41.0" fill="#000000" transform="matrix(1.00, 0.00, -0.00, -1.00, 220.5, 214.0)">r</text><text xml:space="preserve" font-family="Helvetica" font-size="41.0" fill="#000000" transform="matrix(1.00, 0.00, -0.00, -1.00, 234.1, 214.0)">e</text><text xml:space="preserve" font-family="Helvetica" font-size="41.0" fill="#000000" transform="matrix(1.00, 0.00, -0.00, -1.00, 256.9, 214.0)"> </text><text xml:space="preserve" font-family="Helvetica" font-size="41.0" fill="#000000" transform="matrix(1.00, 0.00, -0.00, -1.00, 268.3, 214.0)">p</text><text xml:space="preserve" font-family="Helvetica" font-size="41.0" fill="#000000" transform="matrix(1.00, 0.00, -0.00, -1.00, 291.1, 214.0)">r</text><text xml:space="preserve" font-family="Helvetica" font-size="41.0" fill="#000000" transform="matrix(1.00, 0.00, -0.00, -1.00, 304.8, 214.0)">e</text><text xml:space="preserve" font-family="Helvetica" font-size="41.0" fill="#000000" transform="matrix(1.00, 0.00, -0.00, -1.00, 327.6, 214.0)">d</text><text xml:space="preserve" font-family="Helvetica" font-size="41.0" fill="#000000" transform="matrix(1.00, 0.00, -0.00, -1.00, 350.4, 214.0)">o</text><text xml:space="preserve" font-family="Helvetica" font-size="41.0" fill="#000000" transform="matrix(1.00, 0.00, -0.00, -1.00, 373.2, 214.0)">m</text><text xml:space="preserve" font-family="Helvetica" font-size="41.0" fill="#000000" transform="matrix(1.00, 0.00, -0.00, -1.00, 407.4, 214.0)">i</text><text xml:space="preserve" font-family="Helvetica" font-size="41.0" fill="#000000" transform="matrix(1.00, 0.00, -0.00, -1.00, 416.5, 214.0)">n</text><text xml:space="preserve" font-family="Helvetica" font-size="41.0" fill="#000000" transform="matrix(1.00, 0.00, -0.00, -1.00, 439.3, 214.0)">a</text><text xml:space="preserve" font-family="Helvetica" font-size="41.0" fill="#000000" transform="matrix(1.00, 0.00, -0.00, -1.00, 462.1, 214.0)">n</text><text xml:space="preserve" font-family="Helvetica" font-size="41.0" fill="#000000" transform="matrix(1.00, 0.00, -0.00, -1.00, 484.9, 214.0)">t</text><text xml:space="preserve" font-family="Helvetica" font-size="41.0" fill="#000000" transform="matrix(1.00, 0.00, -0.00, -1.00, 496.3, 214.0)"> </text><text xml:space="preserve" font-family="Helvetica" font-size="41.0" fill="#000000" transform="matrix(1.00, 0.00, -0.00, -1.00, 507.7, 214.0)">i</text><text xml:space="preserve" font-family="Helvetica" font-size="41.0" fill="#000000" transform="matrix(1.00, 0.00, -0.00, -1.00, 516.8, 214.0)">n</text><text xml:space="preserve" font-family="Helvetica" font-size="41.0" fill="#000000" transform="matrix(1.00, 0.00, -0.00, -1.00, 539.6, 214.0)"> </text><text xml:space="preserve" font-family="Helvetica" font-size="41.0" fill="#000000" transform="matrix(1.00, 0.00, -0.00, -1.00, 551.0, 214.0)">t</text><text xml:space="preserve" font-family="Helvetica" font-size="41.0" fill="#000000" transform="matrix(1.00, 0.00, -0.00, -1.00, 562.4, 214.0)">r</text><text xml:space="preserve" font-family="Helvetica" font-size="41.0" fill="#000000" transform="matrix(1.00, 0.00, -0.00, -1.00, 576.0, 214.0)">a</text><text xml:space="preserve" font-family="Helvetica" font-size="41.0" fill="#000000" transform="matrix(1.00, 0.00, -0.00, -1.00, 598.8, 214.0)">n</text><text xml:space="preserve" font-family="Helvetica" font-size="41.0" fill="#000000" transform="matrix(1.00, 0.00, -0.00, -1.00, 621.6, 214.0)">s</text><text xml:space="preserve" font-family="Helvetica" font-size="41.0" fill="#000000" transform="matrix(1.00, 0.00, -0.00, -1.00, 642.1, 214.0)">p</text><text xml:space="preserve" font-family="Helvetica" font-size="41.0" fill="#000000" transform="matrix(1.00, 0.00, -0.00, -1.00, 665.0, 214.0)">o</text><text xml:space="preserve" font-family="Helvetica" font-size="41.0" fill="#000000" transform="matrix(1.00, 0.00, -0.00, -1.00, 687.8, 214.0)">s</text><text xml:space="preserve" font-family="Helvetica" font-size="41.0" fill="#000000" transform="matrix(1.00, 0.00, -0.00, -1.00, 708.3, 214.0)">a</text><text xml:space="preserve" font-family="Helvetica" font-size="41.0" fill="#000000" transform="matrix(1.00, 0.00, -0.00, -1.00, 731.1, 214.0)">b</text><text xml:space="preserve" font-family="Helvetica" font-size="41.0" fill="#000000" transform="matrix(1.00, 0.00, -0.00, -1.00, 753.9, 214.0)">l</text><text xml:space="preserve" font-family="Helvetica" font-size="41.0" fill="#000000" transform="matrix(1.00, 0.00, -0.00, -1.00, 763.0, 214.0)">e</text><text xml:space="preserve" font-family="Helvetica" font-size="41.0" fill="#000000" transform="matrix(1.00, 0.00, -0.00, -1.00, 785.8, 214.0)"> </text><text xml:space="preserve" font-family="Helvetica" font-size="41.0" fill="#000000" transform="matrix(1.00, 0.00, -0.00, -1.00, 797.2, 214.0)">e</text><text xml:space="preserve" font-family="Helvetica" font-size="41.0" fill="#000000" transform="matrix(1.00, 0.00, -0.00, -1.00, 820.0, 214.0)">l</text><text xml:space="preserve" font-family="Helvetica" font-size="41.0" fill="#000000" transform="matrix(1.00, 0.00, -0.00, -1.00, 829.1, 214.0)">e</text><text xml:space="preserve" font-family="Helvetica" font-size="41.0" fill="#000000" transform="matrix(1.00, 0.00, -0.00, -1.00, 851.9, 214.0)">m</text><text xml:space="preserve" font-family="Helvetica" font-size="41.0" fill="#000000" transform="matrix(1.00, 0.00, -0.00, -1.00, 886.1, 214.0)">e</text><text xml:space="preserve" font-family="Helvetica" font-size="41.0" fill="#000000" transform="matrix(1.00, 0.00, -0.00, -1.00, 908.9, 214.0)">n</text><text xml:space="preserve" font-family="Helvetica" font-size="41.0" fill="#000000" transform="matrix(1.00, 0.00, -0.00, -1.00, 931.7, 214.0)">t</text><text xml:space="preserve" font-family="Helvetica" font-size="41.0" fill="#000000" transform="matrix(1.00, 0.00, -0.00, -1.00, 943.1, 214.0)">s</text><text xml:space="preserve" font-family="Helvetica" font-size="41.0" fill="#000000" transform="matrix(1.00, 0.00, -0.00, -1.00, 963.6, 214.0)"> </text></g></svg>